<svg width="50" height="50" fill="none" xmlns="http://www.w3.org/2000/svg"><g clip-path="url(#a)"><path fill="#FBE0E0" d="M0 0h50v50H0z"/><path d="M18.944 15.522C15.672 16.745 13 17.767 13 17.782c0 .037 11.902 4.5 12 4.5.094 0 4.5-1.65 4.5-1.684 0-.018-.998-.44-2.217-.942l-2.217-.914 1.472-.623 1.471-.624 2.208.994c1.219.544 2.236.994 2.264.994.085.005 4.519-1.669 4.519-1.702 0-.047-11.916-4.5-12.023-4.495-.052 0-2.766 1.008-6.033 2.236Z" fill="url(#b)"/><path d="M13 26.045v6.764l5.592 2.096A589.588 589.588 0 0 0 24.217 37c.019 0 .033-3.042.033-6.764v-6.764l-5.587-2.095a725.768 725.768 0 0 0-5.626-2.096c-.023 0-.037 3.042-.037 6.764Zm4.533 4.66 1.467.553v.769c0 .59-.014.759-.056.745-.033-.014-.708-.263-1.5-.558L16 31.68v-.764c0-.418.014-.76.033-.76.014 0 .689.249 1.5.549Z" fill="url(#c)"/><path d="m34.694 20.116-2.194.825v3.755l-1.467.552c-.811.3-1.486.549-1.5.549-.019 0-.033-.835-.033-1.852 0-1.017-.014-1.851-.033-1.851-.023 0-.867.31-1.875.689l-1.842.689v6.764c0 3.722.014 6.764.038 6.764.018 0 2.55-.942 5.625-2.095L37 32.809v-6.764c0-5.38-.014-6.764-.056-6.76-.033 0-1.046.376-2.25.83Z" fill="url(#d)"/></g><defs><linearGradient id="b" x1="13" y1="17.784" x2="37" y2="17.784" gradientUnits="userSpaceOnUse"><stop stop-color="#E81212"/><stop offset="1" stop-color="#FCCD05"/></linearGradient><linearGradient id="c" x1="13" y1="28.141" x2="24.25" y2="28.141" gradientUnits="userSpaceOnUse"><stop stop-color="#E81212"/><stop offset="1" stop-color="#FCCD05"/></linearGradient><linearGradient id="d" x1="25.75" y1="28.143" x2="37" y2="28.143" gradientUnits="userSpaceOnUse"><stop stop-color="#E81212"/><stop offset="1" stop-color="#FCCD05"/></linearGradient><clipPath id="a"><rect width="50" height="50" rx="25" fill="#fff"/></clipPath></defs></svg>