<svg width="50" height="50" fill="none" xmlns="http://www.w3.org/2000/svg"><g clip-path="url(#a)"><path fill="#FBE0E0" d="M0 0h50v50H0z"/><path d="M24.152 14.387a8.566 8.566 0 0 0-7.617 7.242c-.038.254-.07.488-.07.516 0 .033-.16.061-.436.075-1.29.07-2.419.933-2.883 2.203l-.127.343-.014 1.603c-.019 1.832-.004 1.912.338 2.615a3.188 3.188 0 0 0 2.301 1.735c.83.154 1.697.126 2.016-.07.319-.198.305-.02.305-4.088 0-4.346.028-4.753.356-5.78a7.065 7.065 0 0 1 5.03-4.683c2.873-.698 5.822.469 7.5 2.968.257.38.665 1.232.82 1.715.328 1.027.356 1.434.356 5.79 0 4.171-.023 3.9.38 4.115.201.108.23.112 1.073.089.774-.019.905-.033 1.242-.14a3.252 3.252 0 0 0 1.341-.83 2.55 2.55 0 0 0 .577-.797c.356-.727.365-.802.346-2.64l-.014-1.602-.126-.343c-.46-1.265-1.598-2.132-2.883-2.203-.276-.014-.436-.042-.436-.075 0-.183-.16-1.06-.267-1.453-1.06-4.031-4.95-6.722-9.108-6.305Z" fill="url(#b)"/><path d="M16.155 31.773c.108.67.558 1.646 1.046 2.25 1.003 1.247 2.48 1.922 4.209 1.922h.375v-.876l-.61-.028c-.942-.047-1.584-.244-2.296-.713-.89-.581-1.51-1.458-1.8-2.531l-.047-.188-.455-.009-.45-.005.028.178Z" fill="url(#c)"/><path d="M23.585 34.042c-.44.16-.774.488-.938.914-.08.206-.093.333-.08.614.038.596.348 1.055.882 1.308l.258.122h2.578l.258-.122c.534-.253.844-.712.881-1.308a1.487 1.487 0 0 0-.792-1.43l-.253-.14-1.313-.01c-.993-.009-1.354 0-1.481.052Z" fill="url(#d)"/></g><defs><linearGradient id="b" x1="13" y1="22.581" x2="36.992" y2="22.581" gradientUnits="userSpaceOnUse"><stop stop-color="#E81212"/><stop offset="1" stop-color="#FCCD05"/></linearGradient><linearGradient id="c" x1="16.127" y1="33.77" x2="21.785" y2="33.77" gradientUnits="userSpaceOnUse"><stop stop-color="#E81212"/><stop offset="1" stop-color="#FCCD05"/></linearGradient><linearGradient id="d" x1="22.563" y1="35.494" x2="27.427" y2="35.494" gradientUnits="userSpaceOnUse"><stop stop-color="#E81212"/><stop offset="1" stop-color="#FCCD05"/></linearGradient><clipPath id="a"><rect width="50" height="50" rx="25" fill="#fff"/></clipPath></defs></svg>