<svg width="16" height="16" fill="none" xmlns="http://www.w3.org/2000/svg"><path d="M6.79 1.066c-.459.175-.75.771-.621 1.271.09.36.284.585.643.75.407.188.604.16.644-.087.025-.156-.065-.26-.325-.356-.362-.141-.525-.4-.444-.71.125-.465.72-.547 1.079-.147.15.166.234.35.234.525 0 .075-.072.51-.16.96l-.159.825-.115-.069c-1.12-.662-2.022-.831-2.435-.453-.1.09-.162.216-.225.456-.028.113-.887 2.375-1.903 5.031-1.222 3.185-1.856 4.882-1.869 4.988-.037.36.188.74.525.887.135.057.207.066.4.057.225-.013.49-.113 5.097-1.875 2.672-1.025 4.935-1.878 5.022-1.9.716-.166.784-.922.197-2.15a7.734 7.734 0 0 0-.356-.647l-.172-.263.147-.028c.08-.019.462-.09.843-.165.782-.15.863-.147 1.116.028.469.325.51.906.078 1.122a.505.505 0 0 1-.462.025c-.17-.072-.244-.157-.338-.388-.115-.275-.181-.347-.325-.347-.14 0-.24.069-.265.185-.041.184.237.746.446.9.238.175.354.212.663.212.256 0 .322-.012.475-.084.612-.285.812-.92.494-1.557-.225-.446-.7-.75-1.178-.75-.107 0-1.807.31-1.982.363-.03.01-.118-.075-.265-.26-.763-.968-1.963-2.137-2.878-2.806-.166-.122-.254-.203-.244-.234.006-.025.09-.463.187-.969.147-.756.175-.965.166-1.172-.025-.54-.375-.984-.925-1.168-.253-.085-.588-.085-.81 0ZM6.254 4c.416.137 1.31.61 1.31.69 0 .016-.05.291-.113.607-.097.487-.11.59-.078.669.069.162.297.212.422.087.056-.056.087-.169.16-.547.05-.26.1-.475.112-.475.046 0 .721.556 1.162.96a17.257 17.257 0 0 1 1.44 1.509l.248.297-.522.1c-.335.062-.547.119-.585.153-.084.075-.08.303.003.387.085.085.175.082.829-.046.309-.06.578-.11.596-.11.057 0 .472.656.66 1.035.278.565.403 1.024.325 1.221-.116.3-.585.244-1.425-.175-1.763-.875-4.185-3.306-5.047-5.065-.24-.494-.322-.731-.325-.988-.003-.168.01-.222.06-.278.137-.153.374-.165.768-.031Zm-.556 2.287c.144.229.394.635.553.9 1.012 1.679 2.016 3.082 3.09 4.32l.129.143-.366.144-.369.146-.18-.196c-1.08-1.16-2.423-3.07-3.645-5.178l-.225-.388.194-.522.197-.522.181.372c.097.203.297.553.44.781ZM4.72 7.312c.96 1.641 2.172 3.363 3.16 4.488l.305.347-.359.134c-.31.116-.366.128-.4.09-.16-.168-.753-.905-1.063-1.318-.609-.816-1.696-2.466-2.137-3.244l-.1-.178.147-.39c.112-.294.16-.385.184-.357.019.022.138.213.263.428Zm-.572 1.413c.794 1.303 1.9 2.875 2.578 3.662.103.12.175.225.16.241a3.243 3.243 0 0 1-.348.147l-.318.125-.325-.413C5.162 11.562 4.1 10.012 3.65 9.22l-.081-.141.147-.381c.078-.213.153-.385.162-.385.01 0 .131.188.269.413ZM8.953 9.8c.478.378 1.216.86 1.634 1.062.21.1.379.191.379.2.003.01-.213.1-.472.2l-.478.182-.135-.154a22.232 22.232 0 0 1-1.475-1.82l-.262-.36.25.222c.134.122.387.331.56.469Zm-5.434.237a36.132 36.132 0 0 0 1.862 2.675c.15.194.275.363.275.379 0 .012-.15.08-.334.15l-.335.125-.112-.144c-.55-.697-1.844-2.59-1.844-2.7 0-.022.053-.181.119-.353.066-.17.131-.335.14-.366.013-.028.026-.053.032-.053.01 0 .097.131.197.287Zm-.613 1.329c.169.278.847 1.259 1.194 1.725.172.228.316.43.325.453.012.03-.544.268-.634.268-.044 0-.429-.525-.96-1.306l-.365-.537.146-.391c.082-.216.157-.39.17-.39a.93.93 0 0 1 .124.178Zm-.469 1.524c.094.138.307.444.475.679.17.237.307.44.307.453 0 .04-1.125.456-1.222.453-.163-.003-.34-.184-.34-.34 0-.05.074-.26.459-1.254.059-.16.121-.281.134-.265.012.012.097.137.187.274Z" fill="#fff"/><path d="M8.856 6.184a.376.376 0 0 0-.2.303c0 .072.031.138.097.216.085.094.116.11.238.11.29 0 .43-.316.237-.532a.357.357 0 0 0-.372-.097Zm.61-4.531c-.116.119-.116.178.015.435.153.306.206.53.228.975.02.403-.018.856-.103 1.271-.05.238-.034.322.078.407.085.065.266.05.338-.032.115-.121.228-.853.228-1.459 0-1.116-.416-1.962-.784-1.597Zm1.656.407c-.072.071-.09.118-.09.221 0 .163.04.238.155.297.291.15.6-.134.457-.419-.107-.2-.369-.253-.522-.1Zm.628 1.656c-.303.1-.547.33-.66.625-.162.434.057.946.498 1.165.115.056.196.072.396.072.31 0 .497-.087.713-.328a.846.846 0 0 0 .234-.684.907.907 0 0 0-.881-.866c-.122-.006-.256 0-.3.016Zm.431.565c.238.144.29.44.116.625-.184.194-.41.2-.594.016-.2-.203-.169-.469.075-.631a.353.353 0 0 1 .403-.01Zm1.675 1.907c-.1.04-.2.184-.2.287 0 .2.138.334.338.338.35 0 .444-.447.131-.61a.278.278 0 0 0-.269-.016Z" fill="#fff"/></svg>