<svg width="50" height="50" fill="none" xmlns="http://www.w3.org/2000/svg"><g clip-path="url(#a)"><path fill="#FBE0E0" d="M0 0h50v50H0z"/><path d="M23.808 13.606c-.488.178-.568.253-5.555 5.24-5.677 5.687-5.245 5.19-5.245 6.034 0 .843-.324.454 4.12 4.907 3.098 3.108 3.942 3.929 4.153 4.041a1.835 1.835 0 0 0 1.627.028c.243-.108.796-.647 5.268-5.123 4.44-4.444 5.016-5.035 5.133-5.283l.136-.281.014-4.111c.01-4.069.01-4.111-.089-4.369a1.757 1.757 0 0 0-1.106-1.064c-.249-.084-.478-.09-4.275-.084-3.183 0-4.046.014-4.181.065Zm5.264 3.586c.487.183.834.675.834 1.195 0 .868-.877 1.496-1.702 1.215-.28-.094-.59-.37-.736-.657a1.326 1.326 0 0 1 0-1.115c.31-.605.98-.872 1.604-.638Z" fill="url(#b)"/><path d="m35.194 19.545-.015 4.28-.112.258c-.099.23-.68.825-5.1 5.255l-4.992 4.996.23.197c.407.361.806.497 1.34.464.703-.047.337.277 5.503-4.88 4.219-4.213 4.664-4.668 4.781-4.926l.132-.286V16.56l-.132-.258c-.295-.58-.764-.909-1.425-1.003l-.201-.028-.01 4.275Z" fill="url(#c)"/></g><defs><linearGradient id="b" x1="13" y1="23.786" x2="33.463" y2="23.786" gradientUnits="userSpaceOnUse"><stop stop-color="#E81212"/><stop offset="1" stop-color="#FCCD05"/></linearGradient><linearGradient id="c" x1="24.975" y1="25.135" x2="36.961" y2="25.135" gradientUnits="userSpaceOnUse"><stop stop-color="#E81212"/><stop offset="1" stop-color="#FCCD05"/></linearGradient><clipPath id="a"><rect width="50" height="50" rx="25" fill="#fff"/></clipPath></defs></svg>