<svg width="50" height="50" fill="none" xmlns="http://www.w3.org/2000/svg"><g clip-path="url(#a)"><circle cx="25.208" cy="25" r="25" fill="#fff"/><path d="M12.032 21.23c.136.818-.607 8.73-1.024 8.73-.416 0-1.122-8.048-1.023-8.73.132-.899.682-1.841 1.023-1.841.341 0 .879.971 1.024 1.841Zm0 23.665c.136-.818-.607-8.73-1.024-8.73-.416 0-1.123 8.048-1.023 8.73.132.898.682 1.841 1.023 1.841.341 0 .879-.971 1.024-1.841ZM5.979 22.306c.527.64 3.84 7.863 3.478 8.072-.36.208-4.996-6.408-5.25-7.049-.336-.844-.33-1.936-.035-2.106.295-.17 1.246.402 1.807 1.083ZM17.811 42.8c-.29-.777-4.89-7.256-5.25-7.048-.362.208 3.05 7.53 3.478 8.071.563.713 1.511 1.254 1.807 1.084.295-.17.275-1.281-.035-2.107ZM1.275 26.263c.777.291 7.256 4.89 7.048 5.251-.209.361-7.53-3.051-8.072-3.479-.712-.563-1.253-1.51-1.083-1.806.17-.296 1.28-.275 2.107.034ZM21.77 38.096c-.641-.528-7.864-3.84-8.072-3.479-.209.361 6.407 4.996 7.048 5.25.844.336 1.936.331 2.106.036.17-.296-.402-1.247-1.083-1.807ZM-.82 32.042c.818-.136 8.729.607 8.729 1.024 0 .417-8.047 1.123-8.73 1.023-.898-.131-1.84-.682-1.84-1.023 0-.34.97-.879 1.84-1.024Zm23.665 0c-.819-.136-8.73.607-8.73 1.024 0 .417 8.048 1.123 8.73 1.023.898-.131 1.841-.682 1.841-1.023 0-.34-.971-.879-1.841-1.024ZM.255 38.096c.64-.528 7.863-3.84 8.072-3.479.208.361-6.408 4.996-7.049 5.25-.844.336-1.936.331-2.106.036-.17-.296.402-1.247 1.083-1.807ZM20.75 26.263c-.777.291-7.257 4.89-7.049 5.251.209.361 7.531-3.051 8.072-3.479.712-.563 1.253-1.51 1.083-1.806-.17-.296-1.28-.275-2.107.034ZM4.213 42.8c.29-.777 4.89-7.256 5.25-7.048.362.208-3.05 7.53-3.478 8.071-.563.713-1.511 1.254-1.807 1.084-.295-.17-.275-1.281.035-2.107Zm11.832-20.494c-.527.64-3.839 7.863-3.478 8.072.36.208 4.996-6.408 5.25-7.049.336-.844.33-1.936.035-2.106-.295-.17-1.246.402-1.807 1.083Z" fill="#E81212"/><path d="M16.427 16.086c-.132.868-2.827 8.88-3.114 8.804-.287-.077 1.448-8.498 1.705-9.182.338-.901.978-1.77 1.212-1.708.235.063.337 1.163.197 2.086Zm-9.39-.376c.32.818 1.992 9.105 1.705 9.182-.287.076-2.995-8.084-3.114-8.804-.158-.95-.039-2.023.196-2.086.235-.063.873.838 1.213 1.708Zm9.39 34.362c-.132-.868-2.827-8.88-3.114-8.804-.287.077 1.448 8.498 1.705 9.182.338.901.978 1.771 1.212 1.708.235-.063.337-1.163.197-2.086Zm-9.39.376c.32-.818 1.992-9.105 1.705-9.181-.287-.077-2.995 8.083-3.114 8.804-.158.95-.039 2.022.196 2.085.235.063.873-.838 1.213-1.708Zm-8.025-30.54c.686.548 6.277 6.889 6.067 7.099-.21.21-6.635-5.503-7.099-6.068-.611-.743-1.044-1.732-.873-1.904.172-.172 1.176.29 1.905.873Zm-5.021 7.944c.868.132 8.881 2.828 8.804 3.115-.077.287-8.497-1.449-9.182-1.705-.901-.34-1.77-.979-1.708-1.213.063-.235 1.163-.337 2.086-.197ZM28.445 36.9c-.818-.319-9.105-1.99-9.182-1.704-.077.287 8.083 2.995 8.804 3.114.95.158 2.023.039 2.086-.196.063-.235-.839-.873-1.708-1.213Zm-4.369 8.321c-.549-.686-6.89-6.277-7.1-6.067-.21.21 5.503 6.635 6.068 7.099.744.611 1.732 1.045 1.904.873.172-.172-.29-1.176-.872-1.905ZM-6.385 36.9c.818-.319 9.105-1.99 9.181-1.704.077.287-8.083 2.995-8.804 3.114-.95.158-2.022.039-2.085-.196-.063-.235.838-.873 1.708-1.213Zm4.369 8.321c.548-.686 6.889-6.277 7.1-6.067.21.21-5.504 6.635-6.068 7.099-.744.611-1.733 1.045-1.905.873-.172-.172.29-1.176.873-1.905Zm25.063-25.313c-.685.548-6.277 6.889-6.067 7.099.21.21 6.635-5.503 7.1-6.068.61-.743 1.044-1.732.872-1.904-.172-.172-1.175.29-1.905.873Zm5.022 7.944c-.869.132-8.881 2.828-8.804 3.115.076.287 8.497-1.449 9.181-1.705.902-.34 1.771-.979 1.708-1.213-.063-.235-1.163-.337-2.085-.197Z" fill="#FCCD05"/><path d="M-2.683 49.081c.506-.61 6.187-5.719 6.348-5.559.16.161-5.056 5.92-5.56 6.348-.663.562-1.518.993-1.65.861-.13-.131.325-1 .862-1.65Zm4.327 3.109c.33-.72 4.495-7.125 4.692-7.012.197.114-3.351 7.027-3.727 7.57-.495.714-1.21 1.352-1.37 1.259-.161-.093.054-1.05.405-1.817Zm23.341-35.097c-.506.611-6.187 5.72-6.348 5.56-.16-.161 5.056-5.921 5.56-6.348.663-.562 1.518-.993 1.65-.861.13.13-.325 1-.862 1.65Zm-4.327-3.108c-.33.72-4.495 7.125-4.692 7.012-.196-.114 3.351-7.027 3.727-7.57.495-.714 1.21-1.352 1.37-1.26.161.094-.053 1.052-.405 1.818ZM7.168 53.856c.132-.782 2.498-8.046 2.717-7.988.22.06-1.418 7.655-1.64 8.277-.294.818-.82 1.619-.999 1.57-.179-.047-.22-1.028-.078-1.859Zm5.301.529c-.074-.789.33-8.419.558-8.419.226 0 .611 7.762.557 8.42-.072.866-.372 1.775-.557 1.775-.186 0-.48-.937-.558-1.776Zm2.665-42.065c-.132.781-2.498 8.046-2.717 7.987-.22-.058 1.418-7.655 1.64-8.276.294-.818.82-1.62.999-1.571.179.048.22 1.029.079 1.86Zm-5.301-.53c.074.79-.33 8.42-.557 8.42-.227 0-.612-7.762-.558-8.42.072-.866.372-1.775.558-1.775.185 0 .478.936.557 1.775Zm8.252 41.275c-.276-.743-1.86-8.218-1.64-8.276.219-.06 2.6 7.338 2.717 7.987.155.856.1 1.812-.079 1.86-.18.048-.704-.781-.998-1.571Zm4.856-2.192c-.459-.647-3.923-7.457-3.727-7.57.197-.114 4.41 6.416 4.692 7.012.372.787.567 1.724.406 1.817-.161.093-.883-.572-1.371-1.26ZM4.217 13.11c.276.743 1.86 8.218 1.64 8.276-.219.06-2.599-7.338-2.717-7.987-.155-.856-.1-1.812.079-1.86.18-.048.705.781.998 1.571Zm-4.856 2.192c.459.647 3.923 7.456 3.727 7.57-.197.113-4.41-6.416-4.692-7.012-.372-.787-.566-1.724-.406-1.817.161-.093.883.572 1.371 1.26Zm27.784 31.62c-.61-.506-5.72-6.187-5.559-6.347.16-.16 5.92 5.055 6.347 5.559.562.663.993 1.518.862 1.65-.132.13-1.001-.325-1.65-.862Zm3.109-4.326c-.72-.33-7.126-4.496-7.012-4.693.113-.196 7.027 3.351 7.57 3.727.714.495 1.352 1.21 1.259 1.37-.093.161-1.05-.053-1.817-.404ZM-4.843 19.25c.611.506 5.72 6.188 5.56 6.348-.161.16-5.921-5.055-6.348-5.559-.562-.663-.993-1.518-.862-1.65.132-.13 1.001.325 1.65.862Zm36.762 17.824c-.782-.132-8.047-2.498-7.988-2.717.059-.22 7.655 1.418 8.276 1.64.819.294 1.62.819 1.572.998-.049.18-1.03.22-1.86.08Zm.529-5.302c-.789.075-8.419-.33-8.419-.557 0-.227 7.762-.612 8.42-.558.866.072 1.775.372 1.775.558 0 .185-.937.478-1.776.557Zm-1.32-5.618c-.743.276-8.217 1.86-8.276 1.64-.059-.22 7.338-2.6 7.988-2.717.855-.155 1.811-.1 1.86.078.047.18-.782.705-1.572.999Zm-2.192-4.857c-.646.46-7.456 3.923-7.57 3.727-.113-.197 6.416-4.41 7.013-4.692.786-.371 1.723-.566 1.816-.405.093.16-.572.882-1.259 1.37Zm-35.57 23.581c.646-.46 7.456-3.924 7.57-3.727.113.196-6.416 4.41-7.013 4.692-.786.371-1.723.566-1.816.405-.093-.16.572-.883 1.26-1.37Zm49.121-42.93c.083.5-.372 5.348-.628 5.348-.255 0-.688-4.93-.626-5.348.08-.551.418-1.129.626-1.129.21 0 .539.595.628 1.129Zm0 14.499c.083-.501-.372-5.348-.628-5.348-.255 0-.688 4.93-.626 5.348.08.55.418 1.128.626 1.128.21 0 .539-.595.628-1.128ZM38.778 2.606c.323.392 2.352 4.818 2.131 4.945-.221.128-3.06-3.926-3.217-4.318-.205-.517-.202-1.186-.021-1.29.18-.105.764.246 1.107.663Zm7.25 12.557c-.179-.476-2.996-4.446-3.218-4.319-.22.128 1.87 4.614 2.132 4.946.345.436.926.768 1.107.663.18-.104.168-.784-.021-1.29ZM35.896 5.032c.476.178 4.446 2.996 4.318 3.217-.128.221-4.614-1.87-4.945-2.131-.437-.345-.768-.926-.664-1.107.105-.181.785-.169 1.29.02Zm12.557 7.249c-.393-.323-4.818-2.352-4.946-2.13-.128.22 3.926 3.06 4.319 3.216.517.206 1.185.203 1.29.022.105-.181-.246-.764-.663-1.108ZM34.612 8.572c.502-.083 5.349.372 5.349.627 0 .256-4.931.688-5.349.627-.55-.08-1.128-.418-1.128-.627 0-.209.595-.538 1.128-.627Zm14.499 0c-.501-.083-5.348.372-5.348.627 0 .256 4.93.688 5.348.627.55-.08 1.129-.418 1.129-.627 0-.209-.596-.538-1.129-.627ZM35.27 12.28c.393-.323 4.819-2.352 4.946-2.13.128.22-3.926 3.06-4.318 3.216-.517.206-1.186.203-1.29.022-.105-.181.246-.764.663-1.107Zm12.558-7.25c-.476.18-4.446 2.997-4.319 3.218.128.221 4.614-1.87 4.946-2.131.436-.345.768-.926.663-1.107-.104-.181-.784-.169-1.29.02ZM37.696 15.164c.178-.476 2.996-4.446 3.217-4.319.221.128-1.87 4.614-2.131 4.945-.345.437-.926.769-1.107.664-.181-.104-.169-.784.02-1.29Zm7.249-12.557c-.323.392-2.352 4.818-2.13 4.945.22.128 3.06-3.926 3.216-4.318.206-.517.203-1.186.022-1.29-.181-.105-.764.246-1.108.663Z" fill="#E81212"/><path d="M45.18-1.204c-.081.532-1.733 5.441-1.909 5.394-.175-.047.888-5.206 1.045-5.625.207-.553.6-1.085.743-1.047.144.039.207.713.12 1.278Zm-5.754-.23c.196.5 1.22 5.578 1.045 5.625-.176.047-1.835-4.952-1.908-5.394-.097-.582-.024-1.24.12-1.278.144-.039.535.514.743 1.047Zm5.754 21.053c-.081-.532-1.733-5.441-1.909-5.394-.175.047.888 5.206 1.045 5.625.207.553.6 1.085.743 1.047.144-.039.207-.712.12-1.278Zm-5.754.231c.196-.502 1.22-5.579 1.045-5.626-.176-.047-1.835 4.952-1.908 5.394-.097.582-.024 1.24.12 1.278.144.039.535-.514.743-1.047ZM34.51 1.139c.42.336 3.846 4.22 3.717 4.35-.129.128-4.065-3.372-4.35-3.718-.374-.456-.64-1.062-.534-1.167.105-.105.72.177 1.166.535Zm-3.077 4.866c.532.081 5.441 1.733 5.394 1.909-.047.175-5.206-.888-5.625-1.045-.553-.208-1.085-.6-1.047-.743.039-.144.713-.207 1.278-.12Zm21.11 5.545c-.502-.196-5.579-1.22-5.626-1.045-.047.176 4.953 1.835 5.394 1.908.582.097 1.24.024 1.278-.12.039-.144-.514-.535-1.046-.743Zm-2.677 5.097c-.336-.42-4.221-3.846-4.35-3.717-.129.128 3.372 4.065 3.718 4.35.455.374 1.061.64 1.166.534.106-.105-.177-.72-.534-1.167ZM31.203 11.55c.5-.196 5.578-1.22 5.625-1.045.047.176-4.952 1.835-5.394 1.908-.582.097-1.24.024-1.278-.12-.038-.144.514-.535 1.047-.743Zm2.677 5.097c.335-.42 4.22-3.846 4.35-3.717.128.128-3.372 4.065-3.718 4.35-.456.374-1.062.64-1.167.534-.105-.105.177-.72.535-1.167ZM49.236 1.139c-.42.336-3.846 4.22-3.718 4.35.13.128 4.066-3.372 4.35-3.718.374-.456.64-1.062.535-1.167-.106-.105-.72.177-1.167.535Zm3.076 4.866c-.532.081-5.441 1.733-5.394 1.909.047.175 5.206-.888 5.625-1.045.553-.208 1.086-.6 1.047-.743-.039-.144-.713-.207-1.278-.12Z" fill="#FCCD05"/><path d="M33.471 19.012c.31-.374 3.79-3.504 3.889-3.406.098.099-3.097 3.628-3.406 3.889-.406.344-.93.608-1.01.528-.081-.08.198-.613.527-1.01Zm2.651 1.905c.202-.442 2.754-4.366 2.875-4.297.12.07-2.053 4.306-2.284 4.638-.303.438-.74.829-.84.772-.098-.057.034-.644.249-1.113ZM50.423-.587c-.31.374-3.79 3.504-3.89 3.406-.098-.099 3.098-3.628 3.407-3.89.406-.344.93-.608 1.01-.527.08.08-.198.613-.527 1.01Zm-2.651-1.905c-.203.442-2.755 4.366-2.875 4.296-.12-.07 2.053-4.305 2.283-4.637.304-.438.742-.829.84-.772.099.057-.033.644-.248 1.113Zm-8.266 24.428c.081-.478 1.53-4.93 1.665-4.893.134.035-.869 4.69-1.005 5.07-.18.502-.502.992-.611.963-.11-.03-.135-.63-.049-1.14Zm3.248.324c-.045-.483.203-5.158.342-5.158s.375 4.756.341 5.159c-.044.53-.227 1.088-.341 1.088-.114 0-.293-.574-.342-1.088Zm1.633-25.772c-.08.48-1.53 4.93-1.665 4.894-.134-.036.87-4.69 1.006-5.07.18-.502.501-.993.611-.963.11.03.135.63.048 1.14Zm-3.247-.324c.045.484-.203 5.158-.342 5.158-.14 0-.375-4.755-.342-5.158.044-.53.228-1.088.342-1.088.113 0 .293.574.341 1.088Zm5.055 25.288c-.169-.456-1.139-5.035-1.005-5.071.135-.036 1.593 4.496 1.665 4.894.095.524.062 1.11-.048 1.14-.11.029-.432-.48-.612-.963Zm2.975-1.343c-.28-.396-2.403-4.569-2.283-4.638.12-.07 2.702 3.93 2.875 4.296.227.482.347 1.056.248 1.113-.098.057-.54-.35-.84-.771ZM37.699-3.027c.169.455 1.139 5.035 1.005 5.07-.135.037-1.593-4.495-1.665-4.893-.095-.524-.062-1.11.048-1.14.11-.029.432.479.611.963Zm-2.976 1.343c.282.396 2.404 4.568 2.284 4.638-.12.07-2.703-3.93-2.875-4.297-.228-.481-.347-1.056-.248-1.112.098-.057.54.35.84.771Zm17.023 19.373c-.374-.31-3.504-3.791-3.406-3.89.099-.098 3.628 3.098 3.889 3.407.344.406.608.93.528 1.01-.08.08-.613-.198-1.011-.527Zm1.905-2.652c-.442-.202-4.366-2.754-4.296-2.874.07-.12 4.305 2.053 4.638 2.283.437.303.828.741.771.84-.057.098-.644-.033-1.113-.248ZM32.148.737c.374.31 3.504 3.79 3.406 3.89-.099.098-3.628-3.098-3.89-3.407-.344-.406-.608-.93-.527-1.01.08-.081.613.198 1.01.527Zm-1.905 2.651c.441.203 4.366 2.755 4.296 2.875-.07.12-4.305-2.053-4.638-2.283-.438-.304-.828-.741-.771-.84.057-.098.643.033 1.113.248Zm24.428 8.268c-.479-.08-4.93-1.53-4.894-1.664.036-.135 4.69.868 5.07 1.005.502.18.993.501.963.611-.029.11-.63.135-1.139.048Zm.324-3.248c-.483.045-5.158-.203-5.158-.342s4.756-.374 5.158-.341c.532.044 1.089.227 1.089.341 0 .114-.574.293-1.089.342ZM29.223 6.771c.479.081 4.93 1.53 4.894 1.665-.036.134-4.69-.869-5.071-1.005-.502-.18-.992-.502-.963-.611.03-.11.63-.135 1.14-.049Zm-.325 3.249c.484-.046 5.159.202 5.159.341 0 .14-4.756.375-5.159.342-.53-.044-1.088-.228-1.088-.341 0-.114.574-.294 1.088-.342Zm25.289-5.056c-.456.169-5.035 1.14-5.071 1.005-.036-.134 4.496-1.593 4.894-1.665.524-.095 1.11-.062 1.14.048.029.11-.48.432-.963.612Zm-1.343-2.975c-.397.281-4.569 2.404-4.638 2.283-.07-.12 3.93-2.702 4.296-2.875.482-.227 1.056-.347 1.113-.248.057.099-.35.54-.771.84ZM29.707 13.46c.456-.168 5.035-1.139 5.07-1.004.037.134-4.495 1.593-4.893 1.665-.524.095-1.11.061-1.14-.049-.029-.11.48-.431.963-.611Zm1.343 2.976c.396-.281 4.569-2.404 4.638-2.283.07.12-3.93 2.702-4.296 2.874-.482.228-1.056.347-1.113.249-.057-.099.35-.541.771-.84Zm13.71 18.351c.047.282-.21 3.016-.354 3.016s-.388-2.78-.353-3.016c.045-.31.235-.637.353-.637s.304.336.354.637Zm0 8.178c.047-.283-.21-3.017-.354-3.017s-.388 2.782-.353 3.017c.045.31.235.637.353.637s.304-.336.354-.637Zm-2.092-7.806c.182.221 1.327 2.717 1.202 2.79-.124.071-1.726-2.215-1.814-2.437-.116-.291-.114-.669-.012-.727.102-.06.43.138.624.374Zm4.089 7.082c-.1-.268-1.69-2.508-1.814-2.436-.125.072 1.054 2.603 1.202 2.79.194.246.522.433.624.374.102-.059.095-.443-.012-.728Zm-5.715-5.715c.269.1 2.508 1.69 2.436 1.815-.072.124-2.602-1.055-2.79-1.202-.245-.195-.432-.523-.373-.625.059-.102.442-.095.727.012Zm7.083 4.089c-.221-.182-2.717-1.326-2.79-1.202-.072.125 2.215 1.727 2.436 1.815.292.116.67.114.728.012.06-.102-.139-.431-.374-.625Zm-7.806-2.091c.282-.047 3.016.21 3.016.354s-2.78.388-3.017.353c-.31-.045-.636-.236-.636-.353 0-.118.336-.304.636-.354Zm8.178 0c-.283-.047-3.017.21-3.017.354s2.78.388 3.017.353c.31-.045.636-.236.636-.353 0-.118-.336-.304-.636-.354Zm-7.807 2.091c.221-.182 2.718-1.326 2.79-1.202.072.125-2.215 1.727-2.436 1.815-.292.116-.67.114-.728.012-.059-.102.139-.431.374-.625Zm7.083-4.089c-.269.1-2.508 1.69-2.436 1.815.072.124 2.602-1.055 2.79-1.202.245-.195.432-.523.373-.625-.058-.102-.442-.095-.727.012Zm-5.715 5.715c.1-.268 1.69-2.508 1.815-2.436.124.072-1.055 2.603-1.203 2.79-.194.246-.522.433-.624.374-.102-.059-.095-.443.012-.728Zm4.089-7.082c-.182.221-1.327 2.717-1.202 2.79.125.071 1.726-2.215 1.814-2.437.116-.291.114-.669.012-.727-.102-.06-.43.138-.624.374Z" fill="#E81212"/><path d="M46.279 33.008c-.046.3-.977 3.07-1.077 3.043-.099-.027.501-2.937.59-3.173.117-.312.338-.612.419-.59.081.021.116.401.068.72Zm-3.245-.13c.11.283.688 3.146.589 3.173-.1.026-1.035-2.793-1.076-3.043-.055-.328-.014-.699.068-.72.08-.022.301.29.419.59Zm3.245 11.878c-.046-.3-.977-3.069-1.077-3.042-.099.026.501 2.936.59 3.173.117.311.338.612.419.59.081-.022.116-.402.068-.72Zm-3.245.131c.11-.283.688-3.147.589-3.173-.1-.027-1.035 2.793-1.076 3.042-.055.328-.014.7.068.721.08.022.301-.29.419-.59ZM40.26 34.333c.238.19 2.17 2.38 2.097 2.453-.072.072-2.292-1.902-2.453-2.097-.211-.257-.361-.599-.302-.658.06-.06.407.1.659.302Zm-1.734 2.745c.3.045 3.068.977 3.042 1.076-.027.1-2.937-.5-3.173-.589-.312-.117-.612-.338-.59-.42.022-.08.402-.116.72-.067Zm11.906 3.127c-.283-.11-3.147-.688-3.173-.589-.027.1 2.793 1.035 3.042 1.076.329.055.7.014.721-.068.022-.08-.29-.301-.59-.419Zm-1.51 2.875c-.19-.237-2.38-2.17-2.453-2.097-.073.073 1.901 2.293 2.096 2.453.258.212.6.361.659.302.059-.06-.1-.406-.302-.658Zm-10.526-2.878c.283-.11 3.146-.688 3.173-.589.026.1-2.793 1.035-3.043 1.076-.328.055-.699.014-.72-.068-.022-.08.29-.301.59-.419Zm1.51 2.875c.19-.237 2.38-2.17 2.453-2.097.073.073-1.901 2.293-2.097 2.454-.257.21-.598.36-.658.301-.06-.06.1-.406.302-.658Zm8.661-8.747c-.237.19-2.17 2.381-2.096 2.454.072.073 2.292-1.902 2.453-2.097.211-.257.36-.598.301-.658-.059-.06-.406.1-.658.302Zm1.735 2.746c-.3.046-3.069.977-3.042 1.076.026.1 2.936-.5 3.173-.589.311-.117.612-.338.59-.42-.022-.08-.402-.115-.72-.067Z" fill="#FCCD05"/><path d="M39.675 44.41c.175-.21 2.138-1.976 2.194-1.92.055.055-1.748 2.045-1.922 2.193-.229.194-.524.343-.57.298-.045-.046.112-.346.298-.57Zm1.495 1.075c.114-.25 1.554-2.462 1.622-2.423.068.039-1.158 2.428-1.288 2.616-.171.247-.418.467-.474.435-.056-.032.019-.363.14-.628Zm8.066-12.128c-.175.211-2.138 1.977-2.193 1.921-.056-.056 1.747-2.046 1.92-2.193.23-.195.526-.343.57-.298.046.045-.111.346-.297.57Zm-1.495-1.074c-.114.249-1.553 2.462-1.621 2.423-.068-.04 1.158-2.429 1.288-2.616.17-.247.417-.467.473-.435.056.032-.019.363-.14.628Zm-4.662 13.778c.045-.27.863-2.78.939-2.76.075.02-.49 2.645-.567 2.86-.102.282-.283.56-.345.543-.062-.017-.076-.356-.027-.643Zm1.831.183c-.025-.273.115-2.91.193-2.91.079 0 .212 2.682.193 2.91-.025.3-.128.613-.193.613-.064 0-.165-.323-.192-.613Zm.922-14.537c-.046.27-.863 2.78-.94 2.76-.075-.02.49-2.645.568-2.86.101-.283.283-.56.345-.543.062.017.076.355.027.643ZM44 31.524c.026.273-.114 2.91-.193 2.91-.078 0-.211-2.683-.192-2.91.024-.3.128-.614.192-.614s.166.324.193.614Zm2.852 14.264c-.096-.257-.643-2.84-.567-2.86.076-.02.898 2.536.939 2.76.054.296.035.626-.027.643-.062.016-.244-.27-.345-.543Zm1.678-.758c-.159-.223-1.356-2.577-1.288-2.616.068-.039 1.524 2.217 1.622 2.424.128.271.195.595.14.627-.056.032-.305-.197-.474-.435Zm-6.47-13.05c.095.257.642 2.84.566 2.86-.076.02-.898-2.536-.939-2.76-.053-.296-.035-.626.027-.643.062-.017.244.27.345.543Zm-1.679.757c.159.224 1.356 2.577 1.288 2.616-.068.04-1.524-2.217-1.621-2.423-.129-.272-.196-.596-.14-.628.055-.032.305.198.473.435Zm9.602 10.929c-.211-.175-1.977-2.138-1.921-2.194.055-.055 2.046 1.747 2.193 1.922.194.229.343.524.298.57-.046.045-.346-.112-.57-.298Zm1.074-1.496c-.249-.114-2.462-1.554-2.423-1.622.04-.068 2.428 1.158 2.616 1.288.247.172.467.418.435.474-.032.055-.363-.019-.628-.14ZM38.928 34.1c.212.175 1.977 2.139 1.922 2.194-.056.056-2.046-1.747-2.194-1.92-.194-.23-.343-.526-.298-.571.046-.045.346.112.57.298Zm-1.074 1.497c.25.114 2.462 1.553 2.423 1.621-.039.068-2.428-1.158-2.616-1.288-.247-.17-.467-.418-.435-.473.032-.056.363.018.628.14Zm13.778 4.663c-.27-.045-2.78-.862-2.76-.938.02-.076 2.645.49 2.86.567.283.101.56.283.543.345-.017.062-.355.076-.643.027Zm.183-1.831c-.272.026-2.909-.114-2.909-.193 0-.078 2.682-.211 2.91-.192.299.025.613.128.613.192 0 .065-.324.166-.614.193Zm-14.536-.921c.27.045 2.78.863 2.76.939-.02.075-2.645-.49-2.86-.567-.283-.102-.56-.283-.543-.345.017-.062.356-.076.643-.027Zm-.183 1.832c.273-.026 2.91.114 2.91.192 0 .079-2.683.212-2.91.193-.3-.025-.614-.129-.614-.193s.324-.165.614-.192Zm14.264-2.852c-.258.095-2.84.642-2.86.567-.021-.076 2.535-.899 2.76-.94.295-.053.626-.034.642.028.017.062-.27.243-.543.345Zm-.758-1.678c-.224.159-2.577 1.356-2.616 1.288-.04-.068 2.217-1.524 2.423-1.622.272-.128.596-.195.628-.14.032.056-.198.305-.435.474Zm-13.05 6.47c.257-.096 2.84-.643 2.86-.567.02.076-2.536.898-2.76.939-.296.053-.626.035-.643-.027-.017-.062.27-.244.543-.345Zm.758 1.678c.223-.159 2.576-1.356 2.615-1.288.04.068-2.217 1.524-2.423 1.621-.272.129-.596.196-.628.14-.032-.055.198-.305.435-.473ZM18.635 2.827c.047-.283-.21-3.017-.353-3.017-.144 0-.388 2.78-.354 3.017.046.31.236.636.354.636.117 0 .303-.336.353-.636Zm1.998-.725c-.1-.268-1.69-2.507-1.815-2.435-.125.072 1.054 2.602 1.202 2.79.195.245.523.432.625.373.102-.059.095-.442-.012-.728ZM22 .477C21.78.294 19.283-.85 19.211-.725c-.072.124 2.214 1.726 2.436 1.814.291.116.669.114.728.012.058-.102-.14-.43-.375-.624Zm-7.434 0c.22-.183 2.717-1.327 2.789-1.202.072.124-2.215 1.726-2.436 1.814-.292.116-.669.114-.728.012-.059-.102.14-.43.374-.624Zm1.367 1.625c.1-.268 1.69-2.507 1.815-2.435.125.072-1.055 2.602-1.202 2.79-.195.245-.523.432-.625.373-.102-.059-.095-.442.012-.728Z" fill="#E81212"/><path d="M20.154 4.618c-.045-.3-.977-3.07-1.076-3.043-.1.027.5 2.937.59 3.173.116.312.337.612.418.59.082-.021.117-.401.068-.72Zm-3.244.13c.11-.283.688-3.146.588-3.173-.099-.027-1.034 2.793-1.076 3.043-.054.328-.013.699.068.72.081.022.302-.29.42-.59ZM24.307.066c-.282-.11-3.146-.688-3.173-.589-.026.1 2.794 1.035 3.043 1.077.328.054.699.013.72-.068.022-.081-.29-.302-.59-.42Zm-1.51 2.875c-.19-.237-2.38-2.17-2.453-2.096-.073.072 1.902 2.292 2.097 2.453.257.211.599.36.658.301.06-.059-.1-.406-.302-.658ZM12.271.064c.283-.111 3.147-.689 3.173-.59.027.1-2.793 1.035-3.042 1.077-.328.054-.7.013-.72-.068-.023-.081.289-.302.59-.42Zm1.51 2.874c.19-.237 2.38-2.169 2.454-2.096.072.072-1.902 2.292-2.097 2.453-.257.211-.599.36-.658.301-.06-.059.1-.406.301-.658Z" fill="#FCCD05"/><path d="M13.55 4.272c.175-.211 2.138-1.977 2.194-1.921.055.055-1.747 2.046-1.921 2.193-.23.195-.525.343-.57.298-.046-.045.112-.346.297-.57Zm1.496 1.074c.114-.249 1.553-2.462 1.621-2.423.068.04-1.158 2.428-1.288 2.616-.171.247-.418.467-.473.435-.056-.032.018-.363.14-.628Zm1.908.576c.045-.27.863-2.78.939-2.76.075.02-.49 2.645-.567 2.86-.102.283-.283.56-.345.543-.062-.017-.076-.356-.027-.643Zm1.832.183c-.026-.273.114-2.91.192-2.91.079 0 .212 2.683.193 2.91-.025.3-.128.614-.193.614-.064 0-.165-.324-.192-.614Zm1.941-.456c-.095-.257-.642-2.84-.567-2.86.076-.02.899 2.536.94 2.76.053.296.034.626-.028.643-.062.017-.243-.27-.345-.543Zm1.678-.757c-.158-.224-1.355-2.577-1.288-2.616.068-.04 1.524 2.217 1.622 2.423.128.272.196.596.14.628-.056.032-.305-.198-.474-.435Zm1.453-1.362c-.211-.176-1.977-2.139-1.921-2.194.055-.056 2.046 1.747 2.193 1.92.195.23.344.525.298.57-.045.046-.346-.111-.57-.297Zm1.075-1.497C24.683 1.92 22.47.48 22.509.412c.04-.068 2.429 1.158 2.616 1.288.247.17.467.418.435.473-.032.056-.363-.018-.627-.14Zm.575-1.911c-.27-.046-2.78-.863-2.76-.939.02-.076 2.645.49 2.86.567.282.102.56.283.543.345-.017.062-.356.076-.643.027ZM11.427 1.141c.257-.095 2.84-.642 2.86-.567.02.076-2.536.899-2.76.94-.296.053-.626.034-.643-.028-.016-.062.27-.243.543-.345Zm.758 1.678c.223-.159 2.577-1.356 2.616-1.288.039.068-2.217 1.524-2.424 1.622-.271.128-.595.195-.627.14-.032-.056.197-.305.435-.474Z" fill="#E81212"/></g><defs><clipPath id="a"><rect width="50" height="50" rx="25" fill="#fff"/></clipPath></defs></svg>