<svg width="227" height="30" viewBox="0 0 227 30" fill="none" xmlns="http://www.w3.org/2000/svg">
<path d="M13.6 12.8C13.6 13.5 13.3 14.1 12.6 14.5C12 19.5 10.8 22.6 8.9 23.8C8.2 24.2 7.5 24.5 6.9 24.5C5.6 24.5 4.5 24.2 3.6 23.6C2.7 23 2.3 21.8 2.3 20C2.3 19 2.4 18.2 2.6 17.8C2.8 17.3 3.3 17.1 4.1 17.1C4.6 17.1 4.9 17.3 5.1 17.6C5.3 18 5.5 18.5 5.5 19.2C5.6 20 5.6 20.5 5.6 20.5C5.7 21.1 6 21.3 6.4 21.3C6.6 21.3 6.9 21.1 7.3 20.6C8.1 19.6 8.6 17.8 8.9 15C8.5 15 8.2 14.9 8.2 14.9C7.8 14.9 7.5 14.9 7.4 15C7.2 15.1 7 15.1 6.8 15.1C6.6 15.1 6.4 15 6.2 14.7C6 14.4 5.9 14.2 5.9 14C5.9 13.8 5.9 13.6 5.8 13.3C5.8 13 5.7 12.8 5.7 12.6C5.7 12.2 5.8 12 6.1 12C6.3 12 6.6 12 7 12.1C7.4 12.1 7.7 12.2 7.9 12.2H8.9V10.9C8.9 9.1 8.7 7.7 8.3 6.5C8.2 6.2 7.9 6 7.5 6C6.7 6 6 6.6 5.4 7.7C5.2 8.3 5 9 4.8 9.6C4.5 10.4 4.1 10.8 3.5 10.8C3 10.8 2.7 10.6 2.4 10.2C2.1 9.8 2 9.4 2 8.9C2 7.3 2.4 6 3.3 5C4.2 4 5.4 3.5 7 3.5C7.7 3.5 8.5 3.7 9.2 4C10 4.3 10.5 4.7 10.9 5.2C12 6.4 12.5 8.7 12.5 12C13.4 12 13.6 12.3 13.6 12.8Z" fill="white" stroke="white" stroke-width="3.3" stroke-miterlimit="10" stroke-linecap="round" stroke-linejoin="round"/>
<path d="M26.3 15C26.3 15.3 26.3 15.7 26.3 16.3C26.3 16.9 26.3 17.3 26.3 17.6C26.3 18.2 26.3 19.1 26.2 20.3C26.1 21.5 26.1 22.4 26.1 23C26.1 23.3 26 23.5 25.9 23.6C25.8 23.7 25.6 23.8 25.4 23.8C23.9 23.8 23.1 23.3 23.1 22.3C23.1 21.8 23.1 21 23 19.9C22.9 18.8 22.9 18 22.9 17.5C22.9 17.3 22.9 17 23 16.7C23 16.3 23.1 16.1 23.1 15.9C23.1 15.4 23 15.1 22.8 15.1C22.6 15.1 22.3 15.1 21.9 15.2C21.5 15.3 21.2 15.3 21 15.3H20.9C20.8 15.3 20.8 15.3 20.7 15.3C20.1 15.3 19.6 15.4 19.3 15.5C19.2 15.5 19.2 16.5 19.2 18.4C19.2 18.7 19.2 19.2 19.2 19.8C19.2 20.4 19.2 20.9 19.2 21.2C19.2 21.3 19.2 21.4 19.2 21.5C19.2 21.6 19.2 21.8 19.2 21.8C19.2 21.9 19.2 22.2 19.2 22.5C19.2 22.8 19.2 23 19.2 23.2C19.2 23.3 19.2 23.3 19.2 23.5C19.2 23.6 19.2 23.7 19.2 23.8C19.2 24.1 19.1 24.2 18.8 24.2C18.7 24.2 18.6 24.2 18.5 24.1C18.4 24.1 18.2 24 18.2 24C17.3 24 16.7 23.8 16.5 23.4C16.3 23 16.1 22.1 16.1 20.7C16.1 19.9 16.1 18.6 16 17C16 15.3 15.9 14.1 15.9 13.3C15.9 12.6 15.9 11.8 16 10.8C16.1 9.4 16.1 8.6 16.1 8.3C16.1 7.7 16.1 6.8 16.1 5.6C16.1 5.3 16.2 5 16.4 4.6C16.5 4.3 16.7 4.1 17 4.1C18 4.1 18.6 4.2 18.8 4.4C19.1 4.6 19.2 5.2 19.2 6.1C19.2 6.4 19.2 6.8 19.2 7.3C19.2 7.8 19.2 8.2 19.2 8.5C19.2 8.8 19.2 9.2 19.2 9.7C19.2 10.2 19.2 10.6 19.2 10.9C19.2 11 19.2 11.2 19.2 11.4C19.2 11.6 19.2 11.8 19.2 11.8C19.2 11.9 19.2 12 19.3 12C19.4 12 19.6 12 19.8 12C20 12 20.2 12 20.3 12C20.3 12 20.4 12 20.5 12C20.6 12 20.7 12 20.7 12C20.9 12 21.2 12 21.5 11.9C21.8 11.8 22.1 11.8 22.3 11.8C22.4 11.8 22.4 11.8 22.5 11.8C22.6 11.8 22.7 11.8 22.7 11.8C22.7 11.8 22.8 11.7 22.8 11.4C22.9 10.4 23 8.5 23 5.5C23 5.3 23 4.9 22.9 4.5C22.9 4 22.8 3.7 22.8 3.5C22.8 3.1 22.9 2.8 23 2.7C23.1 2.6 23.4 2.5 23.8 2.5C24.3 2.5 24.8 2.6 25.2 2.8C25.8 3.1 26 3.4 26 3.8C26 3.9 26 4.1 26 4.3C26 4.5 26 4.7 26 4.8C26 4.9 26 5.2 26 5.5C26 5.8 26 6 26 6.2C26 6.5 26 6.9 26 7.4C26 7.9 26 8.3 26 8.6C26 9 26 9.7 26 10.5C26 11.4 26 12 26 12.4C26 12.7 26 13.1 26 13.7C26.3 14.2 26.3 14.7 26.3 15Z" fill="white" stroke="white" stroke-width="3.3" stroke-miterlimit="10" stroke-linecap="round" stroke-linejoin="round"/>
<path d="M38.7 23.2C38.4 23.3 37.3 23.5 35.5 23.8C33.6 24.1 32.5 24.2 32.1 24.2C32 24.2 31.7 24.1 31.2 23.8C30.8 23.6 30.5 23.4 30.4 23.2C30.1 22.8 30 21.2 30 18.4C30 15.2 30 12.6 30.1 10.6C30.1 9.40001 30.2 7.70001 30.4 5.30001C30.5 4.70001 30.6 4.30001 30.8 4.20001C30.9 4.10001 31.1 4.10001 31.3 4.10001C31.4 4.10001 31.6 4.10001 31.7 4.20001C31.8 4.30001 32 4.30001 32.1 4.30001C32.2 4.30001 32.3 4.30001 32.7 4.20001C34 3.90001 35.4 3.70001 36.7 3.70001C37.1 3.70001 37.5 4.00001 37.8 4.60001C38.1 5.10001 38.2 5.60001 38.2 6.10001C38.2 6.40001 37.9 6.60001 37.4 6.70001C36.7 6.80001 35.5 6.90001 34 7.10001C33.5 7.20001 33.2 7.30001 33.2 7.60001C33.2 8.00001 33.2 8.50001 33.1 9.20001C33 9.90001 33 10.4 33 10.8C33 11.5 33.1 11.9 33.3 11.9C33.4 11.9 33.6 11.9 33.9 11.8C35 11.7 36 11.6 36.7 11.6C37.7 11.6 38.2 12.3 38.2 13.6C38.2 13.7 38.2 13.8 38.2 13.9C38.2 14.1 38.2 14.2 38.2 14.3C38.2 14.5 37.3 14.7 35.5 14.9C33.7 15 32.8 15.3 32.8 15.7C32.8 15.7 32.8 15.8 32.9 15.9C32.9 16 33 16.1 33 16.1C33 16.3 33 16.6 33 17.1C33 17.5 33 17.9 33 18.1C33 18.3 33 18.6 32.9 19.1C32.8 19.6 32.8 19.9 32.8 20.1C32.8 20.5 32.9 20.7 33.1 20.7C33.2 20.7 33.5 20.7 33.9 20.6C34.4 20.5 35.2 20.4 36.3 20.3C36.7 20.2 36.9 20.2 37 20.2C37.2 20.2 37.5 20.3 37.8 20.6C38 20.8 38.2 21.1 38.3 21.3C38.4 21.5 38.5 21.8 38.5 22.2C38.5 22.3 38.5 22.3 38.5 22.5C38.5 22.6 38.5 22.7 38.5 22.8C38.5 22.9 38.5 22.9 38.6 23.1C38.7 23.1 38.7 23.2 38.7 23.2Z" fill="white" stroke="white" stroke-width="3.3" stroke-miterlimit="10" stroke-linecap="round" stroke-linejoin="round"/>
<path d="M51.5 9.30001C51.5 10.6 51.2 11.9 50.5 13.1C49.8 14.4 49 15.3 47.9 16C47.2 16.3 46.3 16.7 45 17.3V19.3C45 19.6 45 20 45.1 20.5C45.1 21 45.2 21.4 45.2 21.7C45.2 21.9 45.2 22.2 45.1 22.5C45 22.9 45 23.1 45 23.3C45 23.4 45 23.4 45.1 23.5C45.2 23.6 45.2 23.7 45.2 23.8C45.2 24.4 44.9 24.7 44.3 24.7C42.8 24.7 42 24.1 41.9 22.8C41.8 21.3 41.8 18.9 41.8 15.8C41.8 15.3 41.8 14.5 41.8 13.5C41.8 12.5 41.8 11.7 41.8 11.2C41.8 10.5 41.8 9.40001 41.8 8.00001C41.8 6.60001 41.8 5.50001 41.8 4.80001C41.8 4.10001 42.5 3.70001 44 3.70001H45.5C46.2 3.70001 46.8 3.80001 47.3 3.90001C48.3 4.20001 49.3 4.90001 50.2 6.00001C51.1 7.20001 51.5 8.30001 51.5 9.30001ZM47.9 9.40001C47.9 8.60001 47.8 8.00001 47.6 7.70001C47.3 7.20001 46.8 7.00001 46 7.00001H45.5C45.3 7.00001 45.1 7.10001 45.1 7.20001C45 7.30001 45 7.80001 45 8.70001C45 8.80001 45 9.10001 45 9.40001C45 9.70001 45 9.90001 45 10.1C45 10.2 45 10.4 45 10.7C45 11 45 11.2 45 11.3C45 11.4 45 11.6 45 11.9C45 12.2 45 12.4 45 12.5C45 12.6 45 12.7 45 12.9C45 13.1 45 13.2 45 13.3C45 13.7 45.1 13.9 45.3 13.9C46.1 13.9 46.7 13.4 47.3 12.4C47.7 11.5 47.9 10.5 47.9 9.40001Z" fill="white" stroke="white" stroke-width="3.3" stroke-miterlimit="10" stroke-linecap="round" stroke-linejoin="round"/>
<path d="M62.5 6.39999C62.5 6.99999 62.3 7.29999 62 7.29999C61.7 7.29999 61.3 7.29999 60.7 7.29999C60.1 7.29999 59.7 7.29999 59.4 7.29999C59.2 7.29999 58.9 7.29999 58.4 7.29999C58 7.29999 57.6 7.29999 57.4 7.29999C57.2 7.29999 57.1 7.39999 57.1 7.69999C57.1 7.89999 57.1 8.19999 57.2 8.59999C57.3 8.99999 57.3 9.29999 57.3 9.49999C57.3 9.79999 57.3 10.2 57.2 10.7C57.1 11.2 57.1 11.7 57.1 11.9C57.1 12.5 57.1 13.2 57.2 14C57.3 14.6 57.3 15.8 57.3 17.7C57.3 18.2 57.3 19 57.2 20C57.2 21 57.1 21.8 57.1 22.2C57.1 22.7 57.1 23 57 23.2C57 23.3 56.9 23.5 56.8 23.7C56.9 24.1 56.6 24.1 56.2 24.1C55.9 24.1 55.6 24 55 23.8C54.4 23.6 54.1 23.4 54.1 23.2C54.1 23.1 54.1 23 54.1 22.8C54.1 22.6 54.1 22.5 54.1 22.5C54.1 22.4 54.1 22.1 54.1 21.8C54.1 21.5 54.1 21.2 54.1 21.1C54.1 20.8 54.1 20.4 54.1 19.8C54.1 19.2 54.1 18.8 54.1 18.5C54.1 18.2 54.1 17.7 54 17C54 16.3 53.9 15.8 53.9 15.5C53.9 15 53.9 14.2 54 13.2C54 12.2 54.1 11.4 54.1 10.9V6.79999C54.1 6.59999 54.1 6.29999 54.1 5.89999C54.1 5.49999 54.1 5.19999 54.1 4.99999C54.1 4.49999 54.2 4.29999 54.4 4.19999C55.2 3.99999 56.3 3.79999 57.6 3.79999C59.9 3.79999 61.2 3.89999 61.5 4.19999C62.2 4.99999 62.5 5.59999 62.5 6.39999Z" fill="white" stroke="white" stroke-width="3.3" stroke-miterlimit="10" stroke-linecap="round" stroke-linejoin="round"/>
<path d="M75.7 18.9C75.7 19.3 75.7 20 75.6 20.8C75.5 21.6 75.5 22.2 75.5 22.6C75.5 23 75.5 23.3 75.4 23.4C75.3 23.5 75.1 23.6 74.8 23.6C74.7 23.6 74.5 23.7 74.2 23.9C74 24 73.7 24.1 73.5 24.1C73.1 24.1 72.8 23.9 72.7 23.5C72.6 23.3 72.6 22.9 72.6 22.3C72.6 22.1 72.6 21.8 72.6 21.4C72.6 21 72.6 20.7 72.6 20.5C72.6 20.3 72.6 19.9 72.6 19.5C72.6 19.1 72.6 18.7 72.6 18.5C72.6 18.1 72.7 16.9 72.8 14.7C72.8 14 72.9 13.6 72.9 13.5C72.9 13.1 72.9 12.9 72.8 12.9C72.7 12.9 72.5 13.2 72.2 13.9C72.1 14.2 72 14.6 71.8 15.2C71.2 16.4 70.7 17.7 70.2 19.2C69.7 20.7 69 22.3 68.3 23.8C67.9 24.5 67.4 24.9 66.8 24.9C66.5 24.9 66.2 24.8 66 24.6C65.7 24.4 65.5 24.3 65.4 24.3C64.9 24.3 64.7 23.3 64.7 21.2C64.7 20.5 64.7 19.4 64.8 18C64.8 16.6 64.9 15.5 64.9 14.8C64.9 14.4 64.9 13.8 64.9 13C64.9 12.2 64.9 11.6 64.9 11.2C64.9 10.6 64.9 9.69999 65 8.49999C65 7.29999 65.1 6.39999 65.1 5.79999C65.1 4.89999 65.8 4.49999 67.3 4.49999C67.6 4.49999 67.8 4.59999 67.9 4.69999C68 4.89999 68 5.09999 68 5.49999C68 6.59999 68 8.19999 68.1 10.3C68.2 12.4 68.2 14.1 68.2 15.1C68.2 15.4 68.2 15.8 68.2 16.3C68.2 16.8 68.2 17.2 68.2 17.5C68.2 17.7 68.2 17.8 68.3 17.8C68.5 17.8 68.7 17.4 69 16.6C69.6 15.1 70.3 13.1 71 10.6C71.3 9.39999 71.7 8.19999 72 7.09999C72.6 5.19999 73 4.19999 73.2 3.99999C73.4 3.89999 73.7 3.79999 74.1 3.59999C74.6 3.49999 74.9 3.39999 75.1 3.39999C75.3 3.39999 75.4 3.39999 75.5 3.49999C75.6 3.59999 75.7 4.39999 75.7 5.89999C75.8 7.19999 75.8 8.09999 75.8 8.59999C75.8 9.29999 75.8 10.3 75.7 11.6C75.6 12.9 75.6 13.9 75.6 14.6C75.6 15.1 75.6 15.8 75.7 16.8C75.8 17.8 75.7 18.4 75.7 18.9Z" fill="white" stroke="white" stroke-width="3.3" stroke-miterlimit="10" stroke-linecap="round" stroke-linejoin="round"/>
<path d="M89.8 19.5C89.8 19.9 89.8 20.5 89.9 21.2C89.9 22 90 22.5 90 22.9C90 23.4 89.9 23.7 89.8 23.9C89.6 24.1 89.3 24.2 88.9 24.2C87.6 24.2 86.9 23.9 86.9 23.4C86.9 23.1 86.9 22.7 86.9 22.1C86.9 21.5 86.9 21.1 86.9 20.8C86.9 20.3 86.9 19.4 87 18.3C87.1 17.2 87.1 16.4 87.1 15.8C87.1 15.7 87 15.6 86.9 15.6C86.7 15.6 86.5 15.6 86.1 15.7C85.5 16.7 84.9 17.8 84.4 18.9L84 19.8C83.6 20.7 83.2 21.6 82.7 22.5C82 23.9 81.4 24.6 81 24.6C80.7 24.6 80.2 24.4 79.6 24C79 23.6 78.7 23.2 78.7 22.9C78.7 22.7 78.8 22.4 79 22.1C79.8 21.1 81 18.9 82.7 15.7C81.9 15.5 81.3 15.3 81 15C80.2 14.3 79.7 13.6 79.5 13C79.3 12.5 79.2 11.7 79.2 10.6C79.2 7.90001 80.3 6.10001 82.5 5.10001C84.1 4.40001 85.5 4.00001 86.6 4.00001C86.7 4.00001 86.8 4.00001 87 4.00001C87.2 4.00001 87.3 4.00001 87.4 4.00001C87.6 4.00001 87.9 3.90001 88.3 3.80001C88.7 3.70001 89 3.60001 89.2 3.60001C89.6 3.60001 89.9 3.70001 90 4.00001C90.1 4.10001 90.1 4.40001 90.1 4.90001C90.1 5.00001 90.1 5.30001 90.2 5.50001C90.2 5.80001 90.3 6.00001 90.3 6.10001C90.3 6.50001 90.3 7.00001 90.2 7.80001C90.2 8.50001 90.1 9.10001 90.1 9.50001C90.1 10 90.1 10.7 90.2 11.7C90.3 12.7 90.3 13.4 90.3 13.9C90.3 15.2 90.2 16.7 90.1 18.5C89.8 19.1 89.8 19.5 89.8 19.5ZM86.9 11.2C86.9 10.3 86.9 9.70001 86.9 9.50001C86.9 9.10001 86.8 8.80001 86.8 8.70001C86.8 8.60001 86.8 8.40001 86.8 8.10001C86.8 7.90001 86.8 7.70001 86.8 7.50001C86.8 7.30001 86.7 7.20001 86.6 7.10001C86.6 7.10001 86.4 7.10001 86.2 7.10001C85.2 7.10001 84.3 7.40001 83.5 7.90001C82.6 8.50001 82.2 9.30001 82.2 10.2C82.2 11 82.4 11.7 82.9 12.2C83.4 12.7 84 12.9 84.8 12.9C85 12.9 85.3 12.9 85.7 12.8C86.1 12.7 86.4 12.7 86.6 12.7C86.8 12.5 86.9 12 86.9 11.2Z" fill="white" stroke="white" stroke-width="3.3" stroke-miterlimit="10" stroke-linecap="round" stroke-linejoin="round"/>
<path d="M13.6 12.8C13.6 13.5 13.3 14.1 12.6 14.5C12 19.5 10.8 22.6 8.9 23.8C8.2 24.2 7.5 24.5 6.9 24.5C5.6 24.5 4.5 24.2 3.6 23.6C2.7 23 2.3 21.8 2.3 20C2.3 19 2.4 18.2 2.6 17.8C2.8 17.3 3.3 17.1 4.1 17.1C4.6 17.1 4.9 17.3 5.1 17.6C5.3 18 5.5 18.5 5.5 19.2C5.6 20 5.6 20.5 5.6 20.5C5.7 21.1 6 21.3 6.4 21.3C6.6 21.3 6.9 21.1 7.3 20.6C8.1 19.6 8.6 17.8 8.9 15C8.5 15 8.2 14.9 8.2 14.9C7.8 14.9 7.5 14.9 7.4 15C7.2 15.1 7 15.1 6.8 15.1C6.6 15.1 6.4 15 6.2 14.7C6 14.4 5.9 14.2 5.9 14C5.9 13.8 5.9 13.6 5.8 13.3C5.8 13 5.7 12.8 5.7 12.6C5.7 12.2 5.8 12 6.1 12C6.3 12 6.6 12 7 12.1C7.4 12.1 7.7 12.2 7.9 12.2H8.9V10.9C8.9 9.1 8.7 7.7 8.3 6.5C8.2 6.2 7.9 6 7.5 6C6.7 6 6 6.6 5.4 7.7C5.2 8.3 5 9 4.8 9.6C4.5 10.4 4.1 10.8 3.5 10.8C3 10.8 2.7 10.6 2.4 10.2C2.1 9.8 2 9.4 2 8.9C2 7.3 2.4 6 3.3 5C4.2 4 5.4 3.5 7 3.5C7.7 3.5 8.5 3.7 9.2 4C10 4.3 10.5 4.7 10.9 5.2C12 6.4 12.5 8.7 12.5 12C13.4 12 13.6 12.3 13.6 12.8Z" fill="#E81212"/>
<path d="M26.3 15C26.3 15.3 26.3 15.7 26.3 16.3C26.3 16.9 26.3 17.3 26.3 17.6C26.3 18.2 26.3 19.1 26.2 20.3C26.1 21.5 26.1 22.4 26.1 23C26.1 23.3 26 23.5 25.9 23.6C25.8 23.7 25.6 23.8 25.4 23.8C23.9 23.8 23.1 23.3 23.1 22.3C23.1 21.8 23.1 21 23 19.9C22.9 18.8 22.9 18 22.9 17.5C22.9 17.3 22.9 17 23 16.7C23 16.3 23.1 16.1 23.1 15.9C23.1 15.4 23 15.1 22.8 15.1C22.6 15.1 22.3 15.1 21.9 15.2C21.5 15.3 21.2 15.3 21 15.3H20.9C20.8 15.3 20.8 15.3 20.7 15.3C20.1 15.3 19.6 15.4 19.3 15.5C19.2 15.5 19.2 16.5 19.2 18.4C19.2 18.7 19.2 19.2 19.2 19.8C19.2 20.4 19.2 20.9 19.2 21.2C19.2 21.3 19.2 21.4 19.2 21.5C19.2 21.6 19.2 21.8 19.2 21.8C19.2 21.9 19.2 22.2 19.2 22.5C19.2 22.8 19.2 23 19.2 23.2C19.2 23.3 19.2 23.3 19.2 23.5C19.2 23.6 19.2 23.7 19.2 23.8C19.2 24.1 19.1 24.2 18.8 24.2C18.7 24.2 18.6 24.2 18.5 24.1C18.4 24.1 18.2 24 18.2 24C17.3 24 16.7 23.8 16.5 23.4C16.3 23 16.1 22.1 16.1 20.7C16.1 19.9 16.1 18.6 16 17C16 15.3 15.9 14.1 15.9 13.3C15.9 12.6 15.9 11.8 16 10.8C16.1 9.4 16.1 8.6 16.1 8.3C16.1 7.7 16.1 6.8 16.1 5.6C16.1 5.3 16.2 5 16.4 4.6C16.5 4.3 16.7 4.1 17 4.1C18 4.1 18.6 4.2 18.8 4.4C19.1 4.6 19.2 5.2 19.2 6.1C19.2 6.4 19.2 6.8 19.2 7.3C19.2 7.8 19.2 8.2 19.2 8.5C19.2 8.8 19.2 9.2 19.2 9.7C19.2 10.2 19.2 10.6 19.2 10.9C19.2 11 19.2 11.2 19.2 11.4C19.2 11.6 19.2 11.8 19.2 11.8C19.2 11.9 19.2 12 19.3 12C19.4 12 19.6 12 19.8 12C20 12 20.2 12 20.3 12C20.3 12 20.4 12 20.5 12C20.6 12 20.7 12 20.7 12C20.9 12 21.2 12 21.5 11.9C21.8 11.8 22.1 11.8 22.3 11.8C22.4 11.8 22.4 11.8 22.5 11.8C22.6 11.8 22.7 11.8 22.7 11.8C22.7 11.8 22.8 11.7 22.8 11.4C22.9 10.4 23 8.5 23 5.5C23 5.3 23 4.9 22.9 4.5C22.9 4 22.8 3.7 22.8 3.5C22.8 3.1 22.9 2.8 23 2.7C23.1 2.6 23.4 2.5 23.8 2.5C24.3 2.5 24.8 2.6 25.2 2.8C25.8 3.1 26 3.4 26 3.8C26 3.9 26 4.1 26 4.3C26 4.5 26 4.7 26 4.8C26 4.9 26 5.2 26 5.5C26 5.8 26 6 26 6.2C26 6.5 26 6.9 26 7.4C26 7.9 26 8.3 26 8.6C26 9 26 9.7 26 10.5C26 11.4 26 12 26 12.4C26 12.7 26 13.1 26 13.7C26.3 14.2 26.3 14.7 26.3 15Z" fill="#E81212"/>
<path d="M38.7 23.2C38.4 23.3 37.3 23.5 35.5 23.8C33.6 24.1 32.5 24.2 32.1 24.2C32 24.2 31.7 24.1 31.2 23.8C30.8 23.6 30.5 23.4 30.4 23.2C30.1 22.8 30 21.2 30 18.4C30 15.2 30 12.6 30.1 10.6C30.1 9.40001 30.2 7.70001 30.4 5.30001C30.5 4.70001 30.6 4.30001 30.8 4.20001C30.9 4.10001 31.1 4.10001 31.3 4.10001C31.4 4.10001 31.6 4.10001 31.7 4.20001C31.8 4.30001 32 4.30001 32.1 4.30001C32.2 4.30001 32.3 4.30001 32.7 4.20001C34 3.90001 35.4 3.70001 36.7 3.70001C37.1 3.70001 37.5 4.00001 37.8 4.60001C38.1 5.10001 38.2 5.60001 38.2 6.10001C38.2 6.40001 37.9 6.60001 37.4 6.70001C36.7 6.80001 35.5 6.90001 34 7.10001C33.5 7.20001 33.2 7.30001 33.2 7.60001C33.2 8.00001 33.2 8.50001 33.1 9.20001C33 9.90001 33 10.4 33 10.8C33 11.5 33.1 11.9 33.3 11.9C33.4 11.9 33.6 11.9 33.9 11.8C35 11.7 36 11.6 36.7 11.6C37.7 11.6 38.2 12.3 38.2 13.6C38.2 13.7 38.2 13.8 38.2 13.9C38.2 14.1 38.2 14.2 38.2 14.3C38.2 14.5 37.3 14.7 35.5 14.9C33.7 15 32.8 15.3 32.8 15.7C32.8 15.7 32.8 15.8 32.9 15.9C32.9 16 33 16.1 33 16.1C33 16.3 33 16.6 33 17.1C33 17.5 33 17.9 33 18.1C33 18.3 33 18.6 32.9 19.1C32.8 19.6 32.8 19.9 32.8 20.1C32.8 20.5 32.9 20.7 33.1 20.7C33.2 20.7 33.5 20.7 33.9 20.6C34.4 20.5 35.2 20.4 36.3 20.3C36.7 20.2 36.9 20.2 37 20.2C37.2 20.2 37.5 20.3 37.8 20.6C38 20.8 38.2 21.1 38.3 21.3C38.4 21.5 38.5 21.8 38.5 22.2C38.5 22.3 38.5 22.3 38.5 22.5C38.5 22.6 38.5 22.7 38.5 22.8C38.5 22.9 38.5 22.9 38.6 23.1C38.7 23.1 38.7 23.2 38.7 23.2Z" fill="#E81212"/>
<path d="M51.5 9.30001C51.5 10.6 51.2 11.9 50.5 13.1C49.8 14.4 49 15.3 47.9 16C47.2 16.3 46.3 16.7 45 17.3V19.3C45 19.6 45 20 45.1 20.5C45.1 21 45.2 21.4 45.2 21.7C45.2 21.9 45.2 22.2 45.1 22.5C45 22.9 45 23.1 45 23.3C45 23.4 45 23.4 45.1 23.5C45.2 23.6 45.2 23.7 45.2 23.8C45.2 24.4 44.9 24.7 44.3 24.7C42.8 24.7 42 24.1 41.9 22.8C41.8 21.3 41.8 18.9 41.8 15.8C41.8 15.3 41.8 14.5 41.8 13.5C41.8 12.5 41.8 11.7 41.8 11.2C41.8 10.5 41.8 9.40001 41.8 8.00001C41.8 6.60001 41.8 5.50001 41.8 4.80001C41.8 4.10001 42.5 3.70001 44 3.70001H45.5C46.2 3.70001 46.8 3.80001 47.3 3.90001C48.3 4.20001 49.3 4.90001 50.2 6.00001C51.1 7.20001 51.5 8.30001 51.5 9.30001ZM47.9 9.40001C47.9 8.60001 47.8 8.00001 47.6 7.70001C47.3 7.20001 46.8 7.00001 46 7.00001H45.5C45.3 7.00001 45.1 7.10001 45.1 7.20001C45 7.30001 45 7.80001 45 8.70001C45 8.80001 45 9.10001 45 9.40001C45 9.70001 45 9.90001 45 10.1C45 10.2 45 10.4 45 10.7C45 11 45 11.2 45 11.3C45 11.4 45 11.6 45 11.9C45 12.2 45 12.4 45 12.5C45 12.6 45 12.7 45 12.9C45 13.1 45 13.2 45 13.3C45 13.7 45.1 13.9 45.3 13.9C46.1 13.9 46.7 13.4 47.3 12.4C47.7 11.5 47.9 10.5 47.9 9.40001Z" fill="#E81212"/>
<path d="M62.5 6.39999C62.5 6.99999 62.3 7.29999 62 7.29999C61.7 7.29999 61.3 7.29999 60.7 7.29999C60.1 7.29999 59.7 7.29999 59.4 7.29999C59.2 7.29999 58.9 7.29999 58.4 7.29999C58 7.29999 57.6 7.29999 57.4 7.29999C57.2 7.29999 57.1 7.39999 57.1 7.69999C57.1 7.89999 57.1 8.19999 57.2 8.59999C57.3 8.99999 57.3 9.29999 57.3 9.49999C57.3 9.79999 57.3 10.2 57.2 10.7C57.1 11.2 57.1 11.7 57.1 11.9C57.1 12.5 57.1 13.2 57.2 14C57.3 14.6 57.3 15.8 57.3 17.7C57.3 18.2 57.3 19 57.2 20C57.2 21 57.1 21.8 57.1 22.2C57.1 22.7 57.1 23 57 23.2C57 23.3 56.9 23.5 56.8 23.7C56.9 24.1 56.6 24.1 56.2 24.1C55.9 24.1 55.6 24 55 23.8C54.4 23.6 54.1 23.4 54.1 23.2C54.1 23.1 54.1 23 54.1 22.8C54.1 22.6 54.1 22.5 54.1 22.5C54.1 22.4 54.1 22.1 54.1 21.8C54.1 21.5 54.1 21.2 54.1 21.1C54.1 20.8 54.1 20.4 54.1 19.8C54.1 19.2 54.1 18.8 54.1 18.5C54.1 18.2 54.1 17.7 54 17C54 16.3 53.9 15.8 53.9 15.5C53.9 15 53.9 14.2 54 13.2C54 12.2 54.1 11.4 54.1 10.9V6.79999C54.1 6.59999 54.1 6.29999 54.1 5.89999C54.1 5.49999 54.1 5.19999 54.1 4.99999C54.1 4.49999 54.2 4.29999 54.4 4.19999C55.2 3.99999 56.3 3.79999 57.6 3.79999C59.9 3.79999 61.2 3.89999 61.5 4.19999C62.2 4.99999 62.5 5.59999 62.5 6.39999Z" fill="#E81212"/>
<path d="M75.7 18.9C75.7 19.3 75.7 20 75.6 20.8C75.5 21.6 75.5 22.2 75.5 22.6C75.5 23 75.5 23.3 75.4 23.4C75.3 23.5 75.1 23.6 74.8 23.6C74.7 23.6 74.5 23.7 74.2 23.9C74 24 73.7 24.1 73.5 24.1C73.1 24.1 72.8 23.9 72.7 23.5C72.6 23.3 72.6 22.9 72.6 22.3C72.6 22.1 72.6 21.8 72.6 21.4C72.6 21 72.6 20.7 72.6 20.5C72.6 20.3 72.6 19.9 72.6 19.5C72.6 19.1 72.6 18.7 72.6 18.5C72.6 18.1 72.7 16.9 72.8 14.7C72.8 14 72.9 13.6 72.9 13.5C72.9 13.1 72.9 12.9 72.8 12.9C72.7 12.9 72.5 13.2 72.2 13.9C72.1 14.2 72 14.6 71.8 15.2C71.2 16.4 70.7 17.7 70.2 19.2C69.7 20.7 69 22.3 68.3 23.8C67.9 24.5 67.4 24.9 66.8 24.9C66.5 24.9 66.2 24.8 66 24.6C65.7 24.4 65.5 24.3 65.4 24.3C64.9 24.3 64.7 23.3 64.7 21.2C64.7 20.5 64.7 19.4 64.8 18C64.8 16.6 64.9 15.5 64.9 14.8C64.9 14.4 64.9 13.8 64.9 13C64.9 12.2 64.9 11.6 64.9 11.2C64.9 10.6 64.9 9.69999 65 8.49999C65 7.29999 65.1 6.39999 65.1 5.79999C65.1 4.89999 65.8 4.49999 67.3 4.49999C67.6 4.49999 67.8 4.59999 67.9 4.69999C68 4.89999 68 5.09999 68 5.49999C68 6.59999 68 8.19999 68.1 10.3C68.2 12.4 68.2 14.1 68.2 15.1C68.2 15.4 68.2 15.8 68.2 16.3C68.2 16.8 68.2 17.2 68.2 17.5C68.2 17.7 68.2 17.8 68.3 17.8C68.5 17.8 68.7 17.4 69 16.6C69.6 15.1 70.3 13.1 71 10.6C71.3 9.39999 71.7 8.19999 72 7.09999C72.6 5.19999 73 4.19999 73.2 3.99999C73.4 3.89999 73.7 3.79999 74.1 3.59999C74.6 3.49999 74.9 3.39999 75.1 3.39999C75.3 3.39999 75.4 3.39999 75.5 3.49999C75.6 3.59999 75.7 4.39999 75.7 5.89999C75.8 7.19999 75.8 8.09999 75.8 8.59999C75.8 9.29999 75.8 10.3 75.7 11.6C75.6 12.9 75.6 13.9 75.6 14.6C75.6 15.1 75.6 15.8 75.7 16.8C75.8 17.8 75.7 18.4 75.7 18.9Z" fill="#E81212"/>
<path d="M89.8 19.5C89.8 19.9 89.8 20.5 89.9 21.2C89.9 22 90 22.5 90 22.9C90 23.4 89.9 23.7 89.8 23.9C89.6 24.1 89.3 24.2 88.9 24.2C87.6 24.2 86.9 23.9 86.9 23.4C86.9 23.1 86.9 22.7 86.9 22.1C86.9 21.5 86.9 21.1 86.9 20.8C86.9 20.3 86.9 19.4 87 18.3C87.1 17.2 87.1 16.4 87.1 15.8C87.1 15.7 87 15.6 86.9 15.6C86.7 15.6 86.5 15.6 86.1 15.7C85.5 16.7 84.9 17.8 84.4 18.9L84 19.8C83.6 20.7 83.2 21.6 82.7 22.5C82 23.9 81.4 24.6 81 24.6C80.7 24.6 80.2 24.4 79.6 24C79 23.6 78.7 23.2 78.7 22.9C78.7 22.7 78.8 22.4 79 22.1C79.8 21.1 81 18.9 82.7 15.7C81.9 15.5 81.3 15.3 81 15C80.2 14.3 79.7 13.6 79.5 13C79.3 12.5 79.2 11.7 79.2 10.6C79.2 7.90001 80.3 6.10001 82.5 5.10001C84.1 4.40001 85.5 4.00001 86.6 4.00001C86.7 4.00001 86.8 4.00001 87 4.00001C87.2 4.00001 87.3 4.00001 87.4 4.00001C87.6 4.00001 87.9 3.90001 88.3 3.80001C88.7 3.70001 89 3.60001 89.2 3.60001C89.6 3.60001 89.9 3.70001 90 4.00001C90.1 4.10001 90.1 4.40001 90.1 4.90001C90.1 5.00001 90.1 5.30001 90.2 5.50001C90.2 5.80001 90.3 6.00001 90.3 6.10001C90.3 6.50001 90.3 7.00001 90.2 7.80001C90.2 8.50001 90.1 9.10001 90.1 9.50001C90.1 10 90.1 10.7 90.2 11.7C90.3 12.7 90.3 13.4 90.3 13.9C90.3 15.2 90.2 16.7 90.1 18.5C89.8 19.1 89.8 19.5 89.8 19.5ZM86.9 11.2C86.9 10.3 86.9 9.70001 86.9 9.50001C86.9 9.10001 86.8 8.80001 86.8 8.70001C86.8 8.60001 86.8 8.40001 86.8 8.10001C86.8 7.90001 86.8 7.70001 86.8 7.50001C86.8 7.30001 86.7 7.20001 86.6 7.10001C86.6 7.10001 86.4 7.10001 86.2 7.10001C85.2 7.10001 84.3 7.40001 83.5 7.90001C82.6 8.50001 82.2 9.30001 82.2 10.2C82.2 11 82.4 11.7 82.9 12.2C83.4 12.7 84 12.9 84.8 12.9C85 12.9 85.3 12.9 85.7 12.8C86.1 12.7 86.4 12.7 86.6 12.7C86.8 12.5 86.9 12 86.9 11.2Z" fill="#E81212"/>
<path d="M115.8 23C115.8 23.6 115.6 23.9 115.2 23.9C113.7 23.9 112.9 23.4 112.9 22.3C112.9 21.8 112.9 21 112.8 19.9C112.7 18.8 112.7 18 112.7 17.5C112.7 17.1 112.7 16.4 112.8 15.6C112.9 14.8 112.9 14.1 112.9 13.7C112.9 13.3 112.9 12.7 112.8 12C112.7 11.2 112.7 10.7 112.7 10.3C112.7 9.90001 112.7 9.20001 112.8 8.40001C112.9 7.50001 112.9 6.90001 112.9 6.50001C112.7 6.50001 112.3 6.6 111.9 6.7C110.9 6.9 110.3 7.00001 110.1 7.00001C110 7.00001 109.9 7.00001 109.8 7.00001C109.6 7.00001 109.5 7.00001 109.5 7.00001H109C109 7.20001 109 7.60001 109 8.10001C109 8.60001 109 8.9 109 9.2C109 10 109 11.2 108.9 12.9C108.9 14.5 108.8 15.7 108.8 16.6C108.8 18.2 108.8 19.3 108.8 19.6C108.8 20.4 108.8 20.8 108.8 21C108.8 21.1 108.8 21.3 108.8 21.5C108.8 21.7 108.8 21.9 108.8 22C108.8 22.1 108.8 22.3 108.8 22.6C108.8 22.9 108.8 23.1 108.8 23.2C108.8 23.3 108.8 23.4 108.8 23.5C108.8 23.7 108.8 23.8 108.8 23.8C108.8 23.9 108.8 24 108.7 24.1C108.6 24.1 108.6 24.2 108.5 24.2C108.4 24.2 108.3 24.2 108.2 24.1C108 24.1 107.9 24.1 107.8 24.1C106.9 24.1 106.3 23.9 106.1 23.5C105.9 23.1 105.7 22.2 105.7 20.8C105.7 20 105.7 18.7 105.6 17.1C105.6 15.4 105.5 14.2 105.5 13.4C105.5 12.7 105.5 11.7 105.6 10.3C105.7 8.90001 105.7 7.9 105.7 7.2C105.7 7.1 105.6 6.9 105.5 6.7C105.3 6.4 105.3 6.10001 105.3 5.80001C105.3 5.00001 105.4 4.50001 105.6 4.30001C105.8 4.10001 106.2 4.00001 106.7 4.00001C107.6 4.00001 109.6 3.7 112.7 3.2C112.8 2.8 113.1 2.60001 113.7 2.60001C113.9 2.60001 114.1 2.6 114.4 2.7C114.7 2.8 115 2.80001 115.1 2.80001C115.2 2.80001 115.4 3 115.6 3.2C115.8 3.5 115.9 3.70001 115.9 3.80001C115.9 3.90001 115.9 4 115.8 4.2C115.8 4.4 115.7 4.6 115.7 4.7C115.7 4.8 115.7 5 115.8 5.2C115.8 5.4 115.9 5.6 115.9 5.7C115.9 6 115.9 6.40001 115.8 7.00001C115.8 7.60001 115.7 8.00001 115.7 8.30001C115.7 8.70001 115.7 9.40001 115.8 10.3C115.8 11.2 115.9 11.9 115.9 12.3C115.9 13.5 115.9 15.2 115.8 17.6C115.9 20 115.8 21.8 115.8 23Z" fill="white" stroke="white" stroke-width="3.3" stroke-miterlimit="10" stroke-linecap="round" stroke-linejoin="round"/>
<path d="M129.5 9.30001C129.5 10.6 129.2 11.9 128.5 13.1C127.8 14.4 127 15.3 125.9 16C125.2 16.3 124.3 16.7 123 17.3V19.3C123 19.6 123 20 123.1 20.5C123.1 21 123.2 21.4 123.2 21.7C123.2 21.9 123.2 22.2 123.1 22.5C123 22.9 123 23.1 123 23.3C123 23.4 123 23.4 123.1 23.5C123.2 23.6 123.2 23.7 123.2 23.8C123.2 24.4 122.9 24.7 122.3 24.7C120.8 24.7 120 24.1 119.9 22.8C119.8 21.3 119.8 18.9 119.8 15.8C119.8 15.3 119.8 14.5 119.8 13.5C119.8 12.5 119.8 11.7 119.8 11.2C119.8 10.5 119.8 9.40002 119.8 8.00002C119.8 6.60002 119.8 5.50001 119.8 4.80001C119.8 4.10001 120.5 3.70001 122 3.70001H123.5C124.2 3.70001 124.8 3.80001 125.3 3.90001C126.3 4.20001 127.3 4.90002 128.2 6.00002C129 7.20002 129.5 8.30001 129.5 9.30001ZM125.8 9.40001C125.8 8.60001 125.7 8.00001 125.5 7.70001C125.2 7.20001 124.7 7.00002 123.9 7.00002H123.5C123.3 7.00002 123.1 7.10001 123.1 7.20001C123 7.30001 123 7.80001 123 8.70001C123 8.90001 123 9.10001 123 9.40001C123 9.70001 123 9.90001 123 10.1C123 10.2 123 10.4 123 10.7C123 11 123 11.2 123 11.3C123 11.4 123 11.6 123 11.9C123 12.2 123 12.4 123 12.5C123 12.6 123 12.7 123 12.9C123 13.1 123 13.2 123 13.3C123 13.7 123.1 13.9 123.3 13.9C124.1 13.9 124.7 13.4 125.3 12.4C125.6 11.5 125.8 10.5 125.8 9.40001Z" fill="white" stroke="white" stroke-width="3.3" stroke-miterlimit="10" stroke-linecap="round" stroke-linejoin="round"/>
<path d="M142.2 23.7C142.2 23.8 142.1 23.9 142 24C141.9 24.1 141.7 24.2 141.6 24.2C141.5 24.2 141.5 24.2 141.3 24.1C141.2 24.1 141.1 24 141 24C140.9 24 140.8 24 140.6 24.1C140.5 24.2 140.3 24.2 140.3 24.2C139.7 24.2 139.2 23.5 138.8 22.2C138.8 22 138.7 21.8 138.7 21.5C138.5 20.6 138.3 19.7 138 19C137.9 18.8 137.8 18.6 137.7 18.4H137.1C135 18.4 133.9 18.5 133.8 18.8C133.7 19 133.6 19.5 133.4 20.3C133.2 21.3 133.1 21.8 133 22C132.7 23 132.5 23.8 132.5 24.2C132.5 24.9 132.2 25.2 131.5 25.2C131.1 25.2 130.8 25.2 130.4 25.1C129.9 25 129.6 24.7 129.6 24.5C129.6 24.4 129.6 24.4 129.6 24.3C129.6 24.2 129.6 24.1 129.6 24.1C129.6 23.7 129.7 23 129.7 22.1C130.1 18.8 130.9 15.1 132.3 10.9V10.8C132.6 9.4 133 8 133.3 6.6C133.8 4.5 134.2 3.5 134.6 3.5C135.2 3.5 136 3.6 136.9 3.8C138.1 4 138.7 4.3 138.7 4.7V4.8C138.7 4.9 138.7 4.9 138.7 4.9C138.7 4.9 138.7 5.2 138.8 5.7C139 6.9 139.3 8.6 139.7 10.9C140.1 12.8 140.3 13.9 140.3 14.2C140.3 14.8 140.4 15.7 140.7 16.7C140.9 17.6 141.1 18.6 141.3 19.6C141.4 20.3 141.6 21.3 141.8 22.7C141.8 22.8 141.9 23 141.9 23.2C142.1 23.4 142.2 23.6 142.2 23.7ZM137.6 15.2C137.6 14.7 137.5 14 137.3 13.1C137 11.8 136.9 11.1 136.9 11C136.9 10.9 136.9 10.7 136.8 10.5C136.6 9.4 136.4 8.8 136.3 8.8C136.3 8.9 136.2 9.2 136.1 9.7C135.1 13.3 134.5 15.3 134.5 15.5C134.5 15.6 134.8 15.7 135.3 15.7C135.4 15.7 135.5 15.7 135.7 15.7C135.9 15.7 136 15.7 136.1 15.7C137 15.8 137.6 15.6 137.6 15.2Z" fill="white" stroke="white" stroke-width="3.3" stroke-miterlimit="10" stroke-linecap="round" stroke-linejoin="round"/>
<path d="M154.4 17.6C154.4 18.4 154.1 19.3 153.6 20.3C152.8 21.8 151.1 23 148.7 23.9C147.6 24.3 146.8 24.5 146.3 24.5C144.5 24.5 143.6 23.7 143.6 22C143.6 21.3 144.1 20.9 145.1 20.9C145.4 20.9 145.6 20.9 145.8 21C146 21.1 146.1 21.1 146.2 21.1C147.2 21.1 148.3 20.7 149.4 19.9C150.6 19.1 151.2 18.2 151.2 17.2C151.2 16.5 151 15.9 150.5 15.3C150 14.8 149.4 14.5 148.7 14.5C148.2 14.5 147.7 14.6 147.3 14.9C146.9 15.2 146.6 15.3 146.4 15.3C145.9 15.3 145.6 15.2 145.4 15.1C145.2 14.9 145.1 14.6 145.1 14.2C145.1 13.5 145.2 13 145.5 12.7C145.8 12.4 146.3 12.1 147 11.7C148.3 11.1 149 10.7 149.4 10.5C150.4 9.90002 151 9.30001 151.2 8.70001C151.3 8.40001 151.4 8.00002 151.4 7.50002C151.4 7.40002 151.3 7.30001 151.1 7.10001C150.9 6.90001 150.6 6.80001 150.1 6.80001C149.4 6.80001 148.8 6.90001 148.2 7.10001C147.6 7.30001 147.1 7.60001 146.4 8.10001C146 8.40001 145.8 8.50002 145.6 8.50002C145.5 8.50002 145.4 8.40001 145.2 8.30001C144.6 7.70001 144.3 7.00001 144.3 6.20001C144.3 5.70001 144.8 5.20001 145.8 4.70001C146.5 4.40001 147.2 4.10001 147.9 3.90001C148.5 3.80001 149 3.70001 149.4 3.70001C151 3.70001 152.3 4.20001 153.3 5.20001C153.9 5.90001 154.3 6.80002 154.3 8.00002C154.3 8.70002 153.8 9.70001 152.9 10.9C152.6 11.3 152.2 11.6 151.8 11.9C151.4 12.1 151.2 12.3 151.2 12.4C151.2 12.4 151.3 12.5 151.5 12.5C151.9 12.6 152.5 12.9 153.2 13.4C153.9 14.2 154.4 15.7 154.4 17.6Z" fill="white" stroke="white" stroke-width="3.3" stroke-miterlimit="10" stroke-linecap="round" stroke-linejoin="round"/>
<path d="M170.1 22.4C170.1 22.6 170.1 23.3 170 24.6C169.9 25.9 169.9 26.5 169.9 26.6C169.8 26.7 169.5 26.8 169 26.8C168.8 26.8 168.4 26.7 168 26.6C167.5 26.5 167.2 26.3 167.2 26.2C167.2 26.1 167.4 25.2 167.7 23.7C166.2 23.8 163.8 24 160.8 24.3C160.1 24.4 158.9 24.5 157.5 24.7C157.6 25.4 157.7 26.1 157.7 26.7C157.7 27.2 157.3 27.5 156.4 27.5C155.5 27.5 155.1 27.4 155.1 27.2C155.1 26.9 155.1 26.4 155.2 25.7C155.3 25 155.3 24.5 155.3 24.2C155.3 24.1 155.3 24 155.3 23.9C155.2 23.8 155.2 23.6 155.2 23.3C155.2 22.5 155.8 22.1 157 22.1C158 17.2 158.8 13.4 159.5 10.8C159.7 10.1 160 9.00001 160.3 7.50001C160.9 4.90001 161.3 3.60001 161.7 3.60001C161.8 3.60001 162 3.6 162.3 3.7C163.8 4 164.9 4.2 165.4 4.2C165.7 4.2 165.8 4.30001 165.9 4.40001C166 4.80001 166 5.30001 166.1 5.90001C166.3 6.80001 166.5 8.10001 166.8 9.90001C166.8 10 166.9 10.6 167.1 11.7C167.2 12.4 167.3 13 167.3 13.5C167.3 14.1 167.4 15.3 167.6 17.2C167.8 19.2 167.9 20.3 168 20.6C168.1 20.9 168.3 21 168.5 21C169.1 21 169.4 21 169.6 21C170 21.1 170.2 21.3 170.3 21.6C170.1 21.7 170.1 22 170.1 22.4ZM165 21.1C165 20.4 164.9 19.4 164.6 18C164.4 16.7 164.2 15.6 164.2 14.9C164.2 14.6 164.1 14.1 164 13.4C163.7 12.2 163.3 10.5 162.8 8.50001C162.7 8.70001 162.5 9.60001 162.1 11.1C161.9 12 161.5 13.4 161.1 15.2C160.9 16.1 160.7 17.3 160.3 19.1C160.2 19.7 160 20.5 159.8 21.6H160C160.6 21.6 161.4 21.5 162.5 21.4C163.6 21.2 164.4 21.1 165 21.1Z" fill="white" stroke="white" stroke-width="3.3" stroke-miterlimit="10" stroke-linecap="round" stroke-linejoin="round"/>
<path d="M181.8 15C181.8 15.3 181.8 15.7 181.8 16.3C181.8 16.9 181.8 17.3 181.8 17.6C181.8 18.2 181.8 19.1 181.7 20.3C181.6 21.5 181.6 22.4 181.6 23C181.6 23.3 181.5 23.5 181.4 23.6C181.3 23.7 181.1 23.8 180.9 23.8C179.4 23.8 178.6 23.3 178.6 22.3C178.6 21.8 178.6 21 178.5 19.9C178.4 18.8 178.5 18 178.5 17.5C178.5 17.3 178.5 17 178.6 16.7C178.6 16.3 178.7 16.1 178.7 15.9C178.7 15.4 178.6 15.1 178.4 15.1C178.2 15.1 177.9 15.1 177.5 15.2C177.1 15.3 176.8 15.3 176.6 15.3H176.5C176.4 15.3 176.4 15.3 176.3 15.3C175.7 15.3 175.2 15.4 174.9 15.5C174.8 15.5 174.8 16.5 174.8 18.4C174.8 18.7 174.8 19.2 174.8 19.8C174.8 20.4 174.8 20.9 174.8 21.2C174.8 21.3 174.8 21.4 174.8 21.5C174.8 21.6 174.8 21.8 174.8 21.8C174.8 21.9 174.8 22.2 174.8 22.5C174.8 22.8 174.8 23 174.8 23.2C174.8 23.3 174.8 23.3 174.8 23.5C174.8 23.6 174.8 23.7 174.8 23.8C174.8 24.1 174.7 24.2 174.4 24.2C174.3 24.2 174.2 24.2 174.1 24.1C173.7 24.1 173.6 24.1 173.5 24.1C172.6 24.1 172 23.9 171.8 23.5C171.6 23 171.5 22.1 171.5 20.8C171.5 20 171.5 18.7 171.4 17.1C171.3 15.5 171.3 14.2 171.3 13.4C171.3 12.7 171.3 11.9 171.4 10.9C171.5 9.5 171.5 8.7 171.5 8.4C171.5 7.8 171.5 6.9 171.5 5.7C171.5 5.4 171.6 5.1 171.8 4.7C172 4.3 172.2 4.1 172.4 4.1C173.4 4.1 174 4.2 174.2 4.4C174.5 4.6 174.6 5.2 174.6 6.1C174.6 6.4 174.6 6.8 174.6 7.3C174.6 7.8 174.6 8.2 174.6 8.5C174.6 8.8 174.6 9.2 174.6 9.7C174.6 10.2 174.6 10.6 174.6 10.9C174.6 11 174.6 11.2 174.6 11.4C174.6 11.6 174.6 11.8 174.6 11.8C174.6 11.9 174.6 12 174.7 12C174.8 12 175 12 175.2 12C175.4 12 175.6 12 175.7 12C175.7 12 175.8 12 175.9 12C176 12 176.1 12 176.1 12C176.3 12 176.6 12 176.9 11.9C177.3 11.8 177.5 11.8 177.7 11.8C177.8 11.8 177.8 11.8 177.9 11.8C178 11.8 178.1 11.8 178.1 11.8C178.1 11.8 178.2 11.7 178.2 11.4C178.3 10.4 178.4 8.5 178.4 5.5C178.4 5.3 178.4 4.9 178.3 4.5C178.2 4.1 178.2 3.7 178.2 3.5C178.2 3.1 178.3 2.8 178.4 2.7C178.5 2.6 178.8 2.5 179.2 2.5C179.7 2.5 180.2 2.6 180.6 2.8C181.2 3.1 181.4 3.4 181.4 3.8C181.4 3.9 181.4 4.1 181.4 4.3C181.4 4.5 181.4 4.6 181.4 4.8C181.4 4.9 181.4 5.2 181.4 5.5C181.4 5.8 181.4 6 181.4 6.2C181.4 6.5 181.4 6.9 181.4 7.4C181.4 7.9 181.4 8.3 181.4 8.6C181.4 9 181.4 9.7 181.4 10.5C181.4 11.4 181.4 12 181.4 12.4C181.4 12.7 181.4 13.1 181.4 13.7C181.8 14.2 181.8 14.7 181.8 15Z" fill="white" stroke="white" stroke-width="3.3" stroke-miterlimit="10" stroke-linecap="round" stroke-linejoin="round"/>
<path d="M196.5 18.9C196.5 19.3 196.5 20 196.4 20.8C196.3 21.6 196.3 22.2 196.3 22.6C196.3 23 196.3 23.3 196.2 23.4C196.1 23.5 195.9 23.6 195.6 23.6C195.5 23.6 195.3 23.7 195 23.9C194.7 24 194.5 24.1 194.2 24.1C193.8 24.1 193.5 23.9 193.4 23.5C193.3 23.3 193.3 22.9 193.3 22.3C193.3 22.1 193.3 21.8 193.3 21.4C193.3 21 193.3 20.7 193.3 20.5C193.3 20.3 193.3 19.9 193.3 19.5C193.3 19.1 193.3 18.7 193.3 18.5C193.3 18.1 193.4 16.9 193.5 14.7C193.5 14 193.6 13.6 193.6 13.5C193.6 13.1 193.6 12.9 193.5 12.9C193.4 12.9 193.2 13.2 192.9 13.9C192.8 14.2 192.7 14.6 192.5 15.2C191.9 16.4 191.4 17.7 190.9 19.2C190.4 20.7 189.7 22.3 189 23.8C188.6 24.5 188.1 24.9 187.5 24.9C187.2 24.9 186.9 24.8 186.7 24.6C186.4 24.4 186.2 24.3 186.2 24.3C185.7 24.3 185.5 23.3 185.5 21.2C185.5 20.5 185.5 19.4 185.6 18C185.6 16.6 185.7 15.5 185.7 14.8C185.7 14.4 185.7 13.8 185.7 13C185.7 12.2 185.7 11.6 185.7 11.2C185.7 10.6 185.7 9.69999 185.8 8.49999C185.8 7.29999 185.9 6.39999 185.9 5.79999C185.9 4.89999 186.6 4.49999 188.1 4.49999C188.4 4.49999 188.6 4.59999 188.7 4.69999C188.5 4.79999 188.5 5.09999 188.5 5.39999C188.5 6.49999 188.5 8.09999 188.6 10.2C188.7 12.3 188.7 14 188.7 15C188.7 15.3 188.7 15.7 188.7 16.2C188.7 16.7 188.7 17.1 188.7 17.4C188.7 17.6 188.7 17.7 188.8 17.7C189 17.7 189.2 17.3 189.5 16.5C190.1 15 190.8 13 191.5 10.5C191.8 9.29999 192.2 8.09999 192.5 6.99999C193.1 5.09999 193.5 4.09999 193.7 3.89999C193.9 3.79999 194.2 3.69999 194.6 3.49999C195.1 3.39999 195.4 3.29999 195.6 3.29999C195.8 3.29999 195.9 3.29999 196 3.39999C196.1 3.49999 196.2 4.29999 196.3 5.79999C196.4 7.09999 196.4 7.99999 196.4 8.49999C196.4 9.19999 196.4 10.2 196.3 11.5C196.2 12.8 196.2 13.8 196.2 14.5C196.2 15 196.2 15.7 196.3 16.7C196.4 17.7 196.5 18.4 196.5 18.9Z" fill="white" stroke="white" stroke-width="3.3" stroke-miterlimit="10" stroke-linecap="round" stroke-linejoin="round"/>
<path d="M212.1 4.90001C212.1 5.20001 211.2 6.70002 209.3 9.50002C207.5 12.3 206.5 13.9 206.5 14.3C206.5 14.4 207.4 15.7 209.1 18.3C210.8 20.9 211.7 22.3 211.7 22.6C211.7 22.7 211.5 23 211.1 23.4C210.7 23.8 210.4 24 210.3 24C210.2 24 209.8 23.7 209.3 23.2C208.6 22.5 207.7 21.4 206.8 20.1C205.5 18.3 204.7 17.3 204.4 16.9C204 16.5 203.8 16.3 203.7 16.3C203.7 16.3 203.7 16.3 203.6 16.3V16.6C203.6 16.7 203.6 16.9 203.7 17.1C203.7 17.3 203.8 17.5 203.8 17.6C203.8 18.3 203.8 19.4 203.7 21.1C203.6 23 203.5 24 203.4 24.2C203.3 24.4 203.1 24.5 203 24.5C202.6 24.5 202.1 24.4 201.5 24.2C200.8 23.9 200.5 23.6 200.5 23.2V18.6C200.5 17.9 200.5 16.8 200.6 15.3C200.7 13.8 200.7 12.8 200.7 12C200.7 11.6 200.7 11 200.7 10.3C200.7 9.60001 200.7 9.00001 200.7 8.60001C200.7 7.20001 200.8 6.00001 200.9 5.10001C201 4.20001 201.1 3.80001 201.3 3.80001C201.7 3.80001 202.1 3.80001 202.6 3.90001C203.2 4.00001 203.6 4.20001 203.8 4.40001C203.9 4.60001 204 6.10001 204.1 8.90001V9.10001C204.1 9.40001 204.1 9.80001 204 10.4C204.1 11 204.1 11.4 204.1 11.7C204.1 12.3 204.1 12.6 204.2 12.6C204.3 12.6 205.3 11 207.2 7.90001C209.1 4.80001 210.2 3.20001 210.6 3.20001C210.8 3.20001 211.2 3.40001 211.8 3.90001C211.8 4.40001 212.1 4.70001 212.1 4.90001Z" fill="white" stroke="white" stroke-width="3.3" stroke-miterlimit="10" stroke-linecap="round" stroke-linejoin="round"/>
<path d="M224.5 23.7C224.5 23.8 224.4 23.9 224.3 24C224.1 24.1 224 24.2 223.9 24.2C223.8 24.2 223.8 24.2 223.6 24.1C223.5 24.1 223.4 24 223.3 24C223.2 24 223.1 24 222.9 24.1C222.7 24.2 222.6 24.2 222.6 24.2C222 24.2 221.5 23.5 221.1 22.2C221.1 22 221 21.8 221 21.5C220.8 20.6 220.6 19.7 220.3 19C220.2 18.8 220.1 18.6 220 18.4H219.4C217.3 18.4 216.2 18.5 216.1 18.8C216 19 215.9 19.5 215.7 20.3C215.5 21.3 215.4 21.8 215.3 22C215 23 214.8 23.8 214.8 24.2C214.8 24.9 214.5 25.2 213.8 25.2C213.4 25.2 213.1 25.2 212.7 25.1C212.2 25 211.9 24.7 211.9 24.5C211.9 24.4 211.9 24.4 211.9 24.3C211.9 24.2 211.9 24.1 211.9 24.1C211.9 23.7 212 23 212 22.1C212.4 18.8 213.2 15.1 214.6 10.9V10.8C214.9 9.4 215.3 8 215.6 6.6C216.1 4.5 216.5 3.5 216.9 3.5C217.5 3.5 218.3 3.6 219.2 3.8C220.4 4 221 4.3 221 4.7V4.8C221 4.9 221 4.9 221 4.9C221 4.9 221 5.2 221.1 5.7C221.3 6.9 221.6 8.6 222 10.9C222.4 12.8 222.6 13.9 222.6 14.2C222.6 14.8 222.7 15.7 223 16.7C223.2 17.6 223.4 18.6 223.6 19.6C223.7 20.3 223.9 21.3 224.1 22.7C224.1 22.8 224.2 23 224.2 23.2C224.5 23.4 224.5 23.6 224.5 23.7ZM219.9 15.2C219.9 14.7 219.8 14 219.6 13.1C219.3 11.8 219.2 11.1 219.2 11C219.2 10.9 219.2 10.7 219.1 10.5C218.9 9.4 218.7 8.8 218.6 8.8C218.6 8.9 218.5 9.2 218.4 9.7C217.4 13.3 216.8 15.3 216.8 15.5C216.8 15.6 217.1 15.7 217.6 15.7C217.7 15.7 217.8 15.7 218 15.7C218.2 15.7 218.3 15.7 218.4 15.7C219.4 15.8 219.9 15.6 219.9 15.2Z" fill="white" stroke="white" stroke-width="3.3" stroke-miterlimit="10" stroke-linecap="round" stroke-linejoin="round"/>
<path d="M115.8 23C115.8 23.6 115.6 23.9 115.2 23.9C113.7 23.9 112.9 23.4 112.9 22.3C112.9 21.8 112.9 21 112.8 19.9C112.7 18.8 112.7 18 112.7 17.5C112.7 17.1 112.7 16.4 112.8 15.6C112.9 14.8 112.9 14.1 112.9 13.7C112.9 13.3 112.9 12.7 112.8 12C112.7 11.2 112.7 10.7 112.7 10.3C112.7 9.90001 112.7 9.20001 112.8 8.40001C112.9 7.50001 112.9 6.90001 112.9 6.50001C112.7 6.50001 112.3 6.6 111.9 6.7C110.9 6.9 110.3 7.00001 110.1 7.00001C110 7.00001 109.9 7.00001 109.8 7.00001C109.6 7.00001 109.5 7.00001 109.5 7.00001H109C109 7.20001 109 7.60001 109 8.10001C109 8.60001 109 8.9 109 9.2C109 10 109 11.2 108.9 12.9C108.9 14.5 108.8 15.7 108.8 16.6C108.8 18.2 108.8 19.3 108.8 19.6C108.8 20.4 108.8 20.8 108.8 21C108.8 21.1 108.8 21.3 108.8 21.5C108.8 21.7 108.8 21.9 108.8 22C108.8 22.1 108.8 22.3 108.8 22.6C108.8 22.9 108.8 23.1 108.8 23.2C108.8 23.3 108.8 23.4 108.8 23.5C108.8 23.7 108.8 23.8 108.8 23.8C108.8 23.9 108.8 24 108.7 24.1C108.6 24.1 108.6 24.2 108.5 24.2C108.4 24.2 108.3 24.2 108.2 24.1C108 24.1 107.9 24.1 107.8 24.1C106.9 24.1 106.3 23.9 106.1 23.5C105.9 23.1 105.7 22.2 105.7 20.8C105.7 20 105.7 18.7 105.6 17.1C105.6 15.4 105.5 14.2 105.5 13.4C105.5 12.7 105.5 11.7 105.6 10.3C105.7 8.90001 105.7 7.9 105.7 7.2C105.7 7.1 105.6 6.9 105.5 6.7C105.3 6.4 105.3 6.10001 105.3 5.80001C105.3 5.00001 105.4 4.50001 105.6 4.30001C105.8 4.10001 106.2 4.00001 106.7 4.00001C107.6 4.00001 109.6 3.7 112.7 3.2C112.8 2.8 113.1 2.60001 113.7 2.60001C113.9 2.60001 114.1 2.6 114.4 2.7C114.7 2.8 115 2.80001 115.1 2.80001C115.2 2.80001 115.4 3 115.6 3.2C115.8 3.5 115.9 3.70001 115.9 3.80001C115.9 3.90001 115.9 4 115.8 4.2C115.8 4.4 115.7 4.6 115.7 4.7C115.7 4.8 115.7 5 115.8 5.2C115.8 5.4 115.9 5.6 115.9 5.7C115.9 6 115.9 6.40001 115.8 7.00001C115.8 7.60001 115.7 8.00001 115.7 8.30001C115.7 8.70001 115.7 9.40001 115.8 10.3C115.8 11.2 115.9 11.9 115.9 12.3C115.9 13.5 115.9 15.2 115.8 17.6C115.9 20 115.8 21.8 115.8 23Z" fill="#E81212"/>
<path d="M129.5 9.30001C129.5 10.6 129.2 11.9 128.5 13.1C127.8 14.4 127 15.3 125.9 16C125.2 16.3 124.3 16.7 123 17.3V19.3C123 19.6 123 20 123.1 20.5C123.1 21 123.2 21.4 123.2 21.7C123.2 21.9 123.2 22.2 123.1 22.5C123 22.9 123 23.1 123 23.3C123 23.4 123 23.4 123.1 23.5C123.2 23.6 123.2 23.7 123.2 23.8C123.2 24.4 122.9 24.7 122.3 24.7C120.8 24.7 120 24.1 119.9 22.8C119.8 21.3 119.8 18.9 119.8 15.8C119.8 15.3 119.8 14.5 119.8 13.5C119.8 12.5 119.8 11.7 119.8 11.2C119.8 10.5 119.8 9.40002 119.8 8.00002C119.8 6.60002 119.8 5.50001 119.8 4.80001C119.8 4.10001 120.5 3.70001 122 3.70001H123.5C124.2 3.70001 124.8 3.80001 125.3 3.90001C126.3 4.20001 127.3 4.90002 128.2 6.00002C129 7.20002 129.5 8.30001 129.5 9.30001ZM125.8 9.40001C125.8 8.60001 125.7 8.00001 125.5 7.70001C125.2 7.20001 124.7 7.00002 123.9 7.00002H123.5C123.3 7.00002 123.1 7.10001 123.1 7.20001C123 7.30001 123 7.80001 123 8.70001C123 8.90001 123 9.10001 123 9.40001C123 9.70001 123 9.90001 123 10.1C123 10.2 123 10.4 123 10.7C123 11 123 11.2 123 11.3C123 11.4 123 11.6 123 11.9C123 12.2 123 12.4 123 12.5C123 12.6 123 12.7 123 12.9C123 13.1 123 13.2 123 13.3C123 13.7 123.1 13.9 123.3 13.9C124.1 13.9 124.7 13.4 125.3 12.4C125.6 11.5 125.8 10.5 125.8 9.40001Z" fill="#E81212"/>
<path d="M142.2 23.7C142.2 23.8 142.1 23.9 142 24C141.9 24.1 141.7 24.2 141.6 24.2C141.5 24.2 141.5 24.2 141.3 24.1C141.2 24.1 141.1 24 141 24C140.9 24 140.8 24 140.6 24.1C140.5 24.2 140.3 24.2 140.3 24.2C139.7 24.2 139.2 23.5 138.8 22.2C138.8 22 138.7 21.8 138.7 21.5C138.5 20.6 138.3 19.7 138 19C137.9 18.8 137.8 18.6 137.7 18.4H137.1C135 18.4 133.9 18.5 133.8 18.8C133.7 19 133.6 19.5 133.4 20.3C133.2 21.3 133.1 21.8 133 22C132.7 23 132.5 23.8 132.5 24.2C132.5 24.9 132.2 25.2 131.5 25.2C131.1 25.2 130.8 25.2 130.4 25.1C129.9 25 129.6 24.7 129.6 24.5C129.6 24.4 129.6 24.4 129.6 24.3C129.6 24.2 129.6 24.1 129.6 24.1C129.6 23.7 129.7 23 129.7 22.1C130.1 18.8 130.9 15.1 132.3 10.9V10.8C132.6 9.4 133 8 133.3 6.6C133.8 4.5 134.2 3.5 134.6 3.5C135.2 3.5 136 3.6 136.9 3.8C138.1 4 138.7 4.3 138.7 4.7V4.8C138.7 4.9 138.7 4.9 138.7 4.9C138.7 4.9 138.7 5.2 138.8 5.7C139 6.9 139.3 8.6 139.7 10.9C140.1 12.8 140.3 13.9 140.3 14.2C140.3 14.8 140.4 15.7 140.7 16.7C140.9 17.6 141.1 18.6 141.3 19.6C141.4 20.3 141.6 21.3 141.8 22.7C141.8 22.8 141.9 23 141.9 23.2C142.1 23.4 142.2 23.6 142.2 23.7ZM137.6 15.2C137.6 14.7 137.5 14 137.3 13.1C137 11.8 136.9 11.1 136.9 11C136.9 10.9 136.9 10.7 136.8 10.5C136.6 9.4 136.4 8.8 136.3 8.8C136.3 8.9 136.2 9.2 136.1 9.7C135.1 13.3 134.5 15.3 134.5 15.5C134.5 15.6 134.8 15.7 135.3 15.7C135.4 15.7 135.5 15.7 135.7 15.7C135.9 15.7 136 15.7 136.1 15.7C137 15.8 137.6 15.6 137.6 15.2Z" fill="#E81212"/>
<path d="M154.4 17.6C154.4 18.4 154.1 19.3 153.6 20.3C152.8 21.8 151.1 23 148.7 23.9C147.6 24.3 146.8 24.5 146.3 24.5C144.5 24.5 143.6 23.7 143.6 22C143.6 21.3 144.1 20.9 145.1 20.9C145.4 20.9 145.6 20.9 145.8 21C146 21.1 146.1 21.1 146.2 21.1C147.2 21.1 148.3 20.7 149.4 19.9C150.6 19.1 151.2 18.2 151.2 17.2C151.2 16.5 151 15.9 150.5 15.3C150 14.8 149.4 14.5 148.7 14.5C148.2 14.5 147.7 14.6 147.3 14.9C146.9 15.2 146.6 15.3 146.4 15.3C145.9 15.3 145.6 15.2 145.4 15.1C145.2 14.9 145.1 14.6 145.1 14.2C145.1 13.5 145.2 13 145.5 12.7C145.8 12.4 146.3 12.1 147 11.7C148.3 11.1 149 10.7 149.4 10.5C150.4 9.90002 151 9.30001 151.2 8.70001C151.3 8.40001 151.4 8.00002 151.4 7.50002C151.4 7.40002 151.3 7.30001 151.1 7.10001C150.9 6.90001 150.6 6.80001 150.1 6.80001C149.4 6.80001 148.8 6.90001 148.2 7.10001C147.6 7.30001 147.1 7.60001 146.4 8.10001C146 8.40001 145.8 8.50002 145.6 8.50002C145.5 8.50002 145.4 8.40001 145.2 8.30001C144.6 7.70001 144.3 7.00001 144.3 6.20001C144.3 5.70001 144.8 5.20001 145.8 4.70001C146.5 4.40001 147.2 4.10001 147.9 3.90001C148.5 3.80001 149 3.70001 149.4 3.70001C151 3.70001 152.3 4.20001 153.3 5.20001C153.9 5.90001 154.3 6.80002 154.3 8.00002C154.3 8.70002 153.8 9.70001 152.9 10.9C152.6 11.3 152.2 11.6 151.8 11.9C151.4 12.1 151.2 12.3 151.2 12.4C151.2 12.4 151.3 12.5 151.5 12.5C151.9 12.6 152.5 12.9 153.2 13.4C153.9 14.2 154.4 15.7 154.4 17.6Z" fill="#E81212"/>
<path d="M170.1 22.4C170.1 22.6 170.1 23.3 170 24.6C169.9 25.9 169.9 26.5 169.9 26.6C169.8 26.7 169.5 26.8 169 26.8C168.8 26.8 168.4 26.7 168 26.6C167.5 26.5 167.2 26.3 167.2 26.2C167.2 26.1 167.4 25.2 167.7 23.7C166.2 23.8 163.8 24 160.8 24.3C160.1 24.4 158.9 24.5 157.5 24.7C157.6 25.4 157.7 26.1 157.7 26.7C157.7 27.2 157.3 27.5 156.4 27.5C155.5 27.5 155.1 27.4 155.1 27.2C155.1 26.9 155.1 26.4 155.2 25.7C155.3 25 155.3 24.5 155.3 24.2C155.3 24.1 155.3 24 155.3 23.9C155.2 23.8 155.2 23.6 155.2 23.3C155.2 22.5 155.8 22.1 157 22.1C158 17.2 158.8 13.4 159.5 10.8C159.7 10.1 160 9.00001 160.3 7.50001C160.9 4.90001 161.3 3.60001 161.7 3.60001C161.8 3.60001 162 3.6 162.3 3.7C163.8 4 164.9 4.2 165.4 4.2C165.7 4.2 165.8 4.30001 165.9 4.40001C166 4.80001 166 5.30001 166.1 5.90001C166.3 6.80001 166.5 8.10001 166.8 9.90001C166.8 10 166.9 10.6 167.1 11.7C167.2 12.4 167.3 13 167.3 13.5C167.3 14.1 167.4 15.3 167.6 17.2C167.8 19.2 167.9 20.3 168 20.6C168.1 20.9 168.3 21 168.5 21C169.1 21 169.4 21 169.6 21C170 21.1 170.2 21.3 170.3 21.6C170.1 21.7 170.1 22 170.1 22.4ZM165 21.1C165 20.4 164.9 19.4 164.6 18C164.4 16.7 164.2 15.6 164.2 14.9C164.2 14.6 164.1 14.1 164 13.4C163.7 12.2 163.3 10.5 162.8 8.50001C162.7 8.70001 162.5 9.60001 162.1 11.1C161.9 12 161.5 13.4 161.1 15.2C160.9 16.1 160.7 17.3 160.3 19.1C160.2 19.7 160 20.5 159.8 21.6H160C160.6 21.6 161.4 21.5 162.5 21.4C163.6 21.2 164.4 21.1 165 21.1Z" fill="#E81212"/>
<path d="M181.8 15C181.8 15.3 181.8 15.7 181.8 16.3C181.8 16.9 181.8 17.3 181.8 17.6C181.8 18.2 181.8 19.1 181.7 20.3C181.6 21.5 181.6 22.4 181.6 23C181.6 23.3 181.5 23.5 181.4 23.6C181.3 23.7 181.1 23.8 180.9 23.8C179.4 23.8 178.6 23.3 178.6 22.3C178.6 21.8 178.6 21 178.5 19.9C178.4 18.8 178.5 18 178.5 17.5C178.5 17.3 178.5 17 178.6 16.7C178.6 16.3 178.7 16.1 178.7 15.9C178.7 15.4 178.6 15.1 178.4 15.1C178.2 15.1 177.9 15.1 177.5 15.2C177.1 15.3 176.8 15.3 176.6 15.3H176.5C176.4 15.3 176.4 15.3 176.3 15.3C175.7 15.3 175.2 15.4 174.9 15.5C174.8 15.5 174.8 16.5 174.8 18.4C174.8 18.7 174.8 19.2 174.8 19.8C174.8 20.4 174.8 20.9 174.8 21.2C174.8 21.3 174.8 21.4 174.8 21.5C174.8 21.6 174.8 21.8 174.8 21.8C174.8 21.9 174.8 22.2 174.8 22.5C174.8 22.8 174.8 23 174.8 23.2C174.8 23.3 174.8 23.3 174.8 23.5C174.8 23.6 174.8 23.7 174.8 23.8C174.8 24.1 174.7 24.2 174.4 24.2C174.3 24.2 174.2 24.2 174.1 24.1C173.7 24.1 173.6 24.1 173.5 24.1C172.6 24.1 172 23.9 171.8 23.5C171.6 23 171.5 22.1 171.5 20.8C171.5 20 171.5 18.7 171.4 17.1C171.3 15.5 171.3 14.2 171.3 13.4C171.3 12.7 171.3 11.9 171.4 10.9C171.5 9.5 171.5 8.7 171.5 8.4C171.5 7.8 171.5 6.9 171.5 5.7C171.5 5.4 171.6 5.1 171.8 4.7C172 4.3 172.2 4.1 172.4 4.1C173.4 4.1 174 4.2 174.2 4.4C174.5 4.6 174.6 5.2 174.6 6.1C174.6 6.4 174.6 6.8 174.6 7.3C174.6 7.8 174.6 8.2 174.6 8.5C174.6 8.8 174.6 9.2 174.6 9.7C174.6 10.2 174.6 10.6 174.6 10.9C174.6 11 174.6 11.2 174.6 11.4C174.6 11.6 174.6 11.8 174.6 11.8C174.6 11.9 174.6 12 174.7 12C174.8 12 175 12 175.2 12C175.4 12 175.6 12 175.7 12C175.7 12 175.8 12 175.9 12C176 12 176.1 12 176.1 12C176.3 12 176.6 12 176.9 11.9C177.3 11.8 177.5 11.8 177.7 11.8C177.8 11.8 177.8 11.8 177.9 11.8C178 11.8 178.1 11.8 178.1 11.8C178.1 11.8 178.2 11.7 178.2 11.4C178.3 10.4 178.4 8.5 178.4 5.5C178.4 5.3 178.4 4.9 178.3 4.5C178.2 4.1 178.2 3.7 178.2 3.5C178.2 3.1 178.3 2.8 178.4 2.7C178.5 2.6 178.8 2.5 179.2 2.5C179.7 2.5 180.2 2.6 180.6 2.8C181.2 3.1 181.4 3.4 181.4 3.8C181.4 3.9 181.4 4.1 181.4 4.3C181.4 4.5 181.4 4.6 181.4 4.8C181.4 4.9 181.4 5.2 181.4 5.5C181.4 5.8 181.4 6 181.4 6.2C181.4 6.5 181.4 6.9 181.4 7.4C181.4 7.9 181.4 8.3 181.4 8.6C181.4 9 181.4 9.7 181.4 10.5C181.4 11.4 181.4 12 181.4 12.4C181.4 12.7 181.4 13.1 181.4 13.7C181.8 14.2 181.8 14.7 181.8 15Z" fill="#E81212"/>
<path d="M196.5 18.9C196.5 19.3 196.5 20 196.4 20.8C196.3 21.6 196.3 22.2 196.3 22.6C196.3 23 196.3 23.3 196.2 23.4C196.1 23.5 195.9 23.6 195.6 23.6C195.5 23.6 195.3 23.7 195 23.9C194.7 24 194.5 24.1 194.2 24.1C193.8 24.1 193.5 23.9 193.4 23.5C193.3 23.3 193.3 22.9 193.3 22.3C193.3 22.1 193.3 21.8 193.3 21.4C193.3 21 193.3 20.7 193.3 20.5C193.3 20.3 193.3 19.9 193.3 19.5C193.3 19.1 193.3 18.7 193.3 18.5C193.3 18.1 193.4 16.9 193.5 14.7C193.5 14 193.6 13.6 193.6 13.5C193.6 13.1 193.6 12.9 193.5 12.9C193.4 12.9 193.2 13.2 192.9 13.9C192.8 14.2 192.7 14.6 192.5 15.2C191.9 16.4 191.4 17.7 190.9 19.2C190.4 20.7 189.7 22.3 189 23.8C188.6 24.5 188.1 24.9 187.5 24.9C187.2 24.9 186.9 24.8 186.7 24.6C186.4 24.4 186.2 24.3 186.2 24.3C185.7 24.3 185.5 23.3 185.5 21.2C185.5 20.5 185.5 19.4 185.6 18C185.6 16.6 185.7 15.5 185.7 14.8C185.7 14.4 185.7 13.8 185.7 13C185.7 12.2 185.7 11.6 185.7 11.2C185.7 10.6 185.7 9.69999 185.8 8.49999C185.8 7.29999 185.9 6.39999 185.9 5.79999C185.9 4.89999 186.6 4.49999 188.1 4.49999C188.4 4.49999 188.6 4.59999 188.7 4.69999C188.5 4.79999 188.5 5.09999 188.5 5.39999C188.5 6.49999 188.5 8.09999 188.6 10.2C188.7 12.3 188.7 14 188.7 15C188.7 15.3 188.7 15.7 188.7 16.2C188.7 16.7 188.7 17.1 188.7 17.4C188.7 17.6 188.7 17.7 188.8 17.7C189 17.7 189.2 17.3 189.5 16.5C190.1 15 190.8 13 191.5 10.5C191.8 9.29999 192.2 8.09999 192.5 6.99999C193.1 5.09999 193.5 4.09999 193.7 3.89999C193.9 3.79999 194.2 3.69999 194.6 3.49999C195.1 3.39999 195.4 3.29999 195.6 3.29999C195.8 3.29999 195.9 3.29999 196 3.39999C196.1 3.49999 196.2 4.29999 196.3 5.79999C196.4 7.09999 196.4 7.99999 196.4 8.49999C196.4 9.19999 196.4 10.2 196.3 11.5C196.2 12.8 196.2 13.8 196.2 14.5C196.2 15 196.2 15.7 196.3 16.7C196.4 17.7 196.5 18.4 196.5 18.9Z" fill="#E81212"/>
<path d="M212.1 4.90001C212.1 5.20001 211.2 6.70002 209.3 9.50002C207.5 12.3 206.5 13.9 206.5 14.3C206.5 14.4 207.4 15.7 209.1 18.3C210.8 20.9 211.7 22.3 211.7 22.6C211.7 22.7 211.5 23 211.1 23.4C210.7 23.8 210.4 24 210.3 24C210.2 24 209.8 23.7 209.3 23.2C208.6 22.5 207.7 21.4 206.8 20.1C205.5 18.3 204.7 17.3 204.4 16.9C204 16.5 203.8 16.3 203.7 16.3C203.7 16.3 203.7 16.3 203.6 16.3V16.6C203.6 16.7 203.6 16.9 203.7 17.1C203.7 17.3 203.8 17.5 203.8 17.6C203.8 18.3 203.8 19.4 203.7 21.1C203.6 23 203.5 24 203.4 24.2C203.3 24.4 203.1 24.5 203 24.5C202.6 24.5 202.1 24.4 201.5 24.2C200.8 23.9 200.5 23.6 200.5 23.2V18.6C200.5 17.9 200.5 16.8 200.6 15.3C200.7 13.8 200.7 12.8 200.7 12C200.7 11.6 200.7 11 200.7 10.3C200.7 9.60001 200.7 9.00001 200.7 8.60001C200.7 7.20001 200.8 6.00001 200.9 5.10001C201 4.20001 201.1 3.80001 201.3 3.80001C201.7 3.80001 202.1 3.80001 202.6 3.90001C203.2 4.00001 203.6 4.20001 203.8 4.40001C203.9 4.60001 204 6.10001 204.1 8.90001V9.10001C204.1 9.40001 204.1 9.80001 204 10.4C204.1 11 204.1 11.4 204.1 11.7C204.1 12.3 204.1 12.6 204.2 12.6C204.3 12.6 205.3 11 207.2 7.90001C209.1 4.80001 210.2 3.20001 210.6 3.20001C210.8 3.20001 211.2 3.40001 211.8 3.90001C211.8 4.40001 212.1 4.70001 212.1 4.90001Z" fill="#E81212"/>
<path d="M224.5 23.7C224.5 23.8 224.4 23.9 224.3 24C224.1 24.1 224 24.2 223.9 24.2C223.8 24.2 223.8 24.2 223.6 24.1C223.5 24.1 223.4 24 223.3 24C223.2 24 223.1 24 222.9 24.1C222.7 24.2 222.6 24.2 222.6 24.2C222 24.2 221.5 23.5 221.1 22.2C221.1 22 221 21.8 221 21.5C220.8 20.6 220.6 19.7 220.3 19C220.2 18.8 220.1 18.6 220 18.4H219.4C217.3 18.4 216.2 18.5 216.1 18.8C216 19 215.9 19.5 215.7 20.3C215.5 21.3 215.4 21.8 215.3 22C215 23 214.8 23.8 214.8 24.2C214.8 24.9 214.5 25.2 213.8 25.2C213.4 25.2 213.1 25.2 212.7 25.1C212.2 25 211.9 24.7 211.9 24.5C211.9 24.4 211.9 24.4 211.9 24.3C211.9 24.2 211.9 24.1 211.9 24.1C211.9 23.7 212 23 212 22.1C212.4 18.8 213.2 15.1 214.6 10.9V10.8C214.9 9.4 215.3 8 215.6 6.6C216.1 4.5 216.5 3.5 216.9 3.5C217.5 3.5 218.3 3.6 219.2 3.8C220.4 4 221 4.3 221 4.7V4.8C221 4.9 221 4.9 221 4.9C221 4.9 221 5.2 221.1 5.7C221.3 6.9 221.6 8.6 222 10.9C222.4 12.8 222.6 13.9 222.6 14.2C222.6 14.8 222.7 15.7 223 16.7C223.2 17.6 223.4 18.6 223.6 19.6C223.7 20.3 223.9 21.3 224.1 22.7C224.1 22.8 224.2 23 224.2 23.2C224.5 23.4 224.5 23.6 224.5 23.7ZM219.9 15.2C219.9 14.7 219.8 14 219.6 13.1C219.3 11.8 219.2 11.1 219.2 11C219.2 10.9 219.2 10.7 219.1 10.5C218.9 9.4 218.7 8.8 218.6 8.8C218.6 8.9 218.5 9.2 218.4 9.7C217.4 13.3 216.8 15.3 216.8 15.5C216.8 15.6 217.1 15.7 217.6 15.7C217.7 15.7 217.8 15.7 218 15.7C218.2 15.7 218.3 15.7 218.4 15.7C219.4 15.8 219.9 15.6 219.9 15.2Z" fill="#E81212"/>
</svg>
