<svg width="227" height="30" fill="none" xmlns="http://www.w3.org/2000/svg"><path d="M13.6 12.8c0 .7-.3 1.3-1 1.7-.6 5-1.8 8.1-3.7 9.3-.7.4-1.4.7-2 .7-1.3 0-2.4-.3-3.3-.9-.9-.6-1.3-1.8-1.3-3.6 0-1 .1-1.8.3-2.2.2-.5.7-.7 1.5-.7.5 0 .8.2 1 .5.2.4.4.9.4 1.6.1.8.1 1.3.1 1.3.1.6.4.8.8.8.2 0 .5-.2.9-.7.8-1 1.3-2.8 1.6-5.6-.4 0-.7-.1-.7-.1-.4 0-.7 0-.8.1-.2.1-.4.1-.6.1-.2 0-.4-.1-.6-.4-.2-.3-.3-.5-.3-.7 0-.2 0-.4-.1-.7 0-.3-.1-.5-.1-.7 0-.4.1-.6.4-.6.2 0 .5 0 .9.1.4 0 .7.1.9.1h1v-1.3c0-1.8-.2-3.2-.6-4.4-.1-.3-.4-.5-.8-.5-.8 0-1.5.6-2.1 1.7-.2.6-.4 1.3-.6 1.9-.3.8-.7 1.2-1.3 1.2-.5 0-.8-.2-1.1-.6-.3-.4-.4-.8-.4-1.3C2 7.3 2.4 6 3.3 5S5.4 3.5 7 3.5c.7 0 1.5.2 2.2.5.8.3 1.3.7 1.7 1.2 1.1 1.2 1.6 3.5 1.6 6.8.9 0 1.1.3 1.1.8ZM26.3 15v2.6c0 .6 0 1.5-.1 2.7-.1 1.2-.1 2.1-.1 2.7 0 .3-.1.5-.2.6-.1.1-.3.2-.5.2-1.5 0-2.3-.5-2.3-1.5 0-.5 0-1.3-.1-2.4-.1-1.1-.1-1.9-.1-2.4 0-.2 0-.5.1-.8 0-.4.1-.6.1-.8 0-.5-.1-.8-.3-.8-.2 0-.5 0-.9.1s-.7.1-.9.1h-.3c-.6 0-1.1.1-1.4.2-.1 0-.1 1-.1 2.9v5.4c0 .3-.1.4-.4.4-.1 0-.2 0-.3-.1-.1 0-.3-.1-.3-.1-.9 0-1.5-.2-1.7-.6-.2-.4-.4-1.3-.4-2.7 0-.8 0-2.1-.1-3.7 0-1.7-.1-2.9-.1-3.7 0-.7 0-1.5.1-2.5.1-1.4.1-2.2.1-2.5V5.6c0-.3.1-.6.3-1 .1-.3.3-.5.6-.5 1 0 1.6.1 1.8.3.3.2.4.8.4 1.7v5.7c0 .1 0 .2.1.2h1.4c.2 0 .5 0 .8-.1.3-.1.6-.1.8-.1h.4s.1-.1.1-.4c.1-1 .2-2.9.2-5.9 0-.2 0-.6-.1-1 0-.5-.1-.8-.1-1 0-.4.1-.7.2-.8.1-.1.4-.2.8-.2.5 0 1 .1 1.4.3.6.3.8.6.8 1v9.9c.3.5.3 1 .3 1.3Zm12.4 8.2c-.3.1-1.4.3-3.2.6-1.9.3-3 .4-3.4.4-.1 0-.4-.1-.9-.4-.4-.2-.7-.4-.8-.6-.3-.4-.4-2-.4-4.8 0-3.2 0-5.8.1-7.8 0-1.2.1-2.9.3-5.3.1-.6.2-1 .4-1.1.1-.1.3-.1.5-.1.1 0 .3 0 .4.1.1.1.3.1.4.1.1 0 .2 0 .6-.1 1.3-.3 2.7-.5 4-.5.4 0 .8.3 1.1.9.3.5.4 1 .4 1.5 0 .3-.3.5-.8.6-.7.1-1.9.2-3.4.4-.5.1-.8.2-.8.5 0 .4 0 .9-.1 1.6-.1.7-.1 1.2-.1 1.6 0 .7.1 1.1.3 1.1.1 0 .3 0 .6-.1 1.1-.1 2.1-.2 2.8-.2 1 0 1.5.7 1.5 2v.7c0 .2-.9.4-2.7.6-1.8.1-2.7.4-2.7.8 0 0 0 .1.1.2 0 .1.1.2.1.2v2c0 .2 0 .5-.1 1s-.1.8-.1 1c0 .4.1.6.3.6.1 0 .4 0 .8-.1.5-.1 1.3-.2 2.4-.3.4-.1.6-.1.7-.1.2 0 .5.1.8.4.2.2.4.5.5.7.1.2.2.5.2.9v.6c0 .1 0 .1.1.3.1 0 .1.1.1.1ZM51.5 9.3c0 1.3-.3 2.6-1 3.8-.7 1.3-1.5 2.2-2.6 2.9-.7.3-1.6.7-2.9 1.3v2c0 .3 0 .7.1 1.2 0 .5.1.9.1 1.2 0 .2 0 .5-.1.8-.1.4-.1.6-.1.8 0 .1 0 .1.1.2s.1.2.1.3c0 .6-.3.9-.9.9-1.5 0-2.3-.6-2.4-1.9-.1-1.5-.1-3.9-.1-7v-11c0-.7.7-1.1 2.2-1.1h1.5c.7 0 1.3.1 1.8.2 1 .3 2 1 2.9 2.1.9 1.2 1.3 2.3 1.3 3.3Zm-3.6.1c0-.8-.1-1.4-.3-1.7-.3-.5-.8-.7-1.6-.7h-.5c-.2 0-.4.1-.4.2-.1.1-.1.6-.1 1.5v4.6c0 .4.1.6.3.6.8 0 1.4-.5 2-1.5.4-.9.6-1.9.6-3Zm14.6-3c0 .6-.2.9-.5.9h-4.6c-.2 0-.3.1-.3.4 0 .2 0 .5.1.9s.1.7.1.9c0 .3 0 .7-.1 1.2s-.1 1-.1 1.2c0 .6 0 1.3.1 2.1.1.6.1 1.8.1 3.7 0 .5 0 1.3-.1 2.3 0 1-.1 1.8-.1 2.2 0 .5 0 .8-.1 1 0 .1-.1.3-.2.5.1.4-.2.4-.6.4-.3 0-.6-.1-1.2-.3-.6-.2-.9-.4-.9-.6v-4.7c0-.3 0-.8-.1-1.5 0-.7-.1-1.2-.1-1.5 0-.5 0-1.3.1-2.3 0-1 .1-1.8.1-2.3V5c0-.5.1-.7.3-.8.8-.2 1.9-.4 3.2-.4 2.3 0 3.6.1 3.9.4.7.8 1 1.4 1 2.2Zm13.2 12.5c0 .4 0 1.1-.1 1.9-.1.8-.1 1.4-.1 1.8 0 .4 0 .7-.1.8-.1.1-.3.2-.6.2-.1 0-.3.1-.6.3-.2.1-.5.2-.7.2-.4 0-.7-.2-.8-.6-.1-.2-.1-.6-.1-1.2v-3.8c0-.4.1-1.6.2-3.8 0-.7.1-1.1.1-1.2 0-.4 0-.6-.1-.6s-.3.3-.6 1c-.1.3-.2.7-.4 1.3-.6 1.2-1.1 2.5-1.6 4s-1.2 3.1-1.9 4.6c-.4.7-.9 1.1-1.5 1.1-.3 0-.6-.1-.8-.3-.3-.2-.5-.3-.6-.3-.5 0-.7-1-.7-3.1 0-.7 0-1.8.1-3.2 0-1.4.1-2.5.1-3.2v-3.6c0-.6 0-1.5.1-2.7 0-1.2.1-2.1.1-2.7 0-.9.7-1.3 2.2-1.3.3 0 .5.1.6.2.1.2.1.4.1.8 0 1.1 0 2.7.1 4.8.1 2.1.1 3.8.1 4.8v2.4c0 .2 0 .3.1.3.2 0 .4-.4.7-1.2.6-1.5 1.3-3.5 2-6 .3-1.2.7-2.4 1-3.5.6-1.9 1-2.9 1.2-3.1.2-.1.5-.2.9-.4.5-.1.8-.2 1-.2.2 0 .3 0 .4.1.1.1.2.9.2 2.4.1 1.3.1 2.2.1 2.7 0 .7 0 1.7-.1 3s-.1 2.3-.1 3c0 .5 0 1.2.1 2.2.1 1 0 1.6 0 2.1Zm14.1.6c0 .4 0 1 .1 1.7 0 .8.1 1.3.1 1.7 0 .5-.1.8-.2 1-.2.2-.5.3-.9.3-1.3 0-2-.3-2-.8v-2.6c0-.5 0-1.4.1-2.5s.1-1.9.1-2.5c0-.1-.1-.2-.2-.2-.2 0-.4 0-.8.1-.6 1-1.2 2.1-1.7 3.2l-.4.9c-.4.9-.8 1.8-1.3 2.7-.7 1.4-1.3 2.1-1.7 2.1-.3 0-.8-.2-1.4-.6-.6-.4-.9-.8-.9-1.1 0-.2.1-.5.3-.8.8-1 2-3.2 3.7-6.4-.8-.2-1.4-.4-1.7-.7-.8-.7-1.3-1.4-1.5-2-.2-.5-.3-1.3-.3-2.4 0-2.7 1.1-4.5 3.3-5.5 1.6-.7 3-1.1 4.1-1.1h.8c.2 0 .5-.1.9-.2s.7-.2.9-.2c.4 0 .7.1.8.4.1.1.1.4.1.9 0 .1 0 .4.1.6 0 .3.1.5.1.6 0 .4 0 .9-.1 1.7 0 .7-.1 1.3-.1 1.7 0 .5 0 1.2.1 2.2.1 1 .1 1.7.1 2.2 0 1.3-.1 2.8-.2 4.6-.3.6-.3 1-.3 1Zm-2.9-8.3V9.5c0-.4-.1-.7-.1-.8V7.5c0-.2-.1-.3-.2-.4h-.4c-1 0-1.9.3-2.7.8-.9.6-1.3 1.4-1.3 2.3 0 .8.2 1.5.7 2 .5.5 1.1.7 1.9.7.2 0 .5 0 .9-.1s.7-.1.9-.1c.2-.2.3-.7.3-1.5Z" fill="#fff" stroke="#fff" stroke-width="3.3" stroke-miterlimit="10" stroke-linecap="round" stroke-linejoin="round"/><path d="M13.6 12.8c0 .7-.3 1.3-1 1.7-.6 5-1.8 8.1-3.7 9.3-.7.4-1.4.7-2 .7-1.3 0-2.4-.3-3.3-.9-.9-.6-1.3-1.8-1.3-3.6 0-1 .1-1.8.3-2.2.2-.5.7-.7 1.5-.7.5 0 .8.2 1 .5.2.4.4.9.4 1.6.1.8.1 1.3.1 1.3.1.6.4.8.8.8.2 0 .5-.2.9-.7.8-1 1.3-2.8 1.6-5.6-.4 0-.7-.1-.7-.1-.4 0-.7 0-.8.1-.2.1-.4.1-.6.1-.2 0-.4-.1-.6-.4-.2-.3-.3-.5-.3-.7 0-.2 0-.4-.1-.7 0-.3-.1-.5-.1-.7 0-.4.1-.6.4-.6.2 0 .5 0 .9.1.4 0 .7.1.9.1h1v-1.3c0-1.8-.2-3.2-.6-4.4-.1-.3-.4-.5-.8-.5-.8 0-1.5.6-2.1 1.7-.2.6-.4 1.3-.6 1.9-.3.8-.7 1.2-1.3 1.2-.5 0-.8-.2-1.1-.6-.3-.4-.4-.8-.4-1.3C2 7.3 2.4 6 3.3 5S5.4 3.5 7 3.5c.7 0 1.5.2 2.2.5.8.3 1.3.7 1.7 1.2 1.1 1.2 1.6 3.5 1.6 6.8.9 0 1.1.3 1.1.8ZM26.3 15v2.6c0 .6 0 1.5-.1 2.7-.1 1.2-.1 2.1-.1 2.7 0 .3-.1.5-.2.6-.1.1-.3.2-.5.2-1.5 0-2.3-.5-2.3-1.5 0-.5 0-1.3-.1-2.4-.1-1.1-.1-1.9-.1-2.4 0-.2 0-.5.1-.8 0-.4.1-.6.1-.8 0-.5-.1-.8-.3-.8-.2 0-.5 0-.9.1s-.7.1-.9.1h-.3c-.6 0-1.1.1-1.4.2-.1 0-.1 1-.1 2.9v5.4c0 .3-.1.4-.4.4-.1 0-.2 0-.3-.1-.1 0-.3-.1-.3-.1-.9 0-1.5-.2-1.7-.6-.2-.4-.4-1.3-.4-2.7 0-.8 0-2.1-.1-3.7 0-1.7-.1-2.9-.1-3.7 0-.7 0-1.5.1-2.5.1-1.4.1-2.2.1-2.5V5.6c0-.3.1-.6.3-1 .1-.3.3-.5.6-.5 1 0 1.6.1 1.8.3.3.2.4.8.4 1.7v5.7c0 .1 0 .2.1.2h1.4c.2 0 .5 0 .8-.1.3-.1.6-.1.8-.1h.4s.1-.1.1-.4c.1-1 .2-2.9.2-5.9 0-.2 0-.6-.1-1 0-.5-.1-.8-.1-1 0-.4.1-.7.2-.8.1-.1.4-.2.8-.2.5 0 1 .1 1.4.3.6.3.8.6.8 1v9.9c.3.5.3 1 .3 1.3Zm12.4 8.2c-.3.1-1.4.3-3.2.6-1.9.3-3 .4-3.4.4-.1 0-.4-.1-.9-.4-.4-.2-.7-.4-.8-.6-.3-.4-.4-2-.4-4.8 0-3.2 0-5.8.1-7.8 0-1.2.1-2.9.3-5.3.1-.6.2-1 .4-1.1.1-.1.3-.1.5-.1.1 0 .3 0 .4.1.1.1.3.1.4.1.1 0 .2 0 .6-.1 1.3-.3 2.7-.5 4-.5.4 0 .8.3 1.1.9.3.5.4 1 .4 1.5 0 .3-.3.5-.8.6-.7.1-1.9.2-3.4.4-.5.1-.8.2-.8.5 0 .4 0 .9-.1 1.6-.1.7-.1 1.2-.1 1.6 0 .7.1 1.1.3 1.1.1 0 .3 0 .6-.1 1.1-.1 2.1-.2 2.8-.2 1 0 1.5.7 1.5 2v.7c0 .2-.9.4-2.7.6-1.8.1-2.7.4-2.7.8 0 0 0 .1.1.2 0 .1.1.2.1.2v2c0 .2 0 .5-.1 1s-.1.8-.1 1c0 .4.1.6.3.6.1 0 .4 0 .8-.1.5-.1 1.3-.2 2.4-.3.4-.1.6-.1.7-.1.2 0 .5.1.8.4.2.2.4.5.5.7.1.2.2.5.2.9v.6c0 .1 0 .1.1.3.1 0 .1.1.1.1ZM51.5 9.3c0 1.3-.3 2.6-1 3.8-.7 1.3-1.5 2.2-2.6 2.9-.7.3-1.6.7-2.9 1.3v2c0 .3 0 .7.1 1.2 0 .5.1.9.1 1.2 0 .2 0 .5-.1.8-.1.4-.1.6-.1.8 0 .1 0 .1.1.2s.1.2.1.3c0 .6-.3.9-.9.9-1.5 0-2.3-.6-2.4-1.9-.1-1.5-.1-3.9-.1-7v-11c0-.7.7-1.1 2.2-1.1h1.5c.7 0 1.3.1 1.8.2 1 .3 2 1 2.9 2.1.9 1.2 1.3 2.3 1.3 3.3Zm-3.6.1c0-.8-.1-1.4-.3-1.7-.3-.5-.8-.7-1.6-.7h-.5c-.2 0-.4.1-.4.2-.1.1-.1.6-.1 1.5v4.6c0 .4.1.6.3.6.8 0 1.4-.5 2-1.5.4-.9.6-1.9.6-3Zm14.6-3c0 .6-.2.9-.5.9h-4.6c-.2 0-.3.1-.3.4 0 .2 0 .5.1.9s.1.7.1.9c0 .3 0 .7-.1 1.2s-.1 1-.1 1.2c0 .6 0 1.3.1 2.1.1.6.1 1.8.1 3.7 0 .5 0 1.3-.1 2.3 0 1-.1 1.8-.1 2.2 0 .5 0 .8-.1 1 0 .1-.1.3-.2.5.1.4-.2.4-.6.4-.3 0-.6-.1-1.2-.3-.6-.2-.9-.4-.9-.6v-4.7c0-.3 0-.8-.1-1.5 0-.7-.1-1.2-.1-1.5 0-.5 0-1.3.1-2.3 0-1 .1-1.8.1-2.3V5c0-.5.1-.7.3-.8.8-.2 1.9-.4 3.2-.4 2.3 0 3.6.1 3.9.4.7.8 1 1.4 1 2.2Zm13.2 12.5c0 .4 0 1.1-.1 1.9-.1.8-.1 1.4-.1 1.8 0 .4 0 .7-.1.8-.1.1-.3.2-.6.2-.1 0-.3.1-.6.3-.2.1-.5.2-.7.2-.4 0-.7-.2-.8-.6-.1-.2-.1-.6-.1-1.2v-3.8c0-.4.1-1.6.2-3.8 0-.7.1-1.1.1-1.2 0-.4 0-.6-.1-.6s-.3.3-.6 1c-.1.3-.2.7-.4 1.3-.6 1.2-1.1 2.5-1.6 4s-1.2 3.1-1.9 4.6c-.4.7-.9 1.1-1.5 1.1-.3 0-.6-.1-.8-.3-.3-.2-.5-.3-.6-.3-.5 0-.7-1-.7-3.1 0-.7 0-1.8.1-3.2 0-1.4.1-2.5.1-3.2v-3.6c0-.6 0-1.5.1-2.7 0-1.2.1-2.1.1-2.7 0-.9.7-1.3 2.2-1.3.3 0 .5.1.6.2.1.2.1.4.1.8 0 1.1 0 2.7.1 4.8.1 2.1.1 3.8.1 4.8v2.4c0 .2 0 .3.1.3.2 0 .4-.4.7-1.2.6-1.5 1.3-3.5 2-6 .3-1.2.7-2.4 1-3.5.6-1.9 1-2.9 1.2-3.1.2-.1.5-.2.9-.4.5-.1.8-.2 1-.2.2 0 .3 0 .4.1.1.1.2.9.2 2.4.1 1.3.1 2.2.1 2.7 0 .7 0 1.7-.1 3s-.1 2.3-.1 3c0 .5 0 1.2.1 2.2.1 1 0 1.6 0 2.1Zm14.1.6c0 .4 0 1 .1 1.7 0 .8.1 1.3.1 1.7 0 .5-.1.8-.2 1-.2.2-.5.3-.9.3-1.3 0-2-.3-2-.8v-2.6c0-.5 0-1.4.1-2.5s.1-1.9.1-2.5c0-.1-.1-.2-.2-.2-.2 0-.4 0-.8.1-.6 1-1.2 2.1-1.7 3.2l-.4.9c-.4.9-.8 1.8-1.3 2.7-.7 1.4-1.3 2.1-1.7 2.1-.3 0-.8-.2-1.4-.6-.6-.4-.9-.8-.9-1.1 0-.2.1-.5.3-.8.8-1 2-3.2 3.7-6.4-.8-.2-1.4-.4-1.7-.7-.8-.7-1.3-1.4-1.5-2-.2-.5-.3-1.3-.3-2.4 0-2.7 1.1-4.5 3.3-5.5 1.6-.7 3-1.1 4.1-1.1h.8c.2 0 .5-.1.9-.2s.7-.2.9-.2c.4 0 .7.1.8.4.1.1.1.4.1.9 0 .1 0 .4.1.6 0 .3.1.5.1.6 0 .4 0 .9-.1 1.7 0 .7-.1 1.3-.1 1.7 0 .5 0 1.2.1 2.2.1 1 .1 1.7.1 2.2 0 1.3-.1 2.8-.2 4.6-.3.6-.3 1-.3 1Zm-2.9-8.3V9.5c0-.4-.1-.7-.1-.8V7.5c0-.2-.1-.3-.2-.4h-.4c-1 0-1.9.3-2.7.8-.9.6-1.3 1.4-1.3 2.3 0 .8.2 1.5.7 2 .5.5 1.1.7 1.9.7.2 0 .5 0 .9-.1s.7-.1.9-.1c.2-.2.3-.7.3-1.5Z" fill="#E81212"/><path d="M115.8 23c0 .6-.2.9-.6.9-1.5 0-2.3-.5-2.3-1.6 0-.5 0-1.3-.1-2.4-.1-1.1-.1-1.9-.1-2.4 0-.4 0-1.1.1-1.9.1-.8.1-1.5.1-1.9 0-.4 0-1-.1-1.7-.1-.8-.1-1.3-.1-1.7 0-.4 0-1.1.1-1.9.1-.9.1-1.5.1-1.9-.2 0-.6.1-1 .2-1 .2-1.6.3-1.8.3H109v2.2c0 .8 0 2-.1 3.7 0 1.6-.1 2.8-.1 3.7v7.2c0 .1 0 .2-.1.3-.1 0-.1.1-.2.1s-.2 0-.3-.1h-.4c-.9 0-1.5-.2-1.7-.6-.2-.4-.4-1.3-.4-2.7 0-.8 0-2.1-.1-3.7 0-1.7-.1-2.9-.1-3.7 0-.7 0-1.7.1-3.1.1-1.4.1-2.4.1-3.1 0-.1-.1-.3-.2-.5-.2-.3-.2-.6-.2-.9 0-.8.1-1.3.3-1.5.2-.2.6-.3 1.1-.3.9 0 2.9-.3 6-.8.1-.4.4-.6 1-.6.2 0 .4 0 .7.1.3.1.6.1.7.1.1 0 .3.2.5.4.2.3.3.5.3.6 0 .1 0 .2-.1.4 0 .2-.1.4-.1.5 0 .1 0 .3.1.5 0 .2.1.4.1.5 0 .3 0 .7-.1 1.3 0 .6-.1 1-.1 1.3 0 .4 0 1.1.1 2 0 .9.1 1.6.1 2 0 1.2 0 2.9-.1 5.3.1 2.4 0 4.2 0 5.4Zm13.7-13.7c0 1.3-.3 2.6-1 3.8-.7 1.3-1.5 2.2-2.6 2.9-.7.3-1.6.7-2.9 1.3v2c0 .3 0 .7.1 1.2 0 .5.1.9.1 1.2 0 .2 0 .5-.1.8-.1.4-.1.6-.1.8 0 .1 0 .1.1.2s.1.2.1.3c0 .6-.3.9-.9.9-1.5 0-2.3-.6-2.4-1.9-.1-1.5-.1-3.9-.1-7v-11c0-.7.7-1.1 2.2-1.1h1.5c.7 0 1.3.1 1.8.2 1 .3 2 1 2.9 2.1.8 1.2 1.3 2.3 1.3 3.3Zm-3.7.1c0-.8-.1-1.4-.3-1.7-.3-.5-.8-.7-1.6-.7h-.4c-.2 0-.4.1-.4.2-.1.1-.1.6-.1 1.5v4.6c0 .4.1.6.3.6.8 0 1.4-.5 2-1.5.3-.9.5-1.9.5-3Zm16.4 14.3c0 .1-.1.2-.2.3-.1.1-.3.2-.4.2-.1 0-.1 0-.3-.1-.1 0-.2-.1-.3-.1-.1 0-.2 0-.4.1-.1.1-.3.1-.3.1-.6 0-1.1-.7-1.5-2 0-.2-.1-.4-.1-.7-.2-.9-.4-1.8-.7-2.5l-.3-.6h-.6c-2.1 0-3.2.1-3.3.4-.1.2-.2.7-.4 1.5-.2 1-.3 1.5-.4 1.7-.3 1-.5 1.8-.5 2.2 0 .7-.3 1-1 1-.4 0-.7 0-1.1-.1-.5-.1-.8-.4-.8-.6v-.4c0-.4.1-1.1.1-2 .4-3.3 1.2-7 2.6-11.2v-.1c.3-1.4.7-2.8 1-4.2.5-2.1.9-3.1 1.3-3.1.6 0 1.4.1 2.3.3 1.2.2 1.8.5 1.8.9v.2s0 .3.1.8c.2 1.2.5 2.9.9 5.2.4 1.9.6 3 .6 3.3 0 .6.1 1.5.4 2.5.2.9.4 1.9.6 2.9.1.7.3 1.7.5 3.1 0 .1.1.3.1.5.2.2.3.4.3.5Zm-4.6-8.5c0-.5-.1-1.2-.3-2.1-.3-1.3-.4-2-.4-2.1 0-.1 0-.3-.1-.5-.2-1.1-.4-1.7-.5-1.7 0 .1-.1.4-.2.9-1 3.6-1.6 5.6-1.6 5.8 0 .1.3.2.8.2h.8c.9.1 1.5-.1 1.5-.5Zm16.8 2.4c0 .8-.3 1.7-.8 2.7-.8 1.5-2.5 2.7-4.9 3.6-1.1.4-1.9.6-2.4.6-1.8 0-2.7-.8-2.7-2.5 0-.7.5-1.1 1.5-1.1.3 0 .5 0 .7.1.2.1.3.1.4.1 1 0 2.1-.4 3.2-1.2 1.2-.8 1.8-1.7 1.8-2.7 0-.7-.2-1.3-.7-1.9-.5-.5-1.1-.8-1.8-.8-.5 0-1 .1-1.4.4-.4.3-.7.4-.9.4-.5 0-.8-.1-1-.2-.2-.2-.3-.5-.3-.9 0-.7.1-1.2.4-1.5.3-.3.8-.6 1.5-1 1.3-.6 2-1 2.4-1.2 1-.6 1.6-1.2 1.8-1.8.1-.3.2-.7.2-1.2 0-.1-.1-.2-.3-.4-.2-.2-.5-.3-1-.3-.7 0-1.3.1-1.9.3-.6.2-1.1.5-1.8 1-.4.3-.6.4-.8.4-.1 0-.2-.1-.4-.2-.6-.6-.9-1.3-.9-2.1 0-.5.5-1 1.5-1.5.7-.3 1.4-.6 2.1-.8.6-.1 1.1-.2 1.5-.2 1.6 0 2.9.5 3.9 1.5.6.7 1 1.6 1 2.8 0 .7-.5 1.7-1.4 2.9-.3.4-.7.7-1.1 1-.4.2-.6.4-.6.5 0 0 .1.1.3.1.4.1 1 .4 1.7.9.7.8 1.2 2.3 1.2 4.2Zm15.7 4.8c0 .2 0 .9-.1 2.2-.1 1.3-.1 1.9-.1 2-.1.1-.4.2-.9.2-.2 0-.6-.1-1-.2-.5-.1-.8-.3-.8-.4 0-.1.2-1 .5-2.5-1.5.1-3.9.3-6.9.6-.7.1-1.9.2-3.3.4.1.7.2 1.4.2 2 0 .5-.4.8-1.3.8s-1.3-.1-1.3-.3c0-.3 0-.8.1-1.5s.1-1.2.1-1.5v-.3c-.1-.1-.1-.3-.1-.6 0-.8.6-1.2 1.8-1.2 1-4.9 1.8-8.7 2.5-11.3.2-.7.5-1.8.8-3.3.6-2.6 1-3.9 1.4-3.9.1 0 .3 0 .6.1 1.5.3 2.6.5 3.1.5.3 0 .4.1.5.2.1.4.1.9.2 1.5.2.9.4 2.2.7 4 0 .1.1.7.3 1.8.1.7.2 1.3.2 1.8 0 .6.1 1.8.3 3.7.2 2 .3 3.1.4 3.4.1.3.3.4.5.4h1.1c.4.1.6.3.7.6-.2.1-.2.4-.2.8Zm-5.1-1.3c0-.7-.1-1.7-.4-3.1-.2-1.3-.4-2.4-.4-3.1 0-.3-.1-.8-.2-1.5-.3-1.2-.7-2.9-1.2-4.9-.1.2-.3 1.1-.7 2.6-.2.9-.6 2.3-1 4.1-.2.9-.4 2.1-.8 3.9-.1.6-.3 1.4-.5 2.5h.2c.6 0 1.4-.1 2.5-.2 1.1-.2 1.9-.3 2.5-.3Zm16.8-6.1v2.6c0 .6 0 1.5-.1 2.7-.1 1.2-.1 2.1-.1 2.7 0 .3-.1.5-.2.6-.1.1-.3.2-.5.2-1.5 0-2.3-.5-2.3-1.5 0-.5 0-1.3-.1-2.4-.1-1.1 0-1.9 0-2.4 0-.2 0-.5.1-.8 0-.4.1-.6.1-.8 0-.5-.1-.8-.3-.8-.2 0-.5 0-.9.1s-.7.1-.9.1h-.3c-.6 0-1.1.1-1.4.2-.1 0-.1 1-.1 2.9v5.4c0 .3-.1.4-.4.4-.1 0-.2 0-.3-.1h-.6c-.9 0-1.5-.2-1.7-.6-.2-.5-.3-1.4-.3-2.7 0-.8 0-2.1-.1-3.7s-.1-2.9-.1-3.7c0-.7 0-1.5.1-2.5.1-1.4.1-2.2.1-2.5V5.7c0-.3.1-.6.3-1 .2-.4.4-.6.6-.6 1 0 1.6.1 1.8.3.3.2.4.8.4 1.7v5.7c0 .1 0 .2.1.2h1.4c.2 0 .5 0 .8-.1.4-.1.6-.1.8-.1h.4s.1-.1.1-.4c.1-1 .2-2.9.2-5.9 0-.2 0-.6-.1-1s-.1-.8-.1-1c0-.4.1-.7.2-.8.1-.1.4-.2.8-.2.5 0 1 .1 1.4.3.6.3.8.6.8 1v9.9c.4.5.4 1 .4 1.3Zm14.7 3.9c0 .4 0 1.1-.1 1.9-.1.8-.1 1.4-.1 1.8 0 .4 0 .7-.1.8-.1.1-.3.2-.6.2-.1 0-.3.1-.6.3-.3.1-.5.2-.8.2-.4 0-.7-.2-.8-.6-.1-.2-.1-.6-.1-1.2v-3.8c0-.4.1-1.6.2-3.8 0-.7.1-1.1.1-1.2 0-.4 0-.6-.1-.6s-.3.3-.6 1c-.1.3-.2.7-.4 1.3-.6 1.2-1.1 2.5-1.6 4s-1.2 3.1-1.9 4.6c-.4.7-.9 1.1-1.5 1.1-.3 0-.6-.1-.8-.3-.3-.2-.5-.3-.5-.3-.5 0-.7-1-.7-3.1 0-.7 0-1.8.1-3.2 0-1.4.1-2.5.1-3.2v-3.6c0-.6 0-1.5.1-2.7 0-1.2.1-2.1.1-2.7 0-.9.7-1.3 2.2-1.3.3 0 .5.1.6.2-.2.1-.2.4-.2.7 0 1.1 0 2.7.1 4.8.1 2.1.1 3.8.1 4.8v2.4c0 .2 0 .3.1.3.2 0 .4-.4.7-1.2.6-1.5 1.3-3.5 2-6 .3-1.2.7-2.4 1-3.5.6-1.9 1-2.9 1.2-3.1.2-.1.5-.2.9-.4.5-.1.8-.2 1-.2.2 0 .3 0 .4.1.1.1.2.9.3 2.4.1 1.3.1 2.2.1 2.7 0 .7 0 1.7-.1 3s-.1 2.3-.1 3c0 .5 0 1.2.1 2.2.1 1 .2 1.7.2 2.2Zm15.6-14c0 .3-.9 1.8-2.8 4.6-1.8 2.8-2.8 4.4-2.8 4.8 0 .1.9 1.4 2.6 4 1.7 2.6 2.6 4 2.6 4.3 0 .1-.2.4-.6.8-.4.4-.7.6-.8.6-.1 0-.5-.3-1-.8-.7-.7-1.6-1.8-2.5-3.1-1.3-1.8-2.1-2.8-2.4-3.2-.4-.4-.6-.6-.7-.6h-.1v.3c0 .1 0 .3.1.5 0 .2.1.4.1.5 0 .7 0 1.8-.1 3.5-.1 1.9-.2 2.9-.3 3.1-.1.2-.3.3-.4.3-.4 0-.9-.1-1.5-.3-.7-.3-1-.6-1-1v-4.6c0-.7 0-1.8.1-3.3.1-1.5.1-2.5.1-3.3V8.6c0-1.4.1-2.6.2-3.5.1-.9.2-1.3.4-1.3.4 0 .8 0 1.3.1.6.1 1 .3 1.2.5.1.2.2 1.7.3 4.5v.2c0 .3 0 .7-.1 1.3.1.6.1 1 .1 1.3 0 .6 0 .9.1.9s1.1-1.6 3-4.7 3-4.7 3.4-4.7c.2 0 .6.2 1.2.7 0 .5.3.8.3 1Zm12.4 18.8c0 .1-.1.2-.2.3-.2.1-.3.2-.4.2-.1 0-.1 0-.3-.1-.1 0-.2-.1-.3-.1-.1 0-.2 0-.4.1s-.3.1-.3.1c-.6 0-1.1-.7-1.5-2 0-.2-.1-.4-.1-.7-.2-.9-.4-1.8-.7-2.5l-.3-.6h-.6c-2.1 0-3.2.1-3.3.4-.1.2-.2.7-.4 1.5-.2 1-.3 1.5-.4 1.7-.3 1-.5 1.8-.5 2.2 0 .7-.3 1-1 1-.4 0-.7 0-1.1-.1-.5-.1-.8-.4-.8-.6v-.4c0-.4.1-1.1.1-2 .4-3.3 1.2-7 2.6-11.2v-.1c.3-1.4.7-2.8 1-4.2.5-2.1.9-3.1 1.3-3.1.6 0 1.4.1 2.3.3 1.2.2 1.8.5 1.8.9v.2s0 .3.1.8c.2 1.2.5 2.9.9 5.2.4 1.9.6 3 .6 3.3 0 .6.1 1.5.4 2.5.2.9.4 1.9.6 2.9.1.7.3 1.7.5 3.1 0 .1.1.3.1.5.3.2.3.4.3.5Zm-4.6-8.5c0-.5-.1-1.2-.3-2.1-.3-1.3-.4-2-.4-2.1 0-.1 0-.3-.1-.5-.2-1.1-.4-1.7-.5-1.7 0 .1-.1.4-.2.9-1 3.6-1.6 5.6-1.6 5.8 0 .1.3.2.8.2h.8c1 .1 1.5-.1 1.5-.5Z" fill="#fff" stroke="#fff" stroke-width="3.3" stroke-miterlimit="10" stroke-linecap="round" stroke-linejoin="round"/><path d="M115.8 23c0 .6-.2.9-.6.9-1.5 0-2.3-.5-2.3-1.6 0-.5 0-1.3-.1-2.4-.1-1.1-.1-1.9-.1-2.4 0-.4 0-1.1.1-1.9.1-.8.1-1.5.1-1.9 0-.4 0-1-.1-1.7-.1-.8-.1-1.3-.1-1.7 0-.4 0-1.1.1-1.9.1-.9.1-1.5.1-1.9-.2 0-.6.1-1 .2-1 .2-1.6.3-1.8.3H109v2.2c0 .8 0 2-.1 3.7 0 1.6-.1 2.8-.1 3.7v7.2c0 .1 0 .2-.1.3-.1 0-.1.1-.2.1s-.2 0-.3-.1h-.4c-.9 0-1.5-.2-1.7-.6-.2-.4-.4-1.3-.4-2.7 0-.8 0-2.1-.1-3.7 0-1.7-.1-2.9-.1-3.7 0-.7 0-1.7.1-3.1.1-1.4.1-2.4.1-3.1 0-.1-.1-.3-.2-.5-.2-.3-.2-.6-.2-.9 0-.8.1-1.3.3-1.5.2-.2.6-.3 1.1-.3.9 0 2.9-.3 6-.8.1-.4.4-.6 1-.6.2 0 .4 0 .7.1.3.1.6.1.7.1.1 0 .3.2.5.4.2.3.3.5.3.6 0 .1 0 .2-.1.4 0 .2-.1.4-.1.5 0 .1 0 .3.1.5 0 .2.1.4.1.5 0 .3 0 .7-.1 1.3 0 .6-.1 1-.1 1.3 0 .4 0 1.1.1 2 0 .9.1 1.6.1 2 0 1.2 0 2.9-.1 5.3.1 2.4 0 4.2 0 5.4Zm13.7-13.7c0 1.3-.3 2.6-1 3.8-.7 1.3-1.5 2.2-2.6 2.9-.7.3-1.6.7-2.9 1.3v2c0 .3 0 .7.1 1.2 0 .5.1.9.1 1.2 0 .2 0 .5-.1.8-.1.4-.1.6-.1.8 0 .1 0 .1.1.2s.1.2.1.3c0 .6-.3.9-.9.9-1.5 0-2.3-.6-2.4-1.9-.1-1.5-.1-3.9-.1-7v-11c0-.7.7-1.1 2.2-1.1h1.5c.7 0 1.3.1 1.8.2 1 .3 2 1 2.9 2.1.8 1.2 1.3 2.3 1.3 3.3Zm-3.7.1c0-.8-.1-1.4-.3-1.7-.3-.5-.8-.7-1.6-.7h-.4c-.2 0-.4.1-.4.2-.1.1-.1.6-.1 1.5v4.6c0 .4.1.6.3.6.8 0 1.4-.5 2-1.5.3-.9.5-1.9.5-3Zm16.4 14.3c0 .1-.1.2-.2.3-.1.1-.3.2-.4.2-.1 0-.1 0-.3-.1-.1 0-.2-.1-.3-.1-.1 0-.2 0-.4.1-.1.1-.3.1-.3.1-.6 0-1.1-.7-1.5-2 0-.2-.1-.4-.1-.7-.2-.9-.4-1.8-.7-2.5l-.3-.6h-.6c-2.1 0-3.2.1-3.3.4-.1.2-.2.7-.4 1.5-.2 1-.3 1.5-.4 1.7-.3 1-.5 1.8-.5 2.2 0 .7-.3 1-1 1-.4 0-.7 0-1.1-.1-.5-.1-.8-.4-.8-.6v-.4c0-.4.1-1.1.1-2 .4-3.3 1.2-7 2.6-11.2v-.1c.3-1.4.7-2.8 1-4.2.5-2.1.9-3.1 1.3-3.1.6 0 1.4.1 2.3.3 1.2.2 1.8.5 1.8.9v.2s0 .3.1.8c.2 1.2.5 2.9.9 5.2.4 1.9.6 3 .6 3.3 0 .6.1 1.5.4 2.5.2.9.4 1.9.6 2.9.1.7.3 1.7.5 3.1 0 .1.1.3.1.5.2.2.3.4.3.5Zm-4.6-8.5c0-.5-.1-1.2-.3-2.1-.3-1.3-.4-2-.4-2.1 0-.1 0-.3-.1-.5-.2-1.1-.4-1.7-.5-1.7 0 .1-.1.4-.2.9-1 3.6-1.6 5.6-1.6 5.8 0 .1.3.2.8.2h.8c.9.1 1.5-.1 1.5-.5Zm16.8 2.4c0 .8-.3 1.7-.8 2.7-.8 1.5-2.5 2.7-4.9 3.6-1.1.4-1.9.6-2.4.6-1.8 0-2.7-.8-2.7-2.5 0-.7.5-1.1 1.5-1.1.3 0 .5 0 .7.1.2.1.3.1.4.1 1 0 2.1-.4 3.2-1.2 1.2-.8 1.8-1.7 1.8-2.7 0-.7-.2-1.3-.7-1.9-.5-.5-1.1-.8-1.8-.8-.5 0-1 .1-1.4.4-.4.3-.7.4-.9.4-.5 0-.8-.1-1-.2-.2-.2-.3-.5-.3-.9 0-.7.1-1.2.4-1.5.3-.3.8-.6 1.5-1 1.3-.6 2-1 2.4-1.2 1-.6 1.6-1.2 1.8-1.8.1-.3.2-.7.2-1.2 0-.1-.1-.2-.3-.4-.2-.2-.5-.3-1-.3-.7 0-1.3.1-1.9.3-.6.2-1.1.5-1.8 1-.4.3-.6.4-.8.4-.1 0-.2-.1-.4-.2-.6-.6-.9-1.3-.9-2.1 0-.5.5-1 1.5-1.5.7-.3 1.4-.6 2.1-.8.6-.1 1.1-.2 1.5-.2 1.6 0 2.9.5 3.9 1.5.6.7 1 1.6 1 2.8 0 .7-.5 1.7-1.4 2.9-.3.4-.7.7-1.1 1-.4.2-.6.4-.6.5 0 0 .1.1.3.1.4.1 1 .4 1.7.9.7.8 1.2 2.3 1.2 4.2Zm15.7 4.8c0 .2 0 .9-.1 2.2-.1 1.3-.1 1.9-.1 2-.1.1-.4.2-.9.2-.2 0-.6-.1-1-.2-.5-.1-.8-.3-.8-.4 0-.1.2-1 .5-2.5-1.5.1-3.9.3-6.9.6-.7.1-1.9.2-3.3.4.1.7.2 1.4.2 2 0 .5-.4.8-1.3.8s-1.3-.1-1.3-.3c0-.3 0-.8.1-1.5s.1-1.2.1-1.5v-.3c-.1-.1-.1-.3-.1-.6 0-.8.6-1.2 1.8-1.2 1-4.9 1.8-8.7 2.5-11.3.2-.7.5-1.8.8-3.3.6-2.6 1-3.9 1.4-3.9.1 0 .3 0 .6.1 1.5.3 2.6.5 3.1.5.3 0 .4.1.5.2.1.4.1.9.2 1.5.2.9.4 2.2.7 4 0 .1.1.7.3 1.8.1.7.2 1.3.2 1.8 0 .6.1 1.8.3 3.7.2 2 .3 3.1.4 3.4.1.3.3.4.5.4h1.1c.4.1.6.3.7.6-.2.1-.2.4-.2.8Zm-5.1-1.3c0-.7-.1-1.7-.4-3.1-.2-1.3-.4-2.4-.4-3.1 0-.3-.1-.8-.2-1.5-.3-1.2-.7-2.9-1.2-4.9-.1.2-.3 1.1-.7 2.6-.2.9-.6 2.3-1 4.1-.2.9-.4 2.1-.8 3.9-.1.6-.3 1.4-.5 2.5h.2c.6 0 1.4-.1 2.5-.2 1.1-.2 1.9-.3 2.5-.3Zm16.8-6.1v2.6c0 .6 0 1.5-.1 2.7-.1 1.2-.1 2.1-.1 2.7 0 .3-.1.5-.2.6-.1.1-.3.2-.5.2-1.5 0-2.3-.5-2.3-1.5 0-.5 0-1.3-.1-2.4-.1-1.1 0-1.9 0-2.4 0-.2 0-.5.1-.8 0-.4.1-.6.1-.8 0-.5-.1-.8-.3-.8-.2 0-.5 0-.9.1s-.7.1-.9.1h-.3c-.6 0-1.1.1-1.4.2-.1 0-.1 1-.1 2.9v5.4c0 .3-.1.4-.4.4-.1 0-.2 0-.3-.1h-.6c-.9 0-1.5-.2-1.7-.6-.2-.5-.3-1.4-.3-2.7 0-.8 0-2.1-.1-3.7s-.1-2.9-.1-3.7c0-.7 0-1.5.1-2.5.1-1.4.1-2.2.1-2.5V5.7c0-.3.1-.6.3-1 .2-.4.4-.6.6-.6 1 0 1.6.1 1.8.3.3.2.4.8.4 1.7v5.7c0 .1 0 .2.1.2h1.4c.2 0 .5 0 .8-.1.4-.1.6-.1.8-.1h.4s.1-.1.1-.4c.1-1 .2-2.9.2-5.9 0-.2 0-.6-.1-1s-.1-.8-.1-1c0-.4.1-.7.2-.8.1-.1.4-.2.8-.2.5 0 1 .1 1.4.3.6.3.8.6.8 1v9.9c.4.5.4 1 .4 1.3Zm14.7 3.9c0 .4 0 1.1-.1 1.9-.1.8-.1 1.4-.1 1.8 0 .4 0 .7-.1.8-.1.1-.3.2-.6.2-.1 0-.3.1-.6.3-.3.1-.5.2-.8.2-.4 0-.7-.2-.8-.6-.1-.2-.1-.6-.1-1.2v-3.8c0-.4.1-1.6.2-3.8 0-.7.1-1.1.1-1.2 0-.4 0-.6-.1-.6s-.3.3-.6 1c-.1.3-.2.7-.4 1.3-.6 1.2-1.1 2.5-1.6 4s-1.2 3.1-1.9 4.6c-.4.7-.9 1.1-1.5 1.1-.3 0-.6-.1-.8-.3-.3-.2-.5-.3-.5-.3-.5 0-.7-1-.7-3.1 0-.7 0-1.8.1-3.2 0-1.4.1-2.5.1-3.2v-3.6c0-.6 0-1.5.1-2.7 0-1.2.1-2.1.1-2.7 0-.9.7-1.3 2.2-1.3.3 0 .5.1.6.2-.2.1-.2.4-.2.7 0 1.1 0 2.7.1 4.8.1 2.1.1 3.8.1 4.8v2.4c0 .2 0 .3.1.3.2 0 .4-.4.7-1.2.6-1.5 1.3-3.5 2-6 .3-1.2.7-2.4 1-3.5.6-1.9 1-2.9 1.2-3.1.2-.1.5-.2.9-.4.5-.1.8-.2 1-.2.2 0 .3 0 .4.1.1.1.2.9.3 2.4.1 1.3.1 2.2.1 2.7 0 .7 0 1.7-.1 3s-.1 2.3-.1 3c0 .5 0 1.2.1 2.2.1 1 .2 1.7.2 2.2Zm15.6-14c0 .3-.9 1.8-2.8 4.6-1.8 2.8-2.8 4.4-2.8 4.8 0 .1.9 1.4 2.6 4 1.7 2.6 2.6 4 2.6 4.3 0 .1-.2.4-.6.8-.4.4-.7.6-.8.6-.1 0-.5-.3-1-.8-.7-.7-1.6-1.8-2.5-3.1-1.3-1.8-2.1-2.8-2.4-3.2-.4-.4-.6-.6-.7-.6h-.1v.3c0 .1 0 .3.1.5 0 .2.1.4.1.5 0 .7 0 1.8-.1 3.5-.1 1.9-.2 2.9-.3 3.1-.1.2-.3.3-.4.3-.4 0-.9-.1-1.5-.3-.7-.3-1-.6-1-1v-4.6c0-.7 0-1.8.1-3.3.1-1.5.1-2.5.1-3.3V8.6c0-1.4.1-2.6.2-3.5.1-.9.2-1.3.4-1.3.4 0 .8 0 1.3.1.6.1 1 .3 1.2.5.1.2.2 1.7.3 4.5v.2c0 .3 0 .7-.1 1.3.1.6.1 1 .1 1.3 0 .6 0 .9.1.9s1.1-1.6 3-4.7 3-4.7 3.4-4.7c.2 0 .6.2 1.2.7 0 .5.3.8.3 1Zm12.4 18.8c0 .1-.1.2-.2.3-.2.1-.3.2-.4.2-.1 0-.1 0-.3-.1-.1 0-.2-.1-.3-.1-.1 0-.2 0-.4.1s-.3.1-.3.1c-.6 0-1.1-.7-1.5-2 0-.2-.1-.4-.1-.7-.2-.9-.4-1.8-.7-2.5l-.3-.6h-.6c-2.1 0-3.2.1-3.3.4-.1.2-.2.7-.4 1.5-.2 1-.3 1.5-.4 1.7-.3 1-.5 1.8-.5 2.2 0 .7-.3 1-1 1-.4 0-.7 0-1.1-.1-.5-.1-.8-.4-.8-.6v-.4c0-.4.1-1.1.1-2 .4-3.3 1.2-7 2.6-11.2v-.1c.3-1.4.7-2.8 1-4.2.5-2.1.9-3.1 1.3-3.1.6 0 1.4.1 2.3.3 1.2.2 1.8.5 1.8.9v.2s0 .3.1.8c.2 1.2.5 2.9.9 5.2.4 1.9.6 3 .6 3.3 0 .6.1 1.5.4 2.5.2.9.4 1.9.6 2.9.1.7.3 1.7.5 3.1 0 .1.1.3.1.5.3.2.3.4.3.5Zm-4.6-8.5c0-.5-.1-1.2-.3-2.1-.3-1.3-.4-2-.4-2.1 0-.1 0-.3-.1-.5-.2-1.1-.4-1.7-.5-1.7 0 .1-.1.4-.2.9-1 3.6-1.6 5.6-1.6 5.8 0 .1.3.2.8.2h.8c1 .1 1.5-.1 1.5-.5Z" fill="#E81212"/></svg>