<svg width="195" height="22" fill="none" xmlns="http://www.w3.org/2000/svg"><path d="M10.78 9.166c0 .583-.26 1.083-.87 1.417-.523 4.166-1.568 6.75-3.223 7.75-.61.333-1.22.583-1.742.583-1.132 0-2.09-.25-2.874-.75-.784-.5-1.132-1.5-1.132-3 0-.833.087-1.5.261-1.833.174-.417.61-.584 1.306-.584.436 0 .697.167.871.417.175.333.349.75.349 1.333.087.667.087 1.084.087 1.084.087.5.348.666.697.666.174 0 .435-.166.784-.583.696-.833 1.132-2.333 1.393-4.667-.348 0-.61-.083-.61-.083-.348 0-.61 0-.696.083-.175.084-.349.084-.523.084-.174 0-.348-.084-.523-.334-.174-.25-.26-.416-.26-.583 0-.167 0-.333-.088-.583 0-.25-.087-.417-.087-.584 0-.333.087-.5.348-.5.175 0 .436 0 .784.084.349 0 .61.083.784.083h.871V7.583c0-1.5-.174-2.667-.522-3.667-.088-.25-.349-.417-.697-.417-.697 0-1.307.5-1.83 1.417-.173.5-.348 1.083-.522 1.583-.261.667-.61 1-1.132 1-.436 0-.697-.166-.958-.5-.261-.333-.349-.666-.349-1.083 0-1.333.349-2.417 1.133-3.25.784-.833 1.829-1.25 3.222-1.25.61 0 1.307.167 1.916.417.697.25 1.133.583 1.481 1 .958 1 1.394 2.916 1.394 5.666.784 0 .958.25.958.667ZM21.842 11v2.166c0 .5 0 1.25-.087 2.25s-.087 1.75-.087 2.25c0 .25-.087.417-.174.5a.681.681 0 0 1-.436.167c-1.306 0-2.003-.417-2.003-1.25 0-.417 0-1.083-.087-2s-.087-1.583-.087-2c0-.167 0-.417.087-.667 0-.333.087-.5.087-.666 0-.417-.087-.667-.261-.667-.175 0-.436 0-.784.083-.349.084-.61.084-.784.084h-.261c-.523 0-.959.083-1.22.166-.087 0-.087.834-.087 2.417v4.5c0 .25-.087.333-.348.333-.087 0-.175 0-.262-.083-.087 0-.26-.083-.26-.083-.785 0-1.307-.167-1.482-.5-.174-.334-.348-1.084-.348-2.25 0-.667 0-1.75-.087-3.084 0-1.416-.087-2.416-.087-3.083 0-.583 0-1.25.087-2.083.087-1.167.087-1.834.087-2.084v-2.25c0-.25.087-.5.261-.833.087-.25.262-.417.523-.417.87 0 1.393.084 1.568.25.26.167.348.667.348 1.417v4.75c0 .083 0 .167.087.167h1.22c.174 0 .435 0 .696-.084.262-.083.523-.083.697-.083h.348s.088-.083.088-.333c.087-.834.174-2.417.174-4.917 0-.167 0-.5-.087-.833 0-.417-.087-.667-.087-.834 0-.333.087-.583.174-.666.087-.084.348-.167.697-.167.435 0 .87.083 1.219.25.522.25.697.5.697.833v8.25c.26.417.26.834.26 1.084Zm10.8 6.833c-.261.083-1.22.25-2.787.5-1.655.25-2.613.333-2.962.333-.087 0-.348-.083-.783-.333-.349-.167-.61-.333-.697-.5-.261-.333-.349-1.667-.349-4 0-2.667 0-4.833.088-6.5 0-1 .087-2.417.26-4.417.088-.5.175-.833.35-.916.086-.084.26-.084.435-.084.087 0 .261 0 .348.084.087.083.261.083.348.083.088 0 .175 0 .523-.083 1.132-.25 2.352-.417 3.484-.417.348 0 .697.25.958.75.261.417.348.833.348 1.25 0 .25-.26.417-.696.5-.61.083-1.655.167-2.962.333-.435.084-.696.167-.696.417 0 .333 0 .75-.087 1.333-.088.584-.088 1-.088 1.334 0 .583.088.916.262.916.087 0 .261 0 .522-.083.958-.083 1.83-.167 2.439-.167.871 0 1.306.584 1.306 1.667v.583c0 .167-.783.334-2.351.5-1.568.084-2.352.334-2.352.667 0 0 0 .083.087.167 0 .083.087.166.087.166v1.667c0 .167 0 .417-.087.833-.087.417-.087.667-.087.834 0 .333.087.5.262.5.087 0 .348 0 .696-.084.436-.083 1.133-.166 2.09-.25.349-.083.523-.083.61-.083.174 0 .436.083.697.333.174.167.348.417.436.584.087.166.174.416.174.75v.5c0 .083 0 .083.087.25.087 0 .087.083.087.083ZM43.79 6.25a6.007 6.007 0 0 1-.87 3.166c-.61 1.084-1.307 1.834-2.265 2.417-.61.25-1.394.583-2.526 1.083v1.667c0 .25 0 .583.087 1 0 .417.087.75.087 1 0 .167 0 .417-.087.667-.087.333-.087.5-.087.666 0 .084 0 .084.087.167s.087.167.087.25c0 .5-.261.75-.784.75-1.306 0-2.003-.5-2.09-1.583-.087-1.25-.087-3.25-.087-5.834V2.5c0-.584.61-.917 1.916-.917h1.306c.61 0 1.133.083 1.568.167.871.25 1.742.833 2.526 1.75.784 1 1.132 1.916 1.132 2.75Zm-3.135.083c0-.667-.087-1.167-.261-1.417-.262-.416-.697-.583-1.394-.583h-.435c-.175 0-.349.083-.349.167-.087.083-.087.5-.087 1.25v3.833c0 .333.087.5.261.5.697 0 1.22-.417 1.742-1.25.349-.75.523-1.583.523-2.5Zm12.715-2.5c0 .5-.173.75-.434.75h-4.007c-.174 0-.261.083-.261.333 0 .167 0 .417.087.75s.087.583.087.75c0 .25 0 .583-.087 1-.087.417-.087.833-.087 1 0 .5 0 1.083.087 1.75.087.5.087 1.5.087 3.083 0 .417 0 1.084-.087 1.917 0 .833-.087 1.5-.087 1.833 0 .417 0 .667-.087.834 0 .083-.088.25-.175.416.087.334-.174.334-.522.334-.261 0-.523-.084-1.045-.25-.523-.167-.784-.334-.784-.5v-3.917c0-.25 0-.667-.087-1.25 0-.583-.087-1-.087-1.25 0-.417 0-1.083.087-1.917 0-.833.087-1.5.087-1.916V2.666c0-.417.087-.583.261-.667a11.986 11.986 0 0 1 2.787-.333c2.003 0 3.136.083 3.397.333.61.667.87 1.167.87 1.834ZM64.868 14.25c0 .333 0 .916-.087 1.583-.088.667-.088 1.167-.088 1.5 0 .333 0 .583-.087.667-.087.083-.26.166-.522.166-.087 0-.262.084-.523.25-.174.084-.435.167-.61.167-.348 0-.61-.167-.696-.5-.087-.167-.087-.5-.087-1v-3.167c0-.333.087-1.333.174-3.166 0-.584.087-.917.087-1 0-.334 0-.5-.087-.5s-.261.25-.523.833c-.087.25-.174.583-.348 1.083-.523 1-.958 2.084-1.394 3.334-.435 1.25-1.045 2.583-1.654 3.833-.349.583-.784.917-1.307.917-.261 0-.523-.084-.697-.25-.261-.167-.435-.25-.522-.25-.436 0-.61-.834-.61-2.584 0-.583 0-1.5.087-2.666 0-1.167.087-2.084.087-2.667v-3c0-.5 0-1.25.087-2.25 0-1 .087-1.75.087-2.25 0-.75.61-1.083 1.917-1.083.26 0 .435.083.522.166.087.167.087.334.087.667 0 .917 0 2.25.087 4a77.15 77.15 0 0 1 .087 4v2c0 .167 0 .25.087.25.175 0 .349-.333.61-1 .523-1.25 1.133-2.917 1.742-5 .261-1 .61-2 .871-2.917.523-1.583.871-2.416 1.045-2.583.175-.083.436-.167.784-.333.436-.084.697-.167.871-.167.174 0 .261 0 .349.083.087.084.174.75.174 2a26.28 26.28 0 0 1 .087 2.25c0 .584 0 1.417-.087 2.5-.087 1.084-.087 1.917-.087 2.5 0 .417 0 1 .087 1.834.087.833 0 1.333 0 1.75Zm12.28.5c0 .333 0 .833.088 1.417 0 .666.087 1.083.087 1.416 0 .417-.087.667-.175.834-.174.166-.435.25-.783.25-1.133 0-1.742-.25-1.742-.667v-2.167c0-.416 0-1.166.087-2.083.087-.917.087-1.583.087-2.083 0-.084-.087-.167-.174-.167-.175 0-.349 0-.697.083a26.62 26.62 0 0 0-1.48 2.667l-.35.75c-.348.75-.696 1.5-1.132 2.25-.61 1.167-1.132 1.75-1.48 1.75-.261 0-.697-.167-1.22-.5-.522-.333-.783-.667-.783-.917 0-.166.087-.416.26-.666.698-.834 1.743-2.667 3.224-5.334-.697-.166-1.22-.333-1.481-.583-.697-.583-1.132-1.167-1.307-1.667-.174-.416-.26-1.083-.26-2 0-2.25.957-3.75 2.873-4.583 1.394-.583 2.613-.917 3.571-.917h.697c.174 0 .435-.083.784-.166.348-.084.61-.167.784-.167.348 0 .61.083.697.333.087.084.087.334.087.75 0 .084 0 .334.087.5 0 .25.087.417.087.5 0 .334 0 .75-.087 1.417 0 .583-.087 1.083-.087 1.417 0 .416 0 1 .087 1.833s.087 1.417.087 1.833c0 1.084-.087 2.334-.174 3.834-.262.5-.262.833-.262.833Zm-2.525-6.917V6.417c0-.334-.088-.584-.088-.667v-1c0-.167-.087-.25-.174-.333h-.348c-.871 0-1.655.25-2.352.666-.784.5-1.132 1.167-1.132 1.917 0 .667.174 1.25.61 1.667.435.416.958.583 1.654.583.175 0 .436 0 .784-.083.349-.084.61-.084.784-.084.174-.166.262-.583.262-1.25Zm25.17 9.833c0 .5-.174.75-.522.75-1.306 0-2.003-.417-2.003-1.333 0-.417 0-1.084-.087-2-.087-.917-.087-1.584-.087-2 0-.334 0-.917.087-1.584.087-.666.087-1.25.087-1.583 0-.333 0-.833-.087-1.417-.087-.666-.087-1.083-.087-1.416 0-.334 0-.917.087-1.584.087-.75.087-1.25.087-1.583-.174 0-.523.083-.871.167-.871.166-1.394.25-1.568.25h-.958v1.833c0 .667 0 1.667-.087 3.083 0 1.334-.087 2.334-.087 3.084v6c0 .083 0 .166-.087.25-.087 0-.087.083-.174.083-.088 0-.175 0-.262-.083h-.348c-.784 0-1.307-.167-1.48-.5-.175-.334-.35-1.084-.35-2.25 0-.667 0-1.75-.086-3.084 0-1.416-.087-2.416-.087-3.083 0-.583 0-1.417.087-2.583.087-1.167.087-2 .087-2.584 0-.083-.087-.25-.174-.416-.175-.25-.175-.5-.175-.75 0-.667.088-1.084.262-1.25.174-.167.522-.25.958-.25.784 0 2.526-.25 5.226-.667.087-.333.348-.5.87-.5.175 0 .349 0 .61.083.261.084.523.084.61.084.087 0 .261.166.435.333.174.25.262.417.262.5 0 .083 0 .167-.088.333 0 .167-.087.334-.087.417 0 .083 0 .25.087.417 0 .166.088.333.088.416 0 .25 0 .584-.088 1.084 0 .5-.087.833-.087 1.083 0 .333 0 .917.087 1.667 0 .75.088 1.333.088 1.666 0 1 0 2.417-.088 4.417.088 2 0 3.5 0 4.5ZM111.726 6.25a6.004 6.004 0 0 1-.871 3.166c-.61 1.084-1.307 1.834-2.265 2.417-.609.25-1.393.583-2.525 1.083v1.667c0 .25 0 .583.087 1 0 .417.087.75.087 1 0 .167 0 .417-.087.667-.087.333-.087.5-.087.666 0 .084 0 .084.087.167s.087.167.087.25c0 .5-.262.75-.784.75-1.307 0-2.003-.5-2.09-1.583-.088-1.25-.088-3.25-.088-5.834V2.5c0-.584.61-.917 1.917-.917h1.306a8.1 8.1 0 0 1 1.568.167c.871.25 1.742.833 2.526 1.75.696 1 1.132 1.916 1.132 2.75Zm-3.223.083c0-.667-.087-1.167-.261-1.417-.261-.416-.697-.583-1.394-.583h-.348c-.174 0-.348.083-.348.167-.087.083-.087.5-.087 1.25v3.833c0 .333.087.5.261.5.697 0 1.219-.417 1.742-1.25.261-.75.435-1.583.435-2.5Zm14.284 11.917c0 .083-.087.166-.174.25-.087.083-.261.166-.349.166-.087 0-.087 0-.261-.083-.087 0-.174-.084-.261-.084-.087 0-.174 0-.348.084-.088.083-.262.083-.262.083-.522 0-.958-.583-1.306-1.667 0-.166-.087-.333-.087-.583-.175-.75-.349-1.5-.61-2.083l-.261-.5h-.523c-1.829 0-2.787.083-2.874.333-.087.167-.174.583-.348 1.25-.175.833-.262 1.25-.349 1.417-.261.833-.435 1.5-.435 1.833 0 .583-.262.833-.871.833-.349 0-.61 0-.958-.083-.436-.083-.697-.333-.697-.5v-.333c0-.334.087-.917.087-1.667.348-2.75 1.045-5.833 2.264-9.333v-.084c.262-1.166.61-2.333.871-3.5.436-1.75.784-2.583 1.133-2.583.522 0 1.219.083 2.003.25 1.045.167 1.568.417 1.568.75v.167s0 .25.087.666c.174 1 .435 2.417.784 4.334.348 1.583.522 2.5.522 2.75 0 .5.087 1.25.349 2.083.174.75.348 1.583.522 2.417.087.583.261 1.416.436 2.583 0 .083.087.25.087.417.174.166.261.333.261.416Zm-4.006-7.084c0-.417-.087-1-.262-1.75-.261-1.083-.348-1.667-.348-1.75 0-.083 0-.25-.087-.417-.174-.916-.349-1.416-.436-1.416 0 .083-.087.333-.174.75-.871 3-1.393 4.666-1.393 4.833 0 .083.261.167.696.167h.697c.784.083 1.307-.084 1.307-.417Zm14.632 2c0 .667-.261 1.417-.697 2.25-.697 1.25-2.177 2.25-4.268 3-.958.334-1.654.5-2.09.5-1.568 0-2.352-.666-2.352-2.083 0-.583.436-.917 1.307-.917.261 0 .435 0 .61.084a.684.684 0 0 0 .348.083c.871 0 1.829-.333 2.787-1 1.045-.667 1.568-1.417 1.568-2.25 0-.583-.174-1.083-.61-1.583-.435-.417-.958-.667-1.568-.667-.435 0-.871.083-1.219.333-.348.25-.61.334-.784.334-.435 0-.697-.084-.871-.167-.174-.167-.261-.417-.261-.75 0-.583.087-1 .348-1.25.262-.25.697-.5 1.307-.833 1.132-.5 1.742-.834 2.09-1 .871-.5 1.394-1 1.568-1.5a2.99 2.99 0 0 0 .174-1c0-.084-.087-.167-.261-.334-.174-.166-.436-.25-.871-.25-.61 0-1.133.084-1.655.25-.523.167-.958.417-1.568.834-.348.25-.522.333-.697.333-.087 0-.174-.083-.348-.167-.523-.5-.784-1.083-.784-1.75 0-.416.436-.833 1.307-1.25.609-.25 1.219-.5 1.829-.666.522-.084.958-.167 1.306-.167 1.394 0 2.526.417 3.397 1.25.522.583.871 1.333.871 2.333 0 .584-.436 1.417-1.22 2.417-.261.333-.609.583-.958.833-.348.167-.522.334-.522.417 0 0 .087.083.261.083.348.084.871.334 1.481.75.609.667 1.045 1.917 1.045 3.5Zm13.674 4.001c0 .166 0 .75-.087 1.833s-.087 1.583-.087 1.667c-.087.083-.349.166-.784.166-.174 0-.523-.083-.871-.166-.435-.084-.697-.25-.697-.334 0-.083.174-.833.436-2.083-1.307.083-3.397.25-6.01.5-.61.083-1.655.167-2.874.333.087.584.174 1.167.174 1.667 0 .417-.348.667-1.132.667-.784 0-1.132-.084-1.132-.25 0-.25 0-.667.087-1.25.087-.584.087-1 .087-1.25v-.25c-.087-.084-.087-.25-.087-.5 0-.667.522-1 1.567-1 .871-4.084 1.568-7.25 2.178-9.417.174-.583.435-1.5.697-2.75.522-2.167.871-3.25 1.219-3.25.087 0 .261 0 .523.083 1.306.25 2.264.417 2.7.417.261 0 .348.083.435.167.087.333.087.75.174 1.25.174.75.349 1.833.61 3.333 0 .083.087.583.261 1.5.087.583.174 1.083.174 1.5 0 .5.087 1.5.262 3.083.174 1.667.261 2.584.348 2.834.087.25.261.333.436.333h.958c.348.083.522.25.609.5-.174.083-.174.333-.174.667Zm-4.442-1.084c0-.583-.087-1.416-.348-2.583-.174-1.083-.349-2-.349-2.583 0-.25-.087-.667-.174-1.25-.261-1-.61-2.417-1.045-4.084-.087.167-.261.917-.61 2.167-.174.75-.522 1.917-.871 3.417-.174.75-.348 1.75-.696 3.25-.088.5-.262 1.166-.436 2.083h.174c.523 0 1.22-.083 2.178-.167.958-.166 1.655-.25 2.177-.25ZM157.277 11v2.166c0 .5 0 1.25-.087 2.25s-.087 1.75-.087 2.25c0 .25-.087.417-.174.5a.68.68 0 0 1-.435.167c-1.307 0-2.004-.417-2.004-1.25 0-.417 0-1.083-.087-2s0-1.583 0-2c0-.167 0-.417.087-.667 0-.333.087-.5.087-.666 0-.417-.087-.667-.261-.667-.174 0-.435 0-.784.083-.348.084-.609.084-.784.084h-.261a4.22 4.22 0 0 0-1.219.166c-.087 0-.087.834-.087 2.417v4.5c0 .25-.087.333-.349.333-.087 0-.174 0-.261-.083h-.523c-.783 0-1.306-.167-1.48-.5-.174-.417-.262-1.167-.262-2.25 0-.667 0-1.75-.087-3.083-.087-1.334-.087-2.417-.087-3.084 0-.583 0-1.25.087-2.083.087-1.167.087-1.833.087-2.083V3.25c0-.25.088-.5.262-.834.174-.333.348-.5.522-.5.871 0 1.394.084 1.568.25.261.167.348.667.348 1.417v4.75c0 .083 0 .167.088.167h1.219c.174 0 .435 0 .697-.084.348-.083.522-.083.696-.083h.349s.087-.083.087-.333c.087-.834.174-2.417.174-4.917 0-.167 0-.5-.087-.833-.087-.334-.087-.667-.087-.834 0-.333.087-.583.174-.666.087-.084.349-.167.697-.167.435 0 .871.083 1.219.25.523.25.697.5.697.833v8.25c.348.417.348.834.348 1.084Zm12.804 3.25c0 .333 0 .917-.087 1.583-.088.667-.088 1.167-.088 1.5 0 .334 0 .584-.087.667-.087.083-.261.167-.522.167-.087 0-.262.083-.523.25-.261.083-.435.166-.697.166-.348 0-.609-.166-.696-.5-.087-.166-.087-.5-.087-1v-3.166c0-.334.087-1.334.174-3.167 0-.583.087-.917.087-1 0-.333 0-.5-.087-.5s-.262.25-.523.833c-.087.25-.174.584-.348 1.084-.523 1-.958 2.083-1.394 3.333-.435 1.25-1.045 2.583-1.655 3.833-.348.584-.783.917-1.306.917-.261 0-.523-.083-.697-.25-.261-.167-.435-.25-.435-.25-.436 0-.61-.833-.61-2.583 0-.584 0-1.5.087-2.667 0-1.167.087-2.083.087-2.667v-3c0-.5 0-1.25.087-2.25 0-1 .087-1.75.087-2.25 0-.75.61-1.083 1.917-1.083.261 0 .435.083.522.167-.174.083-.174.333-.174.583 0 .917 0 2.25.087 4s.087 3.167.087 4v2c0 .167 0 .25.087.25.174 0 .349-.333.61-1 .522-1.25 1.132-2.917 1.742-5 .261-1 .609-2 .871-2.917.522-1.583.871-2.416 1.045-2.583.174-.083.435-.167.784-.333.435-.084.697-.167.871-.167.174 0 .261 0 .348.083.087.084.174.75.261 2 .088 1.084.088 1.834.088 2.25 0 .584 0 1.417-.088 2.5-.087 1.084-.087 1.917-.087 2.5 0 .417 0 1 .087 1.834.088.833.175 1.416.175 1.833Zm13.587-11.667c0 .25-.784 1.5-2.439 3.833-1.568 2.333-2.439 3.667-2.439 4 0 .083.784 1.167 2.265 3.333 1.48 2.167 2.264 3.334 2.264 3.584 0 .083-.174.333-.522.666-.349.334-.61.5-.697.5-.087 0-.435-.25-.871-.666-.61-.584-1.394-1.5-2.177-2.584-1.133-1.5-1.829-2.333-2.091-2.666-.348-.334-.522-.5-.609-.5h-.087v.25c0 .083 0 .25.087.416 0 .167.087.334.087.417 0 .583 0 1.5-.087 2.917-.087 1.583-.175 2.416-.262 2.583-.087.167-.261.25-.348.25-.348 0-.784-.083-1.307-.25-.609-.25-.87-.5-.87-.833v-3.834c0-.583 0-1.5.087-2.75s.087-2.083.087-2.75V5.666c0-1.167.087-2.167.174-2.917s.174-1.083.348-1.083c.349 0 .697 0 1.133.083.522.084.871.25 1.045.417.087.167.174 1.417.261 3.75v.167c0 .25 0 .583-.087 1.083.087.5.087.833.087 1.083 0 .5 0 .75.087.75s.958-1.333 2.613-3.916c1.655-2.584 2.613-3.917 2.961-3.917.174 0 .523.167 1.045.583 0 .417.262.667.262.834Zm10.8 15.667c0 .083-.087.166-.174.25-.175.083-.262.166-.349.166-.087 0-.087 0-.261-.083-.087 0-.174-.084-.261-.084-.088 0-.175 0-.349.084a.698.698 0 0 1-.261.083c-.523 0-.958-.583-1.307-1.667 0-.166-.087-.333-.087-.583-.174-.75-.348-1.5-.609-2.083l-.262-.5h-.522c-1.829 0-2.787.083-2.874.333-.088.167-.175.583-.349 1.25-.174.833-.261 1.25-.348 1.417-.261.833-.436 1.5-.436 1.833 0 .583-.261.833-.871.833-.348 0-.609 0-.958-.083-.435-.083-.696-.333-.696-.5v-.333c0-.334.087-.917.087-1.667.348-2.75 1.045-5.833 2.264-9.333v-.084c.261-1.166.61-2.333.871-3.5.436-1.75.784-2.583 1.132-2.583.523 0 1.22.083 2.004.25 1.045.167 1.567.417 1.567.75v.167s0 .25.087.666c.175 1 .436 2.417.784 4.334.349 1.583.523 2.5.523 2.75 0 .5.087 1.25.348 2.083.174.75.349 1.583.523 2.417.087.583.261 1.416.435 2.583 0 .083.087.25.087.417.262.166.262.333.262.416Zm-4.007-7.084c0-.417-.087-1-.261-1.75-.261-1.083-.348-1.667-.348-1.75 0-.083 0-.25-.088-.417-.174-.916-.348-1.416-.435-1.416 0 .083-.087.333-.174.75-.871 3-1.394 4.666-1.394 4.833 0 .083.262.167.697.167h.697c.871.083 1.306-.084 1.306-.417Z" fill="#fff"/></svg>