<svg width="195" height="22" viewBox="0 0 195 22" fill="none" xmlns="http://www.w3.org/2000/svg">
<path d="M10.7807 9.16602C10.7807 9.74935 10.5194 10.2493 9.90969 10.5827C9.38711 14.7493 8.34195 17.3327 6.68711 18.3327C6.07743 18.666 5.46775 18.916 4.94517 18.916C3.81291 18.916 2.85485 18.666 2.07098 18.166C1.28711 17.666 0.938719 16.666 0.938719 15.166C0.938719 14.3327 1.02582 13.666 1.20001 13.3327C1.3742 12.916 1.80969 12.7493 2.50646 12.7493C2.94195 12.7493 3.20324 12.916 3.37743 13.166C3.55162 13.4993 3.72582 13.916 3.72582 14.4993C3.81291 15.166 3.81291 15.5827 3.81291 15.5827C3.90001 16.0827 4.1613 16.2493 4.50969 16.2493C4.68388 16.2493 4.94517 16.0827 5.29356 15.666C5.99033 14.8327 6.42582 13.3327 6.68711 10.9993C6.33872 10.9993 6.07743 10.916 6.07743 10.916C5.72904 10.916 5.46775 10.916 5.38065 10.9993C5.20646 11.0827 5.03227 11.0827 4.85807 11.0827C4.68388 11.0827 4.50969 10.9993 4.33549 10.7493C4.1613 10.4993 4.0742 10.3327 4.0742 10.166C4.0742 9.99935 4.0742 9.83268 3.98711 9.58268C3.98711 9.33268 3.90001 9.16602 3.90001 8.99935C3.90001 8.66602 3.98711 8.49935 4.2484 8.49935C4.42259 8.49935 4.68388 8.49935 5.03227 8.58268C5.38065 8.58268 5.64194 8.66602 5.81614 8.66602H6.68711V7.58268C6.68711 6.08268 6.51291 4.91602 6.16453 3.91602C6.07743 3.66602 5.81614 3.49935 5.46775 3.49935C4.77098 3.49935 4.1613 3.99935 3.63872 4.91602C3.46453 5.41602 3.29033 5.99935 3.11614 6.49935C2.85485 7.16602 2.50646 7.49935 1.98388 7.49935C1.5484 7.49935 1.28711 7.33268 1.02582 6.99935C0.764526 6.66602 0.677429 6.33268 0.677429 5.91602C0.677429 4.58268 1.02582 3.49935 1.80969 2.66602C2.59356 1.83268 3.63872 1.41602 5.03227 1.41602C5.64195 1.41602 6.33872 1.58268 6.9484 1.83268C7.64517 2.08268 8.08065 2.41602 8.42904 2.83268C9.38711 3.83268 9.82259 5.74935 9.82259 8.49935C10.6065 8.49935 10.7807 8.74935 10.7807 9.16602Z" fill="white"/>
<path d="M21.8419 10.9997C21.8419 11.2497 21.8419 11.583 21.8419 12.083C21.8419 12.583 21.8419 12.9163 21.8419 13.1663C21.8419 13.6663 21.8419 14.4163 21.7548 15.4163C21.6677 16.4163 21.6677 17.1663 21.6677 17.6663C21.6677 17.9163 21.5806 18.083 21.4935 18.1663C21.4064 18.2497 21.2322 18.333 21.058 18.333C19.7516 18.333 19.0548 17.9163 19.0548 17.083C19.0548 16.6663 19.0548 15.9997 18.9677 15.083C18.8806 14.1663 18.8806 13.4997 18.8806 13.083C18.8806 12.9163 18.8806 12.6663 18.9677 12.4163C18.9677 12.083 19.0548 11.9163 19.0548 11.7497C19.0548 11.333 18.9677 11.083 18.7935 11.083C18.6193 11.083 18.358 11.083 18.0097 11.1663C17.6613 11.2497 17.4 11.2497 17.2258 11.2497H17.1387C17.0516 11.2497 17.0516 11.2497 16.9645 11.2497C16.4419 11.2497 16.0064 11.333 15.7451 11.4163C15.658 11.4163 15.658 12.2497 15.658 13.833C15.658 14.083 15.658 14.4997 15.658 14.9997C15.658 15.4997 15.658 15.9163 15.658 16.1663C15.658 16.2497 15.658 16.333 15.658 16.4163C15.658 16.4997 15.658 16.6663 15.658 16.6663C15.658 16.7497 15.658 16.9997 15.658 17.2497C15.658 17.4997 15.658 17.6663 15.658 17.833C15.658 17.9163 15.658 17.9163 15.658 18.083C15.658 18.1663 15.658 18.2497 15.658 18.333C15.658 18.583 15.5709 18.6663 15.3096 18.6663C15.2226 18.6663 15.1355 18.6663 15.0484 18.583C14.9613 18.583 14.7871 18.4997 14.7871 18.4997C14.0032 18.4997 13.4806 18.333 13.3064 17.9997C13.1322 17.6663 12.958 16.9163 12.958 15.7497C12.958 15.083 12.958 13.9997 12.8709 12.6663C12.8709 11.2497 12.7838 10.2497 12.7838 9.58301C12.7838 8.99967 12.7838 8.33301 12.8709 7.49967C12.958 6.33301 12.958 5.66634 12.958 5.41634C12.958 4.91634 12.958 4.16634 12.958 3.16634C12.958 2.91634 13.0451 2.66634 13.2193 2.33301C13.3064 2.08301 13.4806 1.91634 13.7419 1.91634C14.6129 1.91634 15.1355 1.99967 15.3096 2.16634C15.5709 2.33301 15.658 2.83301 15.658 3.58301C15.658 3.83301 15.658 4.16634 15.658 4.58301C15.658 4.99967 15.658 5.33301 15.658 5.58301C15.658 5.83301 15.658 6.16634 15.658 6.58301C15.658 6.99967 15.658 7.33301 15.658 7.58301C15.658 7.66634 15.658 7.83301 15.658 7.99967C15.658 8.16634 15.658 8.33301 15.658 8.33301C15.658 8.41634 15.658 8.49967 15.7451 8.49967C15.8322 8.49967 16.0064 8.49967 16.1806 8.49967C16.3548 8.49967 16.529 8.49967 16.6161 8.49967C16.6161 8.49967 16.7032 8.49967 16.7903 8.49967C16.8774 8.49967 16.9645 8.49967 16.9645 8.49967C17.1387 8.49967 17.4 8.49967 17.6613 8.41634C17.9226 8.33301 18.1838 8.33301 18.358 8.33301C18.4451 8.33301 18.4451 8.33301 18.5322 8.33301C18.6193 8.33301 18.7064 8.33301 18.7064 8.33301C18.7064 8.33301 18.7935 8.24967 18.7935 7.99967C18.8806 7.16634 18.9677 5.58301 18.9677 3.08301C18.9677 2.91634 18.9677 2.58301 18.8806 2.24967C18.8806 1.83301 18.7935 1.58301 18.7935 1.41634C18.7935 1.08301 18.8806 0.833008 18.9677 0.749674C19.0548 0.666341 19.3161 0.583008 19.6645 0.583008C20.1 0.583008 20.5355 0.666341 20.8838 0.833008C21.4064 1.08301 21.5806 1.33301 21.5806 1.66634C21.5806 1.74967 21.5806 1.91634 21.5806 2.08301C21.5806 2.24967 21.5806 2.41634 21.5806 2.49967C21.5806 2.58301 21.5806 2.83301 21.5806 3.08301C21.5806 3.33301 21.5806 3.49967 21.5806 3.66634C21.5806 3.91634 21.5806 4.24967 21.5806 4.66634C21.5806 5.08301 21.5806 5.41634 21.5806 5.66634C21.5806 5.99967 21.5806 6.58301 21.5806 7.24967C21.5806 7.99967 21.5806 8.49967 21.5806 8.83301C21.5806 9.08301 21.5806 9.41634 21.5806 9.91634C21.8419 10.333 21.8419 10.7497 21.8419 10.9997Z" fill="white"/>
<path d="M32.6419 17.833C32.3806 17.9163 31.4226 18.083 29.8548 18.333C28.2 18.583 27.2419 18.6663 26.8935 18.6663C26.8064 18.6663 26.5452 18.583 26.1097 18.333C25.7613 18.1663 25.5 17.9997 25.4129 17.833C25.1516 17.4997 25.0645 16.1663 25.0645 13.833C25.0645 11.1663 25.0645 8.99967 25.1516 7.33301C25.1516 6.33301 25.2387 4.91634 25.4129 2.91634C25.5 2.41634 25.5871 2.08301 25.7613 1.99967C25.8484 1.91634 26.0226 1.91634 26.1968 1.91634C26.2839 1.91634 26.4581 1.91634 26.5452 1.99967C26.6323 2.08301 26.8064 2.08301 26.8935 2.08301C26.9806 2.08301 27.0677 2.08301 27.4161 1.99967C28.5484 1.74967 29.7677 1.58301 30.9 1.58301C31.2484 1.58301 31.5968 1.83301 31.8581 2.33301C32.1194 2.74967 32.2065 3.16634 32.2065 3.58301C32.2065 3.83301 31.9452 3.99967 31.5097 4.08301C30.9 4.16634 29.8548 4.24967 28.5484 4.41634C28.1129 4.49967 27.8516 4.58301 27.8516 4.83301C27.8516 5.16634 27.8516 5.58301 27.7645 6.16634C27.6774 6.74967 27.6774 7.16634 27.6774 7.49967C27.6774 8.08301 27.7645 8.41634 27.9387 8.41634C28.0258 8.41634 28.2 8.41634 28.4613 8.33301C29.4194 8.24968 30.2903 8.16634 30.9 8.16634C31.771 8.16634 32.2065 8.74967 32.2065 9.83301C32.2065 9.91634 32.2065 9.99967 32.2065 10.083C32.2065 10.2497 32.2065 10.333 32.2065 10.4163C32.2065 10.583 31.4226 10.7497 29.8548 10.9163C28.2871 10.9997 27.5032 11.2497 27.5032 11.583C27.5032 11.583 27.5032 11.6663 27.5903 11.7497C27.5903 11.833 27.6774 11.9163 27.6774 11.9163C27.6774 12.083 27.6774 12.333 27.6774 12.7497C27.6774 13.083 27.6774 13.4163 27.6774 13.583C27.6774 13.7497 27.6774 13.9997 27.5903 14.4163C27.5032 14.833 27.5032 15.083 27.5032 15.2497C27.5032 15.583 27.5903 15.7497 27.7645 15.7497C27.8516 15.7497 28.1129 15.7497 28.4613 15.6663C28.8968 15.583 29.5935 15.4997 30.5516 15.4163C30.9 15.333 31.0742 15.333 31.1613 15.333C31.3355 15.333 31.5968 15.4163 31.8581 15.6663C32.0323 15.833 32.2064 16.083 32.2935 16.2497C32.3806 16.4163 32.4677 16.6663 32.4677 16.9997C32.4677 17.083 32.4677 17.083 32.4677 17.2497C32.4677 17.333 32.4677 17.4163 32.4677 17.4997C32.4677 17.583 32.4677 17.583 32.5548 17.7497C32.6419 17.7497 32.6419 17.833 32.6419 17.833Z" fill="white"/>
<path d="M43.7903 6.24967C43.7903 7.33301 43.529 8.41634 42.9193 9.41634C42.3097 10.4997 41.6129 11.2497 40.6548 11.833C40.0451 12.083 39.2613 12.4163 38.129 12.9163V14.583C38.129 14.833 38.129 15.1663 38.2161 15.583C38.2161 15.9997 38.3032 16.333 38.3032 16.583C38.3032 16.7497 38.3032 16.9997 38.2161 17.2497C38.129 17.583 38.129 17.7497 38.129 17.9163C38.129 17.9997 38.129 17.9997 38.2161 18.083C38.3032 18.1663 38.3032 18.2497 38.3032 18.333C38.3032 18.833 38.0419 19.083 37.5193 19.083C36.2129 19.083 35.5161 18.583 35.429 17.4997C35.3419 16.2497 35.3419 14.2497 35.3419 11.6663C35.3419 11.2497 35.3419 10.583 35.3419 9.74967C35.3419 8.91634 35.3419 8.24967 35.3419 7.83301C35.3419 7.24967 35.3419 6.33301 35.3419 5.16634C35.3419 3.99967 35.3419 3.08301 35.3419 2.49967C35.3419 1.91634 35.9516 1.58301 37.258 1.58301H38.5645C39.1742 1.58301 39.6968 1.66634 40.1322 1.74967C41.0032 1.99967 41.8742 2.58301 42.658 3.49967C43.4419 4.49967 43.7903 5.41634 43.7903 6.24967ZM40.6548 6.33301C40.6548 5.66634 40.5677 5.16634 40.3935 4.91634C40.1322 4.49967 39.6968 4.33301 39 4.33301H38.5645C38.3903 4.33301 38.2161 4.41634 38.2161 4.49967C38.129 4.58301 38.129 4.99967 38.129 5.74967C38.129 5.83301 38.129 6.08301 38.129 6.33301C38.129 6.58301 38.129 6.74967 38.129 6.91634C38.129 6.99967 38.129 7.16634 38.129 7.41634C38.129 7.66634 38.129 7.83301 38.129 7.91634C38.129 7.99967 38.129 8.16634 38.129 8.41634C38.129 8.66634 38.129 8.83301 38.129 8.91634C38.129 8.99967 38.129 9.08301 38.129 9.24967C38.129 9.41634 38.129 9.49967 38.129 9.58301C38.129 9.91634 38.2161 10.083 38.3903 10.083C39.0871 10.083 39.6097 9.66634 40.1322 8.83301C40.4806 8.08301 40.6548 7.24967 40.6548 6.33301Z" fill="white"/>
<path d="M53.3709 3.83268C53.3709 4.33268 53.1967 4.58268 52.9355 4.58268C52.6742 4.58268 52.3258 4.58268 51.8032 4.58268C51.2806 4.58268 50.9322 4.58268 50.6709 4.58268C50.4967 4.58268 50.2355 4.58268 49.8 4.58268C49.4516 4.58268 49.1032 4.58268 48.929 4.58268C48.7548 4.58268 48.6677 4.66602 48.6677 4.91602C48.6677 5.08268 48.6677 5.33268 48.7548 5.66602C48.8419 5.99935 48.8419 6.24935 48.8419 6.41602C48.8419 6.66602 48.8419 6.99935 48.7548 7.41602C48.6677 7.83268 48.6677 8.24935 48.6677 8.41602C48.6677 8.91602 48.6677 9.49935 48.7548 10.166C48.8419 10.666 48.8419 11.666 48.8419 13.2493C48.8419 13.666 48.8419 14.3327 48.7548 15.166C48.7548 15.9993 48.6677 16.666 48.6677 16.9993C48.6677 17.416 48.6677 17.666 48.5806 17.8327C48.5806 17.916 48.4935 18.0827 48.4064 18.2493C48.4935 18.5827 48.2322 18.5827 47.8838 18.5827C47.6225 18.5827 47.3613 18.4993 46.8387 18.3327C46.3161 18.166 46.0548 17.9993 46.0548 17.8327C46.0548 17.7493 46.0548 17.666 46.0548 17.4993C46.0548 17.3327 46.0548 17.2493 46.0548 17.2493C46.0548 17.166 46.0548 16.916 46.0548 16.666C46.0548 16.416 46.0548 16.166 46.0548 16.0827C46.0548 15.8327 46.0548 15.4993 46.0548 14.9993C46.0548 14.4993 46.0548 14.166 46.0548 13.916C46.0548 13.666 46.0548 13.2493 45.9677 12.666C45.9677 12.0827 45.8806 11.666 45.8806 11.416C45.8806 10.9993 45.8806 10.3327 45.9677 9.49935C45.9677 8.66602 46.0548 7.99935 46.0548 7.58268V4.16602C46.0548 3.99935 46.0548 3.74935 46.0548 3.41602C46.0548 3.08268 46.0548 2.83268 46.0548 2.66602C46.0548 2.24935 46.1419 2.08268 46.3161 1.99935C47.0129 1.83268 47.9709 1.66602 49.1032 1.66602C51.1064 1.66602 52.2387 1.74935 52.5 1.99935C53.1096 2.66602 53.3709 3.16602 53.3709 3.83268Z" fill="white"/>
<path d="M64.8677 14.2497C64.8677 14.583 64.8677 15.1663 64.7806 15.833C64.6935 16.4997 64.6935 16.9997 64.6935 17.333C64.6935 17.6663 64.6935 17.9163 64.6064 17.9997C64.5193 18.083 64.3451 18.1663 64.0838 18.1663C63.9967 18.1663 63.8225 18.2497 63.5612 18.4163C63.387 18.4997 63.1258 18.583 62.9516 18.583C62.6032 18.583 62.3419 18.4163 62.2548 18.083C62.1677 17.9163 62.1677 17.583 62.1677 17.083C62.1677 16.9163 62.1677 16.6663 62.1677 16.333C62.1677 15.9997 62.1677 15.7497 62.1677 15.583C62.1677 15.4163 62.1677 15.083 62.1677 14.7497C62.1677 14.4163 62.1677 14.083 62.1677 13.9163C62.1677 13.583 62.2548 12.583 62.3419 10.7497C62.3419 10.1663 62.429 9.83301 62.429 9.74967C62.429 9.41634 62.429 9.24967 62.3419 9.24967C62.2548 9.24967 62.0806 9.49967 61.8193 10.083C61.7322 10.333 61.6451 10.6663 61.4709 11.1663C60.9483 12.1663 60.5129 13.2497 60.0774 14.4997C59.6419 15.7497 59.0322 17.083 58.4225 18.333C58.0742 18.9163 57.6387 19.2497 57.1161 19.2497C56.8548 19.2497 56.5935 19.1663 56.4193 18.9997C56.158 18.833 55.9838 18.7497 55.8967 18.7497C55.4612 18.7497 55.287 17.9163 55.287 16.1663C55.287 15.583 55.2871 14.6663 55.3742 13.4997C55.3742 12.333 55.4612 11.4163 55.4612 10.833C55.4612 10.4997 55.4612 9.99967 55.4612 9.33301C55.4612 8.66634 55.4612 8.16634 55.4612 7.83301C55.4612 7.33301 55.4612 6.58301 55.5483 5.58301C55.5483 4.58301 55.6354 3.83301 55.6354 3.33301C55.6354 2.58301 56.2451 2.24967 57.5516 2.24967C57.8129 2.24967 57.9871 2.33301 58.0741 2.41634C58.1612 2.58301 58.1612 2.74967 58.1612 3.08301C58.1612 3.99967 58.1612 5.33301 58.2483 7.08301C58.3354 8.83301 58.3354 10.2497 58.3354 11.083C58.3354 11.333 58.3354 11.6663 58.3354 12.083C58.3354 12.4997 58.3354 12.833 58.3354 13.083C58.3354 13.2497 58.3354 13.333 58.4225 13.333C58.5967 13.333 58.7709 12.9997 59.0322 12.333C59.5548 11.083 60.1645 9.41634 60.7741 7.33301C61.0354 6.33301 61.3838 5.33301 61.6451 4.41634C62.1677 2.83301 62.5161 1.99967 62.6903 1.83301C62.8645 1.74967 63.1258 1.66634 63.4741 1.49967C63.9096 1.41634 64.1709 1.33301 64.3451 1.33301C64.5193 1.33301 64.6064 1.33301 64.6935 1.41634C64.7806 1.49967 64.8677 2.16634 64.8677 3.41634C64.9548 4.49967 64.9548 5.24967 64.9548 5.66634C64.9548 6.24967 64.9548 7.08301 64.8677 8.16634C64.7806 9.24967 64.7806 10.083 64.7806 10.6663C64.7806 11.083 64.7806 11.6663 64.8677 12.4997C64.9548 13.333 64.8677 13.833 64.8677 14.2497Z" fill="white"/>
<path d="M77.1484 14.75C77.1484 15.0833 77.1484 15.5833 77.2355 16.1667C77.2355 16.8333 77.3226 17.25 77.3226 17.5833C77.3226 18 77.2355 18.25 77.1484 18.4167C76.9742 18.5833 76.7129 18.6667 76.3645 18.6667C75.2322 18.6667 74.6226 18.4167 74.6226 18C74.6226 17.75 74.6226 17.4167 74.6226 16.9167C74.6226 16.4167 74.6226 16.0833 74.6226 15.8333C74.6226 15.4167 74.6226 14.6667 74.7097 13.75C74.7968 12.8333 74.7968 12.1667 74.7968 11.6667C74.7968 11.5833 74.7097 11.5 74.6226 11.5C74.4484 11.5 74.2742 11.5 73.9258 11.5833C73.4032 12.4167 72.8806 13.3333 72.4451 14.25L72.0968 15C71.7484 15.75 71.4 16.5 70.9645 17.25C70.3548 18.4167 69.8322 19 69.4838 19C69.2226 19 68.7871 18.8333 68.2645 18.5C67.7419 18.1667 67.4806 17.8333 67.4806 17.5833C67.4806 17.4167 67.5677 17.1667 67.7419 16.9167C68.4387 16.0833 69.4838 14.25 70.9645 11.5833C70.2677 11.4167 69.7451 11.25 69.4838 11C68.7871 10.4167 68.3516 9.83333 68.1774 9.33333C68.0032 8.91667 67.9161 8.25 67.9161 7.33333C67.9161 5.08333 68.8742 3.58333 70.7903 2.75C72.1838 2.16667 73.4032 1.83333 74.3613 1.83333C74.4484 1.83333 74.5355 1.83333 74.7097 1.83333C74.8838 1.83333 74.9709 1.83333 75.058 1.83333C75.2322 1.83333 75.4935 1.75 75.8419 1.66667C76.1903 1.58333 76.4516 1.5 76.6258 1.5C76.9742 1.5 77.2355 1.58333 77.3226 1.83333C77.4097 1.91667 77.4097 2.16667 77.4097 2.58333C77.4097 2.66667 77.4097 2.91667 77.4968 3.08333C77.4968 3.33333 77.5839 3.5 77.5839 3.58333C77.5839 3.91667 77.5838 4.33333 77.4968 5C77.4968 5.58333 77.4097 6.08333 77.4097 6.41667C77.4097 6.83333 77.4097 7.41667 77.4968 8.25C77.5838 9.08333 77.5839 9.66667 77.5839 10.0833C77.5839 11.1667 77.4968 12.4167 77.4097 13.9167C77.1484 14.4167 77.1484 14.75 77.1484 14.75ZM74.6226 7.83333C74.6226 7.08333 74.6226 6.58333 74.6226 6.41667C74.6226 6.08333 74.5355 5.83333 74.5355 5.75C74.5355 5.66667 74.5355 5.5 74.5355 5.25C74.5355 5.08333 74.5355 4.91667 74.5355 4.75C74.5355 4.58333 74.4484 4.5 74.3613 4.41667C74.3613 4.41667 74.1871 4.41667 74.0129 4.41667C73.1419 4.41667 72.358 4.66667 71.6613 5.08333C70.8774 5.58333 70.529 6.25 70.529 7C70.529 7.66667 70.7032 8.25 71.1387 8.66667C71.5742 9.08333 72.0968 9.25 72.7935 9.25C72.9677 9.25 73.229 9.25 73.5774 9.16667C73.9258 9.08333 74.1871 9.08333 74.3613 9.08333C74.5355 8.91667 74.6226 8.5 74.6226 7.83333Z" fill="white"/>
<path d="M99.7935 17.666C99.7935 18.166 99.6193 18.416 99.271 18.416C97.9645 18.416 97.2677 17.9993 97.2677 17.0827C97.2677 16.666 97.2677 15.9993 97.1806 15.0827C97.0935 14.166 97.0935 13.4994 97.0935 13.0827C97.0935 12.7494 97.0935 12.166 97.1806 11.4993C97.2677 10.8327 97.2677 10.2493 97.2677 9.91601C97.2677 9.58268 97.2677 9.08268 97.1806 8.49935C97.0935 7.83268 97.0935 7.41602 97.0935 7.08268C97.0935 6.74935 97.0935 6.16602 97.1806 5.49935C97.2677 4.74935 97.2677 4.24935 97.2677 3.91602C97.0935 3.91602 96.7452 3.99935 96.3968 4.08268C95.5258 4.24935 95.0032 4.33268 94.829 4.33268C94.7419 4.33268 94.6548 4.33268 94.5677 4.33268C94.3935 4.33268 94.3064 4.33268 94.3064 4.33268H93.871C93.871 4.49935 93.871 4.83268 93.871 5.24935C93.871 5.66602 93.871 5.91601 93.871 6.16601C93.871 6.83268 93.871 7.83268 93.7839 9.24935C93.7839 10.5827 93.6968 11.5827 93.6968 12.3327C93.6968 13.666 93.6968 14.5827 93.6968 14.8327C93.6968 15.4993 93.6968 15.8327 93.6968 15.9994C93.6968 16.0827 93.6968 16.2494 93.6968 16.416C93.6968 16.5827 93.6968 16.7494 93.6968 16.8327C93.6968 16.916 93.6968 17.0827 93.6968 17.3327C93.6968 17.5827 93.6968 17.7493 93.6968 17.8327C93.6968 17.916 93.6968 17.9994 93.6968 18.0827C93.6968 18.2494 93.6968 18.3327 93.6968 18.3327C93.6968 18.416 93.6968 18.4993 93.6097 18.5827C93.5226 18.5827 93.5226 18.666 93.4355 18.666C93.3484 18.666 93.2613 18.666 93.1742 18.5827C93 18.5827 92.9129 18.5827 92.8258 18.5827C92.0419 18.5827 91.5193 18.416 91.3452 18.0827C91.171 17.7494 90.9968 16.9993 90.9968 15.8327C90.9968 15.166 90.9968 14.0827 90.9097 12.7493C90.9097 11.3327 90.8226 10.3327 90.8226 9.66602C90.8226 9.08268 90.8226 8.24935 90.9097 7.08268C90.9968 5.91602 90.9968 5.08268 90.9968 4.49935C90.9968 4.41601 90.9097 4.24935 90.8226 4.08268C90.6484 3.83268 90.6484 3.58268 90.6484 3.33268C90.6484 2.66602 90.7355 2.24935 90.9097 2.08268C91.0839 1.91602 91.4322 1.83268 91.8677 1.83268C92.6516 1.83268 94.3935 1.58268 97.0935 1.16601C97.1806 0.832681 97.4419 0.666016 97.9645 0.666016C98.1387 0.666016 98.3129 0.666014 98.5742 0.749348C98.8355 0.832681 99.0968 0.832683 99.1839 0.832683C99.271 0.832683 99.4452 0.999348 99.6193 1.16601C99.7935 1.41601 99.8806 1.58268 99.8806 1.66602C99.8806 1.74935 99.8806 1.83268 99.7935 1.99935C99.7935 2.16601 99.7064 2.33268 99.7064 2.41601C99.7064 2.49935 99.7064 2.66601 99.7935 2.83268C99.7935 2.99935 99.8806 3.16601 99.8806 3.24935C99.8806 3.49935 99.8806 3.83268 99.7935 4.33268C99.7935 4.83268 99.7064 5.16602 99.7064 5.41602C99.7064 5.74935 99.7064 6.33268 99.7935 7.08268C99.7935 7.83268 99.8806 8.41602 99.8806 8.74935C99.8806 9.74935 99.8806 11.166 99.7935 13.166C99.8806 15.166 99.7935 16.666 99.7935 17.666Z" fill="white"/>
<path d="M111.726 6.24968C111.726 7.33301 111.465 8.41634 110.855 9.41634C110.245 10.4997 109.548 11.2497 108.59 11.833C107.981 12.083 107.197 12.4163 106.065 12.9163V14.583C106.065 14.833 106.065 15.1663 106.152 15.583C106.152 15.9997 106.239 16.333 106.239 16.583C106.239 16.7497 106.239 16.9997 106.152 17.2497C106.065 17.583 106.065 17.7497 106.065 17.9163C106.065 17.9997 106.065 17.9997 106.152 18.083C106.239 18.1663 106.239 18.2497 106.239 18.333C106.239 18.833 105.977 19.083 105.455 19.083C104.148 19.083 103.452 18.583 103.365 17.4997C103.277 16.2497 103.277 14.2497 103.277 11.6663C103.277 11.2497 103.277 10.583 103.277 9.74968C103.277 8.91634 103.277 8.24967 103.277 7.83301C103.277 7.24967 103.277 6.33301 103.277 5.16634C103.277 3.99968 103.277 3.08301 103.277 2.49968C103.277 1.91634 103.887 1.58301 105.194 1.58301H106.5C107.11 1.58301 107.632 1.66634 108.068 1.74968C108.939 1.99968 109.81 2.58301 110.594 3.49968C111.29 4.49968 111.726 5.41634 111.726 6.24968ZM108.503 6.33301C108.503 5.66634 108.416 5.16634 108.242 4.91634C107.981 4.49967 107.545 4.33301 106.848 4.33301H106.5C106.326 4.33301 106.152 4.41634 106.152 4.49967C106.065 4.58301 106.065 4.99967 106.065 5.74967C106.065 5.91634 106.065 6.08301 106.065 6.33301C106.065 6.58301 106.065 6.74968 106.065 6.91634C106.065 6.99968 106.065 7.16634 106.065 7.41634C106.065 7.66634 106.065 7.83301 106.065 7.91634C106.065 7.99968 106.065 8.16634 106.065 8.41634C106.065 8.66634 106.065 8.83301 106.065 8.91634C106.065 8.99968 106.065 9.08301 106.065 9.24967C106.065 9.41634 106.065 9.49968 106.065 9.58301C106.065 9.91634 106.152 10.083 106.326 10.083C107.023 10.083 107.545 9.66634 108.068 8.83301C108.329 8.08301 108.503 7.24967 108.503 6.33301Z" fill="white"/>
<path d="M122.787 18.2493C122.787 18.3327 122.7 18.416 122.613 18.4993C122.526 18.5827 122.352 18.666 122.264 18.666C122.177 18.666 122.177 18.666 122.003 18.5827C121.916 18.5827 121.829 18.4993 121.742 18.4993C121.655 18.4993 121.568 18.4993 121.394 18.5827C121.306 18.666 121.132 18.666 121.132 18.666C120.61 18.666 120.174 18.0827 119.826 16.9993C119.826 16.8327 119.739 16.666 119.739 16.416C119.564 15.666 119.39 14.916 119.129 14.3327C119.042 14.166 118.955 13.9993 118.868 13.8327H118.345C116.516 13.8327 115.558 13.916 115.471 14.166C115.384 14.3327 115.297 14.7493 115.123 15.416C114.948 16.2493 114.861 16.666 114.774 16.8327C114.513 17.666 114.339 18.3327 114.339 18.666C114.339 19.2493 114.077 19.4993 113.468 19.4993C113.119 19.4993 112.858 19.4993 112.51 19.416C112.074 19.3327 111.813 19.0827 111.813 18.916C111.813 18.8327 111.813 18.8327 111.813 18.7493C111.813 18.666 111.813 18.5827 111.813 18.5827C111.813 18.2493 111.9 17.666 111.9 16.916C112.248 14.166 112.945 11.0827 114.164 7.58268V7.49935C114.426 6.33268 114.774 5.16601 115.035 3.99935C115.471 2.24935 115.819 1.41602 116.168 1.41602C116.69 1.41602 117.387 1.49935 118.171 1.66601C119.216 1.83268 119.739 2.08268 119.739 2.41601V2.49935C119.739 2.58268 119.739 2.58268 119.739 2.58268C119.739 2.58268 119.739 2.83268 119.826 3.24935C120 4.24935 120.261 5.66601 120.61 7.58268C120.958 9.16601 121.132 10.0827 121.132 10.3327C121.132 10.8327 121.219 11.5827 121.481 12.416C121.655 13.166 121.829 13.9993 122.003 14.8327C122.09 15.416 122.264 16.2493 122.439 17.416C122.439 17.4993 122.526 17.666 122.526 17.8327C122.7 17.9993 122.787 18.166 122.787 18.2493ZM118.781 11.166C118.781 10.7493 118.694 10.166 118.519 9.41601C118.258 8.33268 118.171 7.74935 118.171 7.66602C118.171 7.58268 118.171 7.41602 118.084 7.24935C117.91 6.33268 117.735 5.83268 117.648 5.83268C117.648 5.91602 117.561 6.16601 117.474 6.58268C116.603 9.58268 116.081 11.2493 116.081 11.416C116.081 11.4993 116.342 11.5827 116.777 11.5827C116.864 11.5827 116.952 11.5827 117.126 11.5827C117.3 11.5827 117.387 11.5827 117.474 11.5827C118.258 11.666 118.781 11.4993 118.781 11.166Z" fill="white"/>
<path d="M133.413 13.1663C133.413 13.833 133.152 14.583 132.716 15.4163C132.019 16.6663 130.539 17.6663 128.448 18.4163C127.49 18.7497 126.794 18.9163 126.358 18.9163C124.79 18.9163 124.006 18.2497 124.006 16.833C124.006 16.2497 124.442 15.9163 125.313 15.9163C125.574 15.9163 125.748 15.9163 125.923 15.9997C126.097 16.083 126.184 16.083 126.271 16.083C127.142 16.083 128.1 15.7497 129.058 15.083C130.103 14.4163 130.626 13.6663 130.626 12.833C130.626 12.2497 130.452 11.7497 130.016 11.2497C129.581 10.833 129.058 10.583 128.448 10.583C128.013 10.583 127.577 10.6663 127.229 10.9163C126.881 11.1663 126.619 11.2497 126.445 11.2497C126.01 11.2497 125.748 11.1663 125.574 11.083C125.4 10.9163 125.313 10.6663 125.313 10.333C125.313 9.74967 125.4 9.33301 125.661 9.08301C125.923 8.83301 126.358 8.58301 126.968 8.24967C128.1 7.74967 128.71 7.41634 129.058 7.24968C129.929 6.74968 130.452 6.24967 130.626 5.74967C130.713 5.49967 130.8 5.16634 130.8 4.74968C130.8 4.66634 130.713 4.58301 130.539 4.41634C130.365 4.24968 130.103 4.16634 129.668 4.16634C129.058 4.16634 128.535 4.24968 128.013 4.41634C127.49 4.58301 127.055 4.83301 126.445 5.24968C126.097 5.49968 125.923 5.58301 125.748 5.58301C125.661 5.58301 125.574 5.49968 125.4 5.41634C124.877 4.91634 124.616 4.33301 124.616 3.66634C124.616 3.24967 125.052 2.83301 125.923 2.41634C126.532 2.16634 127.142 1.91634 127.752 1.74968C128.274 1.66634 128.71 1.58301 129.058 1.58301C130.452 1.58301 131.584 1.99967 132.455 2.83301C132.977 3.41634 133.326 4.16634 133.326 5.16634C133.326 5.74968 132.89 6.58301 132.106 7.58301C131.845 7.91634 131.497 8.16634 131.148 8.41634C130.8 8.58301 130.626 8.74967 130.626 8.83301C130.626 8.83301 130.713 8.91634 130.887 8.91634C131.235 8.99968 131.758 9.24967 132.368 9.66634C132.977 10.333 133.413 11.583 133.413 13.1663Z" fill="white"/>
<path d="M147.087 17.1667C147.087 17.3333 147.087 17.9167 147 19C146.913 20.0833 146.913 20.5833 146.913 20.6667C146.826 20.75 146.564 20.8333 146.129 20.8333C145.955 20.8333 145.606 20.75 145.258 20.6667C144.823 20.5833 144.561 20.4167 144.561 20.3333C144.561 20.25 144.735 19.5 144.997 18.25C143.69 18.3333 141.6 18.5 138.987 18.75C138.377 18.8333 137.332 18.9167 136.113 19.0833C136.2 19.6667 136.287 20.25 136.287 20.75C136.287 21.1667 135.939 21.4167 135.155 21.4167C134.371 21.4167 134.023 21.3333 134.023 21.1667C134.023 20.9167 134.023 20.5 134.11 19.9167C134.197 19.3333 134.197 18.9167 134.197 18.6667C134.197 18.5833 134.197 18.5 134.197 18.4167C134.11 18.3333 134.11 18.1667 134.11 17.9167C134.11 17.25 134.632 16.9167 135.677 16.9167C136.548 12.8333 137.245 9.66667 137.855 7.5C138.029 6.91667 138.29 6 138.552 4.75C139.074 2.58333 139.423 1.5 139.771 1.5C139.858 1.5 140.032 1.5 140.294 1.58333C141.6 1.83333 142.558 2 142.994 2C143.255 2 143.342 2.08333 143.429 2.16667C143.516 2.5 143.516 2.91667 143.603 3.41667C143.777 4.16667 143.952 5.25 144.213 6.75C144.213 6.83333 144.3 7.33333 144.474 8.25C144.561 8.83333 144.648 9.33333 144.648 9.75C144.648 10.25 144.735 11.25 144.91 12.8333C145.084 14.5 145.171 15.4167 145.258 15.6667C145.345 15.9167 145.519 16 145.694 16C146.216 16 146.477 16 146.652 16C147 16.0833 147.174 16.25 147.261 16.5C147.087 16.5833 147.087 16.8333 147.087 17.1667ZM142.645 16.0833C142.645 15.5 142.558 14.6667 142.297 13.5C142.123 12.4167 141.948 11.5 141.948 10.9167C141.948 10.6667 141.861 10.25 141.774 9.66667C141.513 8.66667 141.164 7.25 140.729 5.58333C140.642 5.75 140.468 6.5 140.119 7.75C139.945 8.5 139.597 9.66667 139.248 11.1667C139.074 11.9167 138.9 12.9167 138.552 14.4167C138.464 14.9167 138.29 15.5833 138.116 16.5H138.29C138.813 16.5 139.51 16.4167 140.468 16.3333C141.426 16.1667 142.123 16.0833 142.645 16.0833Z" fill="white"/>
<path d="M157.277 10.9997C157.277 11.2497 157.277 11.583 157.277 12.083C157.277 12.583 157.277 12.9163 157.277 13.1663C157.277 13.6663 157.277 14.4163 157.19 15.4163C157.103 16.4163 157.103 17.1663 157.103 17.6663C157.103 17.9163 157.016 18.083 156.929 18.1663C156.842 18.2497 156.668 18.333 156.494 18.333C155.187 18.333 154.49 17.9163 154.49 17.083C154.49 16.6663 154.49 15.9997 154.403 15.083C154.316 14.1663 154.403 13.4997 154.403 13.083C154.403 12.9163 154.403 12.6663 154.49 12.4163C154.49 12.083 154.577 11.9163 154.577 11.7497C154.577 11.333 154.49 11.083 154.316 11.083C154.142 11.083 153.881 11.083 153.532 11.1663C153.184 11.2497 152.923 11.2497 152.748 11.2497H152.661C152.574 11.2497 152.574 11.2497 152.487 11.2497C151.965 11.2497 151.529 11.333 151.268 11.4163C151.181 11.4163 151.181 12.2497 151.181 13.833C151.181 14.083 151.181 14.4997 151.181 14.9997C151.181 15.4997 151.181 15.9163 151.181 16.1663C151.181 16.2497 151.181 16.333 151.181 16.4163C151.181 16.4997 151.181 16.6663 151.181 16.6663C151.181 16.7497 151.181 16.9997 151.181 17.2497C151.181 17.4997 151.181 17.6663 151.181 17.833C151.181 17.9163 151.181 17.9163 151.181 18.083C151.181 18.1663 151.181 18.2497 151.181 18.333C151.181 18.583 151.094 18.6663 150.832 18.6663C150.745 18.6663 150.658 18.6663 150.571 18.583C150.223 18.583 150.135 18.583 150.048 18.583C149.265 18.583 148.742 18.4163 148.568 18.083C148.394 17.6663 148.306 16.9163 148.306 15.833C148.306 15.1663 148.306 14.083 148.219 12.7497C148.132 11.4163 148.132 10.333 148.132 9.66634C148.132 9.08301 148.132 8.41634 148.219 7.58301C148.306 6.41634 148.306 5.74967 148.306 5.49967C148.306 4.99967 148.306 4.24967 148.306 3.24967C148.306 2.99967 148.394 2.74967 148.568 2.41634C148.742 2.08301 148.916 1.91634 149.09 1.91634C149.961 1.91634 150.484 1.99967 150.658 2.16634C150.919 2.33301 151.006 2.83301 151.006 3.58301C151.006 3.83301 151.006 4.16634 151.006 4.58301C151.006 4.99967 151.006 5.33301 151.006 5.58301C151.006 5.83301 151.006 6.16634 151.006 6.58301C151.006 6.99967 151.006 7.33301 151.006 7.58301C151.006 7.66634 151.006 7.83301 151.006 7.99967C151.006 8.16634 151.006 8.33301 151.006 8.33301C151.006 8.41634 151.006 8.49967 151.094 8.49967C151.181 8.49967 151.355 8.49967 151.529 8.49967C151.703 8.49967 151.877 8.49967 151.965 8.49967C151.965 8.49967 152.052 8.49967 152.139 8.49967C152.226 8.49967 152.313 8.49967 152.313 8.49967C152.487 8.49967 152.748 8.49967 153.01 8.41634C153.358 8.33301 153.532 8.33301 153.706 8.33301C153.794 8.33301 153.794 8.33301 153.881 8.33301C153.968 8.33301 154.055 8.33301 154.055 8.33301C154.055 8.33301 154.142 8.24967 154.142 7.99967C154.229 7.16634 154.316 5.58301 154.316 3.08301C154.316 2.91634 154.316 2.58301 154.229 2.24967C154.142 1.91634 154.142 1.58301 154.142 1.41634C154.142 1.08301 154.229 0.833005 154.316 0.749672C154.403 0.666339 154.665 0.583008 155.013 0.583008C155.448 0.583008 155.884 0.666341 156.232 0.833007C156.755 1.08301 156.929 1.33301 156.929 1.66634C156.929 1.74967 156.929 1.91634 156.929 2.08301C156.929 2.24967 156.929 2.33301 156.929 2.49967C156.929 2.58301 156.929 2.83301 156.929 3.08301C156.929 3.33301 156.929 3.49967 156.929 3.66634C156.929 3.91634 156.929 4.24967 156.929 4.66634C156.929 5.08301 156.929 5.41634 156.929 5.66634C156.929 5.99967 156.929 6.58301 156.929 7.24967C156.929 7.99967 156.929 8.49967 156.929 8.83301C156.929 9.08301 156.929 9.41634 156.929 9.91634C157.277 10.333 157.277 10.7497 157.277 10.9997Z" fill="white"/>
<path d="M170.081 14.25C170.081 14.5833 170.081 15.1667 169.994 15.8333C169.906 16.5 169.906 17 169.906 17.3333C169.906 17.6667 169.906 17.9167 169.819 18C169.732 18.0833 169.558 18.1667 169.297 18.1667C169.21 18.1667 169.035 18.25 168.774 18.4167C168.513 18.5 168.339 18.5833 168.077 18.5833C167.729 18.5833 167.468 18.4167 167.381 18.0833C167.294 17.9167 167.294 17.5833 167.294 17.0833C167.294 16.9167 167.294 16.6667 167.294 16.3333C167.294 16 167.294 15.75 167.294 15.5833C167.294 15.4167 167.294 15.0833 167.294 14.75C167.294 14.4167 167.294 14.0833 167.294 13.9167C167.294 13.5833 167.381 12.5833 167.468 10.75C167.468 10.1667 167.555 9.83333 167.555 9.75C167.555 9.41667 167.555 9.25 167.468 9.25C167.381 9.25 167.206 9.5 166.945 10.0833C166.858 10.3333 166.771 10.6667 166.597 11.1667C166.074 12.1667 165.639 13.25 165.203 14.5C164.768 15.75 164.158 17.0833 163.548 18.3333C163.2 18.9167 162.765 19.25 162.242 19.25C161.981 19.25 161.719 19.1667 161.545 19C161.284 18.8333 161.11 18.75 161.11 18.75C160.674 18.75 160.5 17.9167 160.5 16.1667C160.5 15.5833 160.5 14.6667 160.587 13.5C160.587 12.3333 160.674 11.4167 160.674 10.8333C160.674 10.5 160.674 10 160.674 9.33333C160.674 8.66667 160.674 8.16667 160.674 7.83333C160.674 7.33333 160.674 6.58333 160.761 5.58333C160.761 4.58333 160.848 3.83333 160.848 3.33333C160.848 2.58333 161.458 2.25 162.765 2.25C163.026 2.25 163.2 2.33333 163.287 2.41666C163.113 2.5 163.113 2.75 163.113 3C163.113 3.91667 163.113 5.25 163.2 7C163.287 8.75 163.287 10.1667 163.287 11C163.287 11.25 163.287 11.5833 163.287 12C163.287 12.4167 163.287 12.75 163.287 13C163.287 13.1667 163.287 13.25 163.374 13.25C163.548 13.25 163.723 12.9167 163.984 12.25C164.506 11 165.116 9.33333 165.726 7.25C165.987 6.25 166.335 5.25 166.597 4.33333C167.119 2.75 167.468 1.91667 167.642 1.75C167.816 1.66667 168.077 1.58333 168.426 1.41667C168.861 1.33333 169.123 1.25 169.297 1.25C169.471 1.25 169.558 1.25 169.645 1.33333C169.732 1.41667 169.819 2.08333 169.906 3.33333C169.994 4.41667 169.994 5.16667 169.994 5.58333C169.994 6.16667 169.994 7 169.906 8.08333C169.819 9.16667 169.819 10 169.819 10.5833C169.819 11 169.819 11.5833 169.906 12.4167C169.994 13.25 170.081 13.8333 170.081 14.25Z" fill="white"/>
<path d="M183.668 2.58268C183.668 2.83268 182.884 4.08268 181.229 6.41602C179.661 8.74935 178.79 10.0827 178.79 10.416C178.79 10.4994 179.574 11.5827 181.055 13.7494C182.535 15.916 183.319 17.0827 183.319 17.3327C183.319 17.416 183.145 17.666 182.797 17.9993C182.448 18.3327 182.187 18.4994 182.1 18.4994C182.013 18.4994 181.665 18.2493 181.229 17.8327C180.619 17.2493 179.835 16.3327 179.052 15.2493C177.919 13.7493 177.223 12.916 176.961 12.5827C176.613 12.2493 176.439 12.0827 176.352 12.0827C176.352 12.0827 176.352 12.0827 176.265 12.0827V12.3327C176.265 12.416 176.265 12.5827 176.352 12.7493C176.352 12.916 176.439 13.0827 176.439 13.166C176.439 13.7493 176.439 14.666 176.352 16.0827C176.265 17.666 176.177 18.4993 176.09 18.666C176.003 18.8327 175.829 18.916 175.742 18.916C175.394 18.916 174.958 18.8327 174.435 18.666C173.826 18.416 173.565 18.166 173.565 17.8327V13.9993C173.565 13.416 173.565 12.4994 173.652 11.2494C173.739 9.99935 173.739 9.16602 173.739 8.49935C173.739 8.16602 173.739 7.66602 173.739 7.08268C173.739 6.49935 173.739 5.99935 173.739 5.66602C173.739 4.49935 173.826 3.49935 173.913 2.74935C174 1.99935 174.087 1.66602 174.261 1.66602C174.61 1.66602 174.958 1.66602 175.394 1.74935C175.916 1.83268 176.265 1.99935 176.439 2.16602C176.526 2.33268 176.613 3.58268 176.7 5.91602V6.08268C176.7 6.33268 176.7 6.66602 176.613 7.16602C176.7 7.66602 176.7 7.99935 176.7 8.24935C176.7 8.74935 176.7 8.99935 176.787 8.99935C176.874 8.99935 177.745 7.66602 179.4 5.08268C181.055 2.49935 182.013 1.16602 182.361 1.16602C182.535 1.16602 182.884 1.33268 183.406 1.74935C183.406 2.16602 183.668 2.41602 183.668 2.58268Z" fill="white"/>
<path d="M194.468 18.2493C194.468 18.3327 194.381 18.416 194.294 18.4993C194.119 18.5827 194.032 18.666 193.945 18.666C193.858 18.666 193.858 18.666 193.684 18.5827C193.597 18.5827 193.51 18.4993 193.423 18.4993C193.335 18.4993 193.248 18.4993 193.074 18.5827C192.9 18.666 192.813 18.666 192.813 18.666C192.29 18.666 191.855 18.0827 191.506 16.9993C191.506 16.8327 191.419 16.666 191.419 16.416C191.245 15.666 191.071 14.916 190.81 14.3327C190.723 14.166 190.635 13.9993 190.548 13.8327H190.026C188.197 13.8327 187.239 13.916 187.152 14.166C187.064 14.3327 186.977 14.7493 186.803 15.416C186.629 16.2493 186.542 16.666 186.455 16.8327C186.194 17.666 186.019 18.3327 186.019 18.666C186.019 19.2493 185.758 19.4993 185.148 19.4993C184.8 19.4993 184.539 19.4993 184.19 19.416C183.755 19.3327 183.494 19.0827 183.494 18.916C183.494 18.8327 183.494 18.8327 183.494 18.7493C183.494 18.666 183.494 18.5827 183.494 18.5827C183.494 18.2493 183.581 17.666 183.581 16.916C183.929 14.166 184.626 11.0827 185.845 7.58268V7.49935C186.106 6.33268 186.455 5.16601 186.716 3.99935C187.152 2.24935 187.5 1.41602 187.848 1.41602C188.371 1.41602 189.068 1.49935 189.852 1.66601C190.897 1.83268 191.419 2.08268 191.419 2.41601V2.49935C191.419 2.58268 191.419 2.58268 191.419 2.58268C191.419 2.58268 191.419 2.83268 191.506 3.24935C191.681 4.24935 191.942 5.66601 192.29 7.58268C192.639 9.16601 192.813 10.0827 192.813 10.3327C192.813 10.8327 192.9 11.5827 193.161 12.416C193.335 13.166 193.51 13.9993 193.684 14.8327C193.771 15.416 193.945 16.2493 194.119 17.416C194.119 17.4993 194.206 17.666 194.206 17.8327C194.468 17.9993 194.468 18.166 194.468 18.2493ZM190.461 11.166C190.461 10.7493 190.374 10.166 190.2 9.41601C189.939 8.33268 189.852 7.74935 189.852 7.66602C189.852 7.58268 189.852 7.41602 189.764 7.24935C189.59 6.33268 189.416 5.83268 189.329 5.83268C189.329 5.91602 189.242 6.16601 189.155 6.58268C188.284 9.58268 187.761 11.2493 187.761 11.416C187.761 11.4993 188.023 11.5827 188.458 11.5827C188.545 11.5827 188.632 11.5827 188.806 11.5827C188.981 11.5827 189.068 11.5827 189.155 11.5827C190.026 11.666 190.461 11.4993 190.461 11.166Z" fill="white"/>
</svg>
