<svg width="16" height="16" fill="none" xmlns="http://www.w3.org/2000/svg"><path d="M7.838 3.475c-.029.022-.479.74-.997 1.6-.71 1.169-.97 1.572-1.041 1.616a.522.522 0 0 1-.26.059c-.237 0-.318-.088-.727-.787-.429-.732-.475-.794-.582-.816-.187-.035-.24.019-.562.55-.49.81-.569.925-.678.99a.503.503 0 0 1-.403.035c-.041-.016-.338-.285-.66-.597-.578-.56-.59-.569-.7-.553-.128.022-.215.09-.24.194-.013.05.23.809.765 2.365.472 1.388.794 2.378.816 2.516.034.222.019.434-.066.822-.103.475.038.825.419 1.025l.156.084h9.878l.185-.094a.829.829 0 0 0 .425-.493c.043-.163.018-.46-.054-.647-.043-.106-.056-.235-.056-.531v-.391l.775-2.25c.425-1.238.775-2.297.775-2.356 0-.132-.081-.22-.231-.244-.113-.016-.122-.01-.672.522-.306.3-.597.568-.65.6a.457.457 0 0 1-.444-.006c-.109-.066-.187-.182-.678-.991-.24-.397-.325-.513-.393-.538a.313.313 0 0 0-.272.035c-.022.015-.216.328-.432.694-.215.365-.434.703-.48.75a.455.455 0 0 1-.61.009c-.044-.038-.494-.76-1.003-1.6-.51-.844-.947-1.55-.975-1.572A.37.37 0 0 0 8 3.437a.355.355 0 0 0-.162.038Zm.987 2.09c.447.738.86 1.391.919 1.45.194.194.353.25.71.25.277 0 .33-.009.468-.084.222-.115.287-.197.622-.756l.293-.494.075.119c.044.069.175.284.294.481.369.613.544.735 1.044.735.344 0 .469-.05.725-.291l.15-.14-.269.777c-.462 1.338-.731 2.141-.84 2.513l-.104.36-4.909.009-4.91.006-.018-.084c-.022-.11-.431-1.344-.866-2.613l-.33-.965.15.14c.252.238.377.288.721.288.5 0 .675-.122 1.044-.735.119-.197.25-.412.294-.481l.075-.119.293.494c.335.56.4.64.622.756.138.075.19.085.469.085.356 0 .516-.057.71-.25.059-.06.471-.713.918-1.454.444-.737.816-1.34.825-1.34.01 0 .381.603.825 1.344Zm4.097 5.582c.012.066.047.222.081.347.078.297.075.331-.031.45l-.09.103h-9.7l-.091-.103c-.12-.132-.116-.2.022-.844l.012-.069h9.778l.019.116Z" fill="#443E3E"/><path d="M7.916 6.563c-.085.034-.141.118-.36.546-.087.172-.162.316-.165.322-.007.007-.21.038-.45.072-.466.063-.544.085-.597.185-.078.146-.044.215.31.575l.34.346-.072.375c-.097.491-.1.61-.006.697.115.11.237.088.671-.131l.397-.2.391.216c.406.222.5.25.619.165.134-.093.137-.14.062-.625l-.069-.456.335-.325c.181-.178.34-.36.353-.403.028-.113-.04-.253-.138-.294a8.908 8.908 0 0 0-.887-.16c-.013 0-.113-.187-.222-.415-.11-.225-.219-.428-.244-.45a.305.305 0 0 0-.268-.04Zm.375 1.356a.662.662 0 0 0 .209.065c.078.01.181.029.228.035l.088.019-.188.196c-.21.22-.222.257-.16.579.02.09.026.171.02.178a1.014 1.014 0 0 1-.222-.097.975.975 0 0 0-.285-.113c-.044 0-.175.05-.3.113l-.222.112.022-.09c.01-.047.028-.185.038-.3l.022-.213-.197-.2-.194-.197.197-.022c.356-.037.39-.056.534-.321l.131-.238.104.225c.056.122.134.244.175.269Z" fill="#443E3E"/></svg>