<svg width="50" height="50" fill="none" xmlns="http://www.w3.org/2000/svg"><g clip-path="url(#a)"><path fill="#FBE0E0" d="M0 0h50v50H0z"/><path d="M17.664 14.784c-.562.352-1.05.647-1.083.661-.033.01-.548-.192-1.148-.45-.6-.262-1.135-.473-1.195-.473-.244 0-.24.066.089 1.364l.304 1.224-.815.923c-.633.712-.816.947-.816 1.05 0 .089.033.14.108.169.056.023.633.08 1.275.122.769.046 1.19.093 1.223.13.028.034.31.498.628 1.041.563.961.661 1.102.778 1.102.122 0 .207-.164.629-1.228.239-.6.45-1.111.468-1.13.02-.019.544-.15 1.177-.29.628-.146 1.181-.272 1.223-.286.094-.029.146-.16.108-.263-.019-.042-.45-.427-.965-.853-.797-.666-.933-.797-.933-.91 0-.07.042-.557.093-1.087.118-1.223.118-1.34.005-1.406a.764.764 0 0 0-.112-.047c-.01 0-.478.286-1.04.637Z" fill="url(#b)"/><path d="M26.43 14.4c-.085.061-.085.094-.028.713.051.548.051.656-.005.693-.038.028-.249.207-.469.394-.633.534-.605.619.263.806.328.07.604.136.614.146.01.009.112.262.234.557.122.296.244.568.272.6.028.033.103.057.169.047.098-.01.173-.112.426-.539.169-.29.319-.539.333-.548.014-.014.3-.052.633-.08.333-.028.633-.07.666-.098.13-.113.056-.272-.352-.722l-.408-.45.113-.478c.06-.258.112-.568.117-.685 0-.192-.01-.21-.127-.225-.07-.01-.347.08-.665.22l-.544.24-.53-.328c-.295-.183-.553-.329-.576-.329a.294.294 0 0 0-.136.066Z" fill="url(#c)"/><path d="M24.395 18.53c-.183.595-.346 1.35-.459 2.133-.155 1.078-.09 4.865.089 5.212.047.094.248.113.3.028.019-.028.084-.445.14-.919.263-2.1.741-4.007 1.355-5.395l.211-.473-.14-.277c-.08-.15-.141-.295-.141-.328 0-.028-.056-.061-.127-.08-.398-.089-.53-.131-.759-.258a2.205 2.205 0 0 0-.286-.135c-.019 0-.098.22-.183.492Z" fill="url(#d)"/><path d="M33.583 19.44c-.403.796-.427.838-.577.862-.084.018-.46.075-.834.126-.91.131-.886.122-.919.263-.028.108.042.192.638.792l.665.67-.145.877c-.08.483-.136.918-.122.965.056.17.281.104 1.064-.318l.764-.404.783.404c.431.225.839.407.905.407.201 0 .206-.13.042-1.073l-.15-.872.651-.633c.54-.52.657-.656.652-.764 0-.178-.066-.197-1.05-.337a24.652 24.652 0 0 1-.858-.132 61.625 61.625 0 0 1-.37-.764c-.399-.825-.455-.909-.61-.909-.098 0-.168.113-.53.84Z" fill="url(#e)"/><path d="M19.994 20.381c-.422.099-.774.188-.783.197a36.183 36.183 0 0 0-.633 1.59c0 .018.108.196.244.398.131.206.412.712.623 1.125 1.008 1.978 1.875 4.748 2.63 8.357.197.966.628 3.422.698 4.008.043.328.16.483.305.403.09-.047.094-.103.094-1.42 0-3.989-.436-7.969-1.247-11.33-.375-1.556-.984-3.487-1.102-3.501-.037 0-.407.075-.83.173Z" fill="url(#f)"/><path d="M29.617 22.458a13.925 13.925 0 0 0-1.65 1.828c-1.706 2.302-2.822 5.147-3.29 8.4-.165 1.144-.197 1.561-.225 2.888l-.029 1.298.118.075c.089.06.15.066.239.033.14-.056.122-.014.337-.942 1.135-4.913 3.061-8.649 5.578-10.782l.39-.332-.146-.286c-.192-.37-.215-.793-.084-1.491l.093-.492-.22-.225a4.224 4.224 0 0 0-.389-.361l-.169-.136-.553.525Z" fill="url(#g)"/><path d="m15.948 27.136-.445.474-.61-.094c-.332-.047-.632-.08-.665-.066-.033.01-.08.061-.108.113-.042.075.005.192.258.651l.31.563-.244.478c-.282.558-.324.694-.263.797.057.103.188.098.825-.02l.535-.098.168.16c.094.084.314.29.488.45.169.16.328.29.351.29.155 0 .207-.136.286-.75l.08-.632.497-.258c.595-.31.651-.352.651-.502 0-.098-.07-.145-.58-.389-.366-.173-.591-.305-.605-.36a8.847 8.847 0 0 1-.104-.577c-.084-.52-.159-.703-.295-.703-.042 0-.281.21-.53.473Z" fill="url(#h)"/><path d="M19.047 29.94a2.298 2.298 0 0 1-.474.35l-.257.137-.057.37-.06.37.323.408c.937 1.177 1.772 2.625 2.527 4.392.163.385.323.727.351.764.07.085.319.052.384-.046.061-.099-.037-.713-.28-1.749-.324-1.383-.742-2.573-1.29-3.68-.347-.698-.862-1.556-.928-1.537-.014 0-.122.103-.24.22Z" fill="url(#i)"/><path d="m34.347 30.694-.37.51-.68.015-.68.014-.014.131c-.014.103.061.24.342.623l.357.497-.193.553c-.318.891-.262.952.596.67l.595-.2.488.374c.506.39.67.45.759.286.023-.051.047-.365.047-.694v-.604l.473-.324c.492-.337.628-.473.577-.6-.033-.089-.047-.093-.722-.314l-.534-.173-.174-.567c-.276-.92-.337-.933-.867-.197Z" fill="url(#j)"/><path d="M30.353 31.79c-1.945.69-3.272 1.768-4.031 3.287-.244.487-.431 1.017-.431 1.223 0 .206.136.347.342.347.173 0 .253-.07.604-.54a11.27 11.27 0 0 1 1.327-1.415c.91-.769 1.744-1.204 2.808-1.467l.515-.127.061-.187c.061-.183.061-.188-.145-.502a2.167 2.167 0 0 1-.267-.51 13.42 13.42 0 0 0-.07-.258c-.024-.085-.08-.07-.713.15Z" fill="url(#k)"/></g><defs><linearGradient id="b" x1="13" y1="17.897" x2="20.63" y2="17.897" gradientUnits="userSpaceOnUse"><stop stop-color="#E81212"/><stop offset="1" stop-color="#FCCD05"/></linearGradient><linearGradient id="c" x1="25.492" y1="16.346" x2="29.597" y2="16.346" gradientUnits="userSpaceOnUse"><stop stop-color="#E81212"/><stop offset="1" stop-color="#FCCD05"/></linearGradient><linearGradient id="d" x1="23.849" y1="21.997" x2="26.031" y2="21.997" gradientUnits="userSpaceOnUse"><stop stop-color="#E81212"/><stop offset="1" stop-color="#FCCD05"/></linearGradient><linearGradient id="e" x1="31.248" y1="21.342" x2="37" y2="21.342" gradientUnits="userSpaceOnUse"><stop stop-color="#E81212"/><stop offset="1" stop-color="#FCCD05"/></linearGradient><linearGradient id="f" x1="18.578" y1="28.344" x2="23.172" y2="28.344" gradientUnits="userSpaceOnUse"><stop stop-color="#E81212"/><stop offset="1" stop-color="#FCCD05"/></linearGradient><linearGradient id="g" x1="24.424" y1="29.466" x2="31.084" y2="29.466" gradientUnits="userSpaceOnUse"><stop stop-color="#E81212"/><stop offset="1" stop-color="#FCCD05"/></linearGradient><linearGradient id="h" x1="14.107" y1="28.748" x2="18.063" y2="28.748" gradientUnits="userSpaceOnUse"><stop stop-color="#E81212"/><stop offset="1" stop-color="#FCCD05"/></linearGradient><linearGradient id="i" x1="18.198" y1="33.249" x2="21.802" y2="33.249" gradientUnits="userSpaceOnUse"><stop stop-color="#E81212"/><stop offset="1" stop-color="#FCCD05"/></linearGradient><linearGradient id="j" x1="32.602" y1="32.211" x2="36.654" y2="32.211" gradientUnits="userSpaceOnUse"><stop stop-color="#E81212"/><stop offset="1" stop-color="#FCCD05"/></linearGradient><linearGradient id="k" x1="25.891" y1="34.12" x2="31.584" y2="34.12" gradientUnits="userSpaceOnUse"><stop stop-color="#E81212"/><stop offset="1" stop-color="#FCCD05"/></linearGradient><clipPath id="a"><rect width="50" height="50" rx="25" fill="#fff"/></clipPath></defs></svg>