<svg width="50" height="50" fill="none" xmlns="http://www.w3.org/2000/svg"><g clip-path="url(#a)"><path fill="#FBE0E0" d="M0 0h50v50H0z"/><path d="M24.531 15.154c-1.776 1.242-3.403 2.025-5.086 2.456-.839.216-1.345.295-2.217.352-.797.051-.928.093-1.12.375l-.108.159.019 4.34c.019 4.744.014 4.6.314 5.766.689 2.681 2.667 4.627 6.703 6.596 1.931.942 1.912.937 2.7.58 3.67-1.645 5.794-3.163 6.966-4.973.604-.932.928-1.785 1.176-3.117.09-.492.094-.726.113-4.851l.018-4.341-.107-.16c-.193-.28-.324-.323-1.12-.374-1.309-.08-2.35-.314-3.676-.83-1.064-.413-2.358-1.092-3.21-1.692-.638-.445-.605-.431-.891-.431-.22 0-.3.023-.474.145Zm1.5 4.476a5.99 5.99 0 0 1 4.857 4.88c.089.516.089 1.481 0 1.997a5.957 5.957 0 0 1-2.626 3.994c-1.003.656-2.043.965-3.257.965-1.2 0-2.278-.318-3.249-.956-1.284-.848-2.133-2.039-2.554-3.586-.113-.422-.122-.525-.122-1.415 0-.886.01-.994.122-1.407.318-1.172.796-2.015 1.589-2.808a5.92 5.92 0 0 1 5.24-1.664Z" fill="url(#b)"/><path d="M27.184 23.235c-.023.01-.108.028-.187.047-.103.023-.497.384-1.444 1.326l-1.298 1.299-.53-.525c-.286-.286-.577-.544-.638-.577-.239-.122-.642-.06-.867.136-.22.197-.3.647-.154.924.042.075.459.52.932.989.952.942 1.055 1.008 1.458.904.174-.046.403-.258 1.805-1.654.886-.882 1.64-1.664 1.683-1.74.145-.276.065-.726-.155-.923-.16-.14-.473-.244-.605-.206Z" fill="url(#c)"/></g><defs><linearGradient id="b" x1="16" y1="25.504" x2="34.009" y2="25.504" gradientUnits="userSpaceOnUse"><stop stop-color="#E81212"/><stop offset="1" stop-color="#FCCD05"/></linearGradient><linearGradient id="c" x1="21.992" y1="25.511" x2="28.017" y2="25.511" gradientUnits="userSpaceOnUse"><stop stop-color="#E81212"/><stop offset="1" stop-color="#FCCD05"/></linearGradient><clipPath id="a"><rect width="50" height="50" rx="25" fill="#fff"/></clipPath></defs></svg>