<svg width="50" height="50" fill="none" xmlns="http://www.w3.org/2000/svg"><g clip-path="url(#a)"><path fill="#FBE0E0" d="M0 0h50v50H0z"/><path d="M24.185 13.07c-1.12.282-2.025 1.21-2.302 2.353-.126.53-.08 1.327.104 1.824a3.22 3.22 0 0 0 1.982 1.95c.267.094.394.108 1.008.108.647 0 .731-.01 1.045-.127.193-.07.465-.197.61-.281.342-.202.881-.74 1.083-1.083a3.272 3.272 0 0 0 0-3.3c-.202-.342-.741-.881-1.083-1.083-.507-.3-.882-.398-1.561-.417-.422-.01-.694.01-.886.056Z" fill="url(#b)"/><path d="M21.302 20.125c-.192.047-.53.173-.75.286-.328.164-.487.286-.853.651-.384.385-.478.507-.66.891-.357.731-.367.802-.367 2.888 0 1.706.005 1.832.09 1.959.046.07.15.173.22.22.131.085.333.09 6.019.09 5.685 0 5.887-.005 6.018-.09a.984.984 0 0 0 .22-.22c.085-.127.09-.253.09-1.931 0-2.067-.019-2.203-.366-2.916-.183-.384-.277-.506-.66-.89-.367-.366-.526-.488-.85-.647-.791-.394-.693-.385-4.471-.38-3.052 0-3.361.01-3.68.089Z" fill="url(#c)"/><path d="M24.72 27.94c-.165.065-.371.327-.985 1.279l-.656 1.008-1.229.328c-1.368.365-1.476.422-1.58.81-.093.338-.023.47.835 1.533l.797.99-.066 1.256c-.065 1.218-.065 1.27.024 1.462.112.263.323.394.623.394.17 0 .492-.103 1.332-.422.609-.23 1.143-.422 1.185-.422.043 0 .577.192 1.186.422.84.319 1.163.422 1.332.422.3 0 .51-.131.623-.394.09-.192.09-.244.024-1.462l-.066-1.256.797-.99c.858-1.064.928-1.195.834-1.532-.103-.39-.21-.446-1.58-.811l-1.223-.328-.66-1.008c-.362-.558-.718-1.074-.798-1.149-.117-.112-.187-.136-.408-.15-.15-.004-.304 0-.342.02Z" fill="url(#d)"/><path d="M16 30.658c-.121.06-.28.258-.614.76-.253.37-.482.688-.515.707a9.032 9.032 0 0 1-.722.211c-.736.197-.839.244-1.003.417-.14.15-.192.6-.099.783.033.061.272.37.53.69l.464.576-.028.853c-.033.806-.028.862.061 1.008a.947.947 0 0 0 .248.243c.258.16.516.122 1.266-.164.366-.14.703-.258.74-.258.038 0 .376.118.741.258.77.296 1.018.324 1.28.15.305-.201.337-.342.29-1.26l-.037-.811.45-.563c.61-.774.605-.76.605-1.031 0-.263-.113-.488-.305-.614-.07-.042-.347-.141-.623-.216-.277-.075-.614-.164-.75-.206l-.244-.07-.44-.67c-.244-.376-.498-.713-.568-.76-.183-.117-.53-.136-.726-.033Z" fill="url(#e)"/><path d="M33.344 30.658c-.122.06-.276.253-.595.736-.234.356-.45.67-.473.694-.029.028-.38.14-.783.248-.403.113-.783.24-.849.281-.187.122-.3.347-.3.61 0 .272-.004.258.605 1.031l.45.563-.038.81c-.046.92-.014 1.06.291 1.261.263.174.506.146 1.285-.15.37-.14.703-.258.74-.258.038 0 .37.118.736.258.75.286 1.008.324 1.266.164a.947.947 0 0 0 .248-.243c.09-.146.094-.202.061-1.008l-.028-.853.464-.577c.258-.319.497-.628.53-.689.093-.183.042-.633-.099-.783-.164-.173-.281-.225-.91-.394-.309-.08-.627-.168-.712-.192-.121-.037-.23-.168-.595-.722-.244-.37-.502-.707-.567-.754-.183-.117-.53-.136-.727-.033Z" fill="url(#f)"/></g><defs><linearGradient id="b" x1="21.812" y1="16.158" x2="28.161" y2="16.158" gradientUnits="userSpaceOnUse"><stop stop-color="#E81212"/><stop offset="1" stop-color="#FCCD05"/></linearGradient><linearGradient id="c" x1="18.672" y1="23.572" x2="31.329" y2="23.572" gradientUnits="userSpaceOnUse"><stop stop-color="#E81212"/><stop offset="1" stop-color="#FCCD05"/></linearGradient><linearGradient id="d" x1="20.239" y1="32.459" x2="29.762" y2="32.459" gradientUnits="userSpaceOnUse"><stop stop-color="#E81212"/><stop offset="1" stop-color="#FCCD05"/></linearGradient><linearGradient id="e" x1="13" y1="33.795" x2="19.657" y2="33.795" gradientUnits="userSpaceOnUse"><stop stop-color="#E81212"/><stop offset="1" stop-color="#FCCD05"/></linearGradient><linearGradient id="f" x1="30.344" y1="33.795" x2="37.001" y2="33.795" gradientUnits="userSpaceOnUse"><stop stop-color="#E81212"/><stop offset="1" stop-color="#FCCD05"/></linearGradient><clipPath id="a"><rect width="50" height="50" rx="25" fill="#fff"/></clipPath></defs></svg>